<?xml version="1.0" encoding="UTF-8" standalone="no"?>
<!DOCTYPE svg PUBLIC "-//W3C//DTD SVG 1.1//EN" "http://www.w3.org/Graphics/SVG/1.1/DTD/svg11.dtd">
<svg width="100%" height="100%" viewBox="0 0 1920 1080" version="1.1" xmlns="http://www.w3.org/2000/svg" xmlns:xlink="http://www.w3.org/1999/xlink" xml:space="preserve" xmlns:serif="http://www.serif.com/" style="fill-rule:evenodd;clip-rule:evenodd;stroke-linecap:round;stroke-linejoin:round;stroke-miterlimit:1.5;">
    <g transform="matrix(1,0,0,1,-2181.5,-1.9399)">
        <g id="Artboard2" transform="matrix(0.816674,0,0,1.02373,117.765,-23.6897)">
            <rect x="2527" y="25.035" width="2351" height="1054.96" style="fill:none;"/>
            <clipPath id="_clip1">
                <rect x="2527" y="25.035" width="2351" height="1054.96"/>
            </clipPath>
            <g clip-path="url(#_clip1)">
                <g transform="matrix(1.22448,0,0,0.976819,2527,25.0355)">
                    <rect x="0" y="0" width="1920" height="1080" style="fill:rgb(201,216,247);"/>
                </g>
                <g transform="matrix(1.06122,0,0,0.846584,2677.29,215.937)">
                    <ellipse cx="931.589" cy="1117.02" rx="1409.41" ry="402.018" style="fill:rgb(126,183,127);"/>
                </g>
                <g transform="matrix(1.06122,0,0,0.846584,362.233,215.937)">
                    <path d="M2310.99,895.38C2313.1,894.331 2310.91,887.988 2310.29,886.143C2302.19,861.973 2269.72,826.206 2246.79,814.309C2246.05,813.922 2242.83,812.499 2242.77,811.552C2242.45,806.023 2273.63,811.175 2276.18,811.414C2294.76,813.145 2326.28,827.338 2338.16,842.436C2344.8,850.881 2342.87,872.935 2353.41,870.838C2355.27,870.469 2350.58,849.583 2350.36,848.502C2341.45,805.176 2350.5,764.624 2347.59,721.243C2347.54,720.487 2346.93,710.127 2347.45,710.075C2348.83,709.937 2349.96,713.42 2350.36,714.349C2363.05,743.793 2376.21,770.995 2382.94,802.452C2384.78,811.023 2386.32,820.032 2389.04,828.373C2390.72,833.516 2397.46,848.171 2394.45,843.677C2366.68,802.253 2441.35,748.848 2472.92,737.926C2473.55,737.707 2480.53,735.704 2480.55,735.858C2480.78,737.447 2478.05,737.875 2476.8,738.891C2451.61,759.468 2442.29,796.643 2432.44,826.029C2430.34,832.284 2425.06,865.538 2426.89,850.984" style="fill:url(#_Linear2);stroke:rgb(37,177,111);stroke-width:2.98px;"/>
                </g>
                <g transform="matrix(1.06122,0,0,0.846584,614.584,260.806)">
                    <path d="M2310.99,895.38C2313.1,894.331 2310.91,887.988 2310.29,886.143C2302.19,861.973 2269.72,826.206 2246.79,814.309C2246.05,813.922 2242.83,812.499 2242.77,811.552C2242.45,806.023 2273.63,811.175 2276.18,811.414C2294.76,813.145 2326.28,827.338 2338.16,842.436C2344.8,850.881 2342.87,872.935 2353.41,870.838C2355.27,870.469 2350.58,849.583 2350.36,848.502C2341.45,805.176 2350.5,764.624 2347.59,721.243C2347.54,720.487 2346.93,710.127 2347.45,710.075C2348.83,709.937 2349.96,713.42 2350.36,714.349C2363.05,743.793 2376.21,770.995 2382.94,802.452C2384.78,811.023 2386.32,820.032 2389.04,828.373C2390.72,833.516 2397.46,848.171 2394.45,843.677C2366.68,802.253 2441.35,748.848 2472.92,737.926C2473.55,737.707 2480.53,735.704 2480.55,735.858C2480.78,737.447 2478.05,737.875 2476.8,738.891C2451.61,759.468 2442.29,796.643 2432.44,826.029C2430.34,832.284 2425.06,865.538 2426.89,850.984" style="fill:url(#_Linear3);stroke:rgb(37,177,111);stroke-width:2.98px;"/>
                </g>
                <g transform="matrix(1.06122,0,0,0.846584,407.645,339.246)">
                    <path d="M2310.99,895.38C2313.1,894.331 2310.91,887.988 2310.29,886.143C2302.19,861.973 2269.72,826.206 2246.79,814.309C2246.05,813.922 2242.83,812.499 2242.77,811.552C2242.45,806.023 2273.63,811.175 2276.18,811.414C2294.76,813.145 2326.28,827.338 2338.16,842.436C2344.8,850.881 2342.87,872.935 2353.41,870.838C2355.27,870.469 2350.58,849.583 2350.36,848.502C2341.45,805.176 2350.5,764.624 2347.59,721.243C2347.54,720.487 2346.93,710.127 2347.45,710.075C2348.83,709.937 2349.96,713.42 2350.36,714.349C2363.05,743.793 2376.21,770.995 2382.94,802.452C2384.78,811.023 2386.32,820.032 2389.04,828.373C2390.72,833.516 2397.46,848.171 2394.45,843.677C2366.68,802.253 2441.35,748.848 2472.92,737.926C2473.55,737.707 2480.53,735.704 2480.55,735.858C2480.78,737.447 2478.05,737.875 2476.8,738.891C2451.61,759.468 2442.29,796.643 2432.44,826.029C2430.34,832.284 2425.06,865.538 2426.89,850.984" style="fill:url(#_Linear4);stroke:rgb(37,177,111);stroke-width:2.98px;"/>
                </g>
                <g transform="matrix(-1.06122,0,0,0.846584,7073.97,222.8)">
                    <path d="M2310.99,895.38C2313.1,894.331 2310.91,887.988 2310.29,886.143C2302.19,861.973 2269.72,826.206 2246.79,814.309C2246.05,813.922 2242.83,812.499 2242.77,811.552C2242.45,806.023 2273.63,811.175 2276.18,811.414C2294.76,813.145 2326.28,827.338 2338.16,842.436C2344.8,850.881 2342.87,872.935 2353.41,870.838C2355.27,870.469 2350.58,849.583 2350.36,848.502C2341.45,805.176 2350.5,764.624 2347.59,721.243C2347.54,720.487 2346.93,710.127 2347.45,710.075C2348.83,709.937 2349.96,713.42 2350.36,714.349C2363.05,743.793 2376.21,770.995 2382.94,802.452C2384.78,811.023 2386.32,820.032 2389.04,828.373C2390.72,833.516 2397.46,848.171 2394.45,843.677C2366.68,802.253 2441.35,748.848 2472.92,737.926C2473.55,737.707 2480.53,735.704 2480.55,735.858C2480.78,737.447 2478.05,737.875 2476.8,738.891C2451.61,759.468 2442.29,796.643 2432.44,826.029C2430.34,832.284 2425.06,865.538 2426.89,850.984" style="fill:url(#_Linear5);stroke:rgb(37,177,111);stroke-width:2.98px;"/>
                </g>
                <g transform="matrix(-1.06122,0,0,0.846584,6947.79,339.246)">
                    <path d="M2310.99,895.38C2313.1,894.331 2310.91,887.988 2310.29,886.143C2302.19,861.973 2269.72,826.206 2246.79,814.309C2246.05,813.922 2242.83,812.499 2242.77,811.552C2242.45,806.023 2273.63,811.175 2276.18,811.414C2294.76,813.145 2326.28,827.338 2338.16,842.436C2344.8,850.881 2342.87,872.935 2353.41,870.838C2355.27,870.469 2350.58,849.583 2350.36,848.502C2341.45,805.176 2350.5,764.624 2347.59,721.243C2347.54,720.487 2346.93,710.127 2347.45,710.075C2348.83,709.937 2349.96,713.42 2350.36,714.349C2363.05,743.793 2376.21,770.995 2382.94,802.452C2384.78,811.023 2386.32,820.032 2389.04,828.373C2390.72,833.516 2397.46,848.171 2394.45,843.677C2366.68,802.253 2441.35,748.848 2472.92,737.926C2473.55,737.707 2480.53,735.704 2480.55,735.858C2480.78,737.447 2478.05,737.875 2476.8,738.891C2451.61,759.468 2442.29,796.643 2432.44,826.029C2430.34,832.284 2425.06,865.538 2426.89,850.984" style="fill:url(#_Linear6);stroke:rgb(37,177,111);stroke-width:2.98px;"/>
                </g>
                <g transform="matrix(-1.06122,0,0,0.846584,6880.45,222.8)">
                    <path d="M2310.99,895.38C2313.1,894.331 2310.91,887.988 2310.29,886.143C2302.19,861.973 2269.72,826.206 2246.79,814.309C2246.05,813.922 2242.83,812.499 2242.77,811.552C2242.45,806.023 2273.63,811.175 2276.18,811.414C2294.76,813.145 2326.28,827.338 2338.16,842.436C2344.8,850.881 2342.87,872.935 2353.41,870.838C2355.27,870.469 2350.58,849.583 2350.36,848.502C2341.45,805.176 2350.5,764.624 2347.59,721.243C2347.54,720.487 2346.93,710.127 2347.45,710.075C2348.83,709.937 2349.96,713.42 2350.36,714.349C2363.05,743.793 2376.21,770.995 2382.94,802.452C2384.78,811.023 2386.32,820.032 2389.04,828.373C2390.72,833.516 2397.46,848.171 2394.45,843.677C2366.68,802.253 2441.35,748.848 2472.92,737.926C2473.55,737.707 2480.53,735.704 2480.55,735.858C2480.78,737.447 2478.05,737.875 2476.8,738.891C2451.61,759.468 2442.29,796.643 2432.44,826.029C2430.34,832.284 2425.06,865.538 2426.89,850.984" style="fill:url(#_Linear7);stroke:rgb(37,177,111);stroke-width:2.98px;"/>
                </g>
                <g transform="matrix(2.67642,0,0,2.13509,-4143.06,-327.587)">
                    <circle cx="3301.78" cy="214.341" r="239.305" style="fill:url(#_Radial8);"/>
                </g>
                <g transform="matrix(1.42196,0,0,1.13436,-1.10098,-113.087)">
                    <circle cx="3301.78" cy="214.341" r="239.305" style="fill:url(#_Radial9);"/>
                </g>
            </g>
        </g>
    </g>
    <defs>
        <linearGradient id="_Linear2" x1="0" y1="0" x2="1" y2="0" gradientUnits="userSpaceOnUse" gradientTransform="matrix(16.3346,60.3511,-60.3511,16.3346,2361.67,810.832)"><stop offset="0" style="stop-color:rgb(37,177,111);stop-opacity:1"/><stop offset="1" style="stop-color:rgb(126,183,127);stop-opacity:1"/></linearGradient>
        <linearGradient id="_Linear3" x1="0" y1="0" x2="1" y2="0" gradientUnits="userSpaceOnUse" gradientTransform="matrix(16.3346,60.3511,-60.3511,16.3346,2361.67,810.832)"><stop offset="0" style="stop-color:rgb(37,177,111);stop-opacity:1"/><stop offset="1" style="stop-color:rgb(126,183,127);stop-opacity:1"/></linearGradient>
        <linearGradient id="_Linear4" x1="0" y1="0" x2="1" y2="0" gradientUnits="userSpaceOnUse" gradientTransform="matrix(16.3346,60.3511,-60.3511,16.3346,2361.67,810.832)"><stop offset="0" style="stop-color:rgb(37,177,111);stop-opacity:1"/><stop offset="1" style="stop-color:rgb(126,183,127);stop-opacity:1"/></linearGradient>
        <linearGradient id="_Linear5" x1="0" y1="0" x2="1" y2="0" gradientUnits="userSpaceOnUse" gradientTransform="matrix(16.3346,60.3511,-60.3511,16.3346,2361.67,810.832)"><stop offset="0" style="stop-color:rgb(37,177,111);stop-opacity:1"/><stop offset="1" style="stop-color:rgb(126,183,127);stop-opacity:1"/></linearGradient>
        <linearGradient id="_Linear6" x1="0" y1="0" x2="1" y2="0" gradientUnits="userSpaceOnUse" gradientTransform="matrix(16.3346,60.3511,-60.3511,16.3346,2361.67,810.832)"><stop offset="0" style="stop-color:rgb(37,177,111);stop-opacity:1"/><stop offset="1" style="stop-color:rgb(126,183,127);stop-opacity:1"/></linearGradient>
        <linearGradient id="_Linear7" x1="0" y1="0" x2="1" y2="0" gradientUnits="userSpaceOnUse" gradientTransform="matrix(16.3346,60.3511,-60.3511,16.3346,2361.67,810.832)"><stop offset="0" style="stop-color:rgb(37,177,111);stop-opacity:1"/><stop offset="1" style="stop-color:rgb(126,183,127);stop-opacity:1"/></linearGradient>
        <radialGradient id="_Radial8" cx="0" cy="0" r="1" gradientUnits="userSpaceOnUse" gradientTransform="matrix(-141.166,-166.592,166.592,-141.166,3301.78,214.341)"><stop offset="0" style="stop-color:rgb(235,152,2);stop-opacity:1"/><stop offset="1" style="stop-color:rgb(201,216,247);stop-opacity:1"/></radialGradient>
        <radialGradient id="_Radial9" cx="0" cy="0" r="1" gradientUnits="userSpaceOnUse" gradientTransform="matrix(239.305,0,0,239.305,3301.78,214.341)"><stop offset="0" style="stop-color:rgb(235,152,2);stop-opacity:1"/><stop offset="1" style="stop-color:rgb(254,212,106);stop-opacity:1"/></radialGradient>
    </defs>
</svg>
