<?xml version="1.0" encoding="UTF-8" standalone="no"?>
<!DOCTYPE svg PUBLIC "-//W3C//DTD SVG 1.1//EN" "http://www.w3.org/Graphics/SVG/1.1/DTD/svg11.dtd">
<svg width="100%" height="100%" viewBox="0 0 1921 1081" version="1.1" xmlns="http://www.w3.org/2000/svg" xmlns:xlink="http://www.w3.org/1999/xlink" xml:space="preserve" xmlns:serif="http://www.serif.com/" style="fill-rule:evenodd;clip-rule:evenodd;stroke-linejoin:round;stroke-miterlimit:2;">
    <g transform="matrix(1,0,0,1,-6446,-1449)">
        <g id="Artboard9" transform="matrix(2.6087,0,0,1.46739,5583.95,-906.885)">
            <rect x="330.612" y="1606" width="736" height="736" style="fill:none;"/>
            <clipPath id="_clip1">
                <rect x="330.612" y="1606" width="736" height="736"/>
            </clipPath>
            <g clip-path="url(#_clip1)">
                <g transform="matrix(0.383333,0,0,-0.681481,-500.61,3329.97)">
                    <rect x="2151.63" y="1449.75" width="1920" height="1080" style="fill:url(#_Linear2);"/>
                </g>
                <g transform="matrix(0.383333,0,0,0.681481,-2116.07,776.167)">
                    <circle cx="7284" cy="2010.94" r="195.697" style="fill:rgb(254,212,106);"/>
                </g>
                <g transform="matrix(0.383333,0,0,0.474642,-2140.51,1144.32)">
                    <rect x="6393.01" y="2094.49" width="1956.63" height="449.947" style="fill:url(#_Linear3);"/>
                    <path d="M7778.92,2351.93C7778.92,2351.93 7809.57,2352.98 7852.83,2354.12C7862.79,2354.39 7873.42,2354.64 7884.5,2354.85C7898.05,2355.11 7912.26,2355.36 7926.73,2355.5C7936.05,2355.6 7945.47,2355.63 7954.89,2355.62C7961.94,2355.61 7969,2355.55 7976.01,2355.47C7992.91,2355.26 8009.54,2354.94 8025.28,2354.63C8040.37,2354.33 8054.63,2353.98 8067.51,2353.66C8105.11,2352.71 8130.86,2351.93 8130.86,2351.93C8130.86,2351.93 8105.11,2351.14 8067.51,2350.2C8054.63,2349.87 8040.37,2349.53 8025.28,2349.23C8009.54,2348.91 7992.91,2348.59 7976.01,2348.39C7969,2348.3 7961.94,2348.25 7954.89,2348.24C7945.47,2348.22 7936.05,2348.26 7926.73,2348.35C7912.26,2348.49 7898.05,2348.74 7884.5,2349C7873.42,2349.22 7862.79,2349.47 7852.83,2349.73C7809.57,2350.87 7778.92,2351.93 7778.92,2351.93ZM7195.35,2344.54C7195.35,2344.54 7226,2345.59 7269.26,2346.73C7279.23,2346.99 7289.85,2347.25 7300.93,2347.46C7314.48,2347.72 7328.69,2347.97 7343.17,2348.11C7352.48,2348.2 7361.9,2348.24 7371.32,2348.23C7378.38,2348.22 7385.43,2348.16 7392.44,2348.08C7409.34,2347.87 7425.97,2347.55 7441.71,2347.24C7456.81,2346.93 7471.06,2346.59 7483.94,2346.27C7521.55,2345.32 7547.29,2344.54 7547.29,2344.54C7547.29,2344.54 7521.55,2343.75 7483.94,2342.81C7471.06,2342.48 7456.81,2342.14 7441.71,2341.84C7425.97,2341.52 7409.34,2341.2 7392.44,2341C7385.43,2340.91 7378.38,2340.86 7371.32,2340.85C7361.9,2340.83 7352.48,2340.87 7343.17,2340.96C7328.69,2341.1 7314.48,2341.35 7300.93,2341.61C7289.85,2341.83 7279.23,2342.08 7269.26,2342.34C7226,2343.48 7195.35,2344.54 7195.35,2344.54ZM6625.45,2340.84C6625.45,2340.84 6656.1,2341.9 6699.36,2343.04C6709.32,2343.3 6719.95,2343.55 6731.03,2343.77C6744.58,2344.03 6758.79,2344.28 6773.27,2344.42C6782.58,2344.51 6792,2344.55 6801.42,2344.53C6808.48,2344.52 6815.53,2344.47 6822.54,2344.38C6839.44,2344.18 6856.07,2343.86 6871.81,2343.54C6886.91,2343.24 6901.16,2342.9 6914.04,2342.57C6951.64,2341.63 6977.39,2340.84 6977.39,2340.84C6977.39,2340.84 6951.64,2340.06 6914.04,2339.11C6901.16,2338.79 6886.91,2338.44 6871.81,2338.14C6856.07,2337.83 6839.44,2337.51 6822.54,2337.3C6815.53,2337.22 6808.48,2337.16 6801.42,2337.15C6792,2337.14 6782.58,2337.17 6773.27,2337.26C6758.79,2337.41 6744.58,2337.66 6731.03,2337.92C6719.95,2338.13 6709.32,2338.38 6699.36,2338.65C6656.1,2339.79 6625.45,2340.84 6625.45,2340.84ZM6522.6,2231.06C6522.6,2231.06 6553.25,2232.11 6596.51,2233.25C6606.47,2233.52 6617.1,2233.77 6628.18,2233.98C6641.73,2234.24 6655.94,2234.49 6670.41,2234.64C6679.73,2234.73 6689.15,2234.76 6698.57,2234.75C6705.62,2234.74 6712.68,2234.68 6719.68,2234.6C6736.59,2234.39 6753.22,2234.07 6768.96,2233.76C6784.05,2233.45 6798.31,2233.11 6811.19,2232.79C6848.79,2231.84 6874.54,2231.06 6874.54,2231.06C6874.54,2231.06 6848.79,2230.27 6811.19,2229.33C6798.31,2229 6784.05,2228.66 6768.96,2228.36C6753.22,2228.04 6736.59,2227.72 6719.68,2227.52C6712.68,2227.43 6705.62,2227.38 6698.57,2227.37C6689.15,2227.35 6679.73,2227.39 6670.41,2227.48C6655.94,2227.62 6641.73,2227.87 6628.18,2228.13C6617.1,2228.35 6606.47,2228.6 6596.51,2228.86C6553.25,2230 6522.6,2231.06 6522.6,2231.06ZM7547.29,2202.94C7547.29,2202.94 7577.94,2204 7621.2,2205.14C7631.17,2205.4 7641.79,2205.65 7652.88,2205.87C7666.42,2206.13 7680.63,2206.38 7695.11,2206.52C7704.42,2206.61 7713.84,2206.65 7723.26,2206.63C7730.32,2206.62 7737.37,2206.57 7744.38,2206.48C7761.28,2206.28 7777.91,2205.96 7793.65,2205.64C7808.75,2205.34 7823.01,2205 7835.89,2204.67C7873.49,2203.73 7899.24,2202.94 7899.24,2202.94C7899.24,2202.94 7873.49,2202.16 7835.89,2201.21C7823.01,2200.89 7808.75,2200.54 7793.65,2200.24C7777.91,2199.93 7761.28,2199.61 7744.38,2199.4C7737.37,2199.32 7730.32,2199.26 7723.26,2199.25C7713.84,2199.24 7704.42,2199.27 7695.11,2199.36C7680.63,2199.51 7666.42,2199.76 7652.88,2200.02C7641.79,2200.23 7631.17,2200.48 7621.2,2200.75C7577.94,2201.89 7547.29,2202.94 7547.29,2202.94ZM6698.57,2150.57C6698.57,2150.57 6729.22,2151.63 6772.48,2152.77C6782.44,2153.03 6793.07,2153.28 6804.15,2153.5C6817.7,2153.76 6831.91,2154.01 6846.38,2154.15C6855.7,2154.24 6865.12,2154.28 6874.54,2154.26C6881.59,2154.25 6888.65,2154.2 6895.65,2154.11C6912.56,2153.91 6929.19,2153.59 6944.93,2153.27C6960.02,2152.97 6974.28,2152.63 6987.16,2152.3C7024.76,2151.36 7050.51,2150.57 7050.51,2150.57C7050.51,2150.57 7024.76,2149.79 6987.16,2148.84C6974.28,2148.52 6960.02,2148.17 6944.93,2147.87C6929.19,2147.56 6912.56,2147.24 6895.65,2147.03C6888.65,2146.95 6881.59,2146.89 6874.54,2146.88C6865.12,2146.87 6855.7,2146.9 6846.38,2146.99C6831.91,2147.14 6817.7,2147.39 6804.15,2147.65C6793.07,2147.86 6782.44,2148.11 6772.48,2148.38C6729.22,2149.52 6698.57,2150.57 6698.57,2150.57Z" style="fill:rgb(11,167,248);"/>
                    <path d="M7332.23,2255.45C7332.46,2255.44 7332.68,2255.43 7332.91,2255.42C7335.07,2255.33 7337.25,2255.29 7339.43,2255.31C7341.06,2255.32 7342.7,2255.38 7344.32,2255.46C7348.23,2255.67 7352.09,2255.99 7355.73,2256.3C7358.22,2256.51 7360.61,2256.75 7362.85,2256.99C7358.21,2257.76 7353.22,2258.01 7347.77,2257.7C7342.38,2257.39 7337.21,2256.63 7332.23,2255.45ZM7310.22,2247.06C7311.03,2246.98 7311.87,2246.89 7312.72,2246.8C7315.33,2246.54 7318.11,2246.29 7321.01,2246.08C7324.56,2245.81 7328.28,2245.56 7332.06,2245.42C7334.5,2245.33 7336.96,2245.29 7339.43,2245.31C7341.28,2245.32 7343.12,2245.38 7344.95,2245.46C7349.38,2245.67 7353.73,2245.99 7357.85,2246.3C7361.8,2246.6 7365.53,2246.95 7368.9,2247.27C7375.73,2247.93 7381.07,2248.51 7383.69,2248.8C7383.44,2248.96 7383.19,2249.12 7382.94,2249.28C7380.12,2249.6 7375.13,2250.13 7368.9,2250.73C7365.53,2251.05 7361.8,2251.4 7357.85,2251.7C7353.73,2252.01 7349.38,2252.33 7344.95,2252.54C7343.12,2252.62 7341.28,2252.68 7339.43,2252.69C7336.96,2252.71 7334.5,2252.67 7332.06,2252.58C7328.28,2252.44 7324.56,2252.19 7321.01,2251.93L7320.76,2251.91C7317.16,2250.52 7313.65,2248.9 7310.22,2247.06ZM7296.18,2238.06C7299.74,2237.69 7304.21,2237.26 7309.26,2236.8C7312.2,2236.54 7315.35,2236.29 7318.62,2236.08C7322.63,2235.81 7326.83,2235.56 7331.11,2235.42C7333.86,2235.33 7336.64,2235.29 7339.43,2235.31C7341.51,2235.32 7343.6,2235.38 7345.67,2235.46C7350.67,2235.67 7355.59,2235.99 7360.24,2236.3C7364.7,2236.6 7368.91,2236.95 7372.72,2237.27C7383.83,2238.21 7391.45,2239 7391.45,2239C7391.45,2239 7383.83,2239.79 7372.72,2240.73C7368.91,2241.05 7364.7,2241.4 7360.24,2241.7C7355.59,2242.01 7350.67,2242.33 7345.67,2242.54C7343.6,2242.62 7341.51,2242.68 7339.43,2242.69C7336.64,2242.71 7333.86,2242.67 7331.11,2242.58C7326.83,2242.44 7322.63,2242.19 7318.62,2241.93C7315.35,2241.71 7312.2,2241.46 7309.26,2241.2C7305.55,2240.86 7302.15,2240.54 7299.2,2240.25C7298.18,2239.53 7297.17,2238.8 7296.18,2238.06ZM7284.86,2228.59C7289.16,2228.18 7296.45,2227.51 7305.34,2226.8C7308.67,2226.54 7312.22,2226.29 7315.92,2226.08C7320.44,2225.81 7325.19,2225.56 7330.03,2225.42C7333.14,2225.33 7336.28,2225.29 7339.43,2225.31C7341.78,2225.32 7344.14,2225.38 7346.48,2225.46C7352.13,2225.67 7357.68,2225.99 7362.94,2226.3C7367.98,2226.6 7372.74,2226.95 7377.04,2227.27C7389.6,2228.21 7398.2,2229 7398.2,2229C7398.2,2229 7389.6,2229.79 7377.04,2230.73C7372.74,2231.05 7367.98,2231.4 7362.94,2231.7C7357.68,2232.01 7352.13,2232.33 7346.48,2232.54C7344.14,2232.62 7341.78,2232.68 7339.43,2232.69C7336.28,2232.71 7333.14,2232.67 7330.03,2232.58C7325.19,2232.44 7320.44,2232.19 7315.92,2231.93C7312.22,2231.71 7308.67,2231.46 7305.34,2231.2C7297.11,2230.55 7290.25,2229.92 7285.86,2229.51C7285.53,2229.2 7285.2,2228.9 7284.86,2228.59ZM7275.06,2218.82L7275.43,2219.21C7279.63,2219.58 7289.01,2220.36 7300.92,2221.2C7304.68,2221.46 7308.69,2221.71 7312.87,2221.93C7317.98,2222.19 7323.34,2222.44 7328.81,2222.58C7332.32,2222.67 7335.87,2222.71 7339.43,2222.69C7342.09,2222.68 7344.75,2222.62 7347.4,2222.54C7353.78,2222.33 7360.05,2222.01 7365.99,2221.7C7371.69,2221.4 7377.07,2221.05 7381.93,2220.73C7396.11,2219.79 7405.83,2219 7405.83,2219C7405.83,2219 7396.11,2218.21 7381.93,2217.27C7377.07,2216.95 7371.69,2216.6 7365.99,2216.3C7360.05,2215.99 7353.77,2215.67 7347.4,2215.46C7344.75,2215.38 7342.09,2215.32 7339.43,2215.31C7335.87,2215.29 7332.32,2215.33 7328.81,2215.42C7323.34,2215.56 7317.98,2215.81 7312.87,2216.08C7308.69,2216.29 7304.68,2216.54 7300.92,2216.8C7288.65,2217.66 7279.07,2218.47 7275.06,2218.82ZM7266.24,2208.86L7266.31,2208.94L7266.5,2209.16C7270.89,2209.5 7281.84,2210.32 7295.92,2211.2C7300.17,2211.46 7304.7,2211.71 7309.42,2211.93C7315.2,2212.19 7321.26,2212.44 7327.43,2212.58C7331.4,2212.67 7335.41,2212.71 7339.43,2212.69C7342.44,2212.68 7345.44,2212.62 7348.43,2212.54C7355.64,2212.33 7362.73,2212.01 7369.44,2211.7C7375.87,2211.4 7381.95,2211.05 7387.44,2210.73C7403.47,2209.79 7414.45,2209 7414.45,2209C7414.45,2209 7403.47,2208.21 7387.44,2207.27C7381.95,2206.95 7375.87,2206.6 7369.44,2206.3C7362.73,2205.99 7355.64,2205.67 7348.43,2205.46C7345.44,2205.38 7342.44,2205.32 7339.43,2205.31C7335.41,2205.29 7331.4,2205.33 7327.43,2205.42C7321.26,2205.56 7315.2,2205.81 7309.42,2206.08C7304.7,2206.29 7300.17,2206.54 7295.92,2206.8C7281.56,2207.69 7270.45,2208.53 7266.24,2208.86ZM7258.08,2198.76L7258.28,2199.02L7258.47,2199.26C7264.14,2199.64 7275.73,2200.4 7290.27,2201.2C7295.07,2201.46 7300.19,2201.71 7305.53,2201.93C7312.05,2202.19 7318.9,2202.44 7325.87,2202.58C7330.35,2202.67 7334.89,2202.71 7339.43,2202.69C7342.83,2202.68 7346.22,2202.62 7349.6,2202.54C7357.74,2202.33 7365.75,2202.01 7373.33,2201.7C7380.6,2201.4 7387.47,2201.05 7393.67,2200.73C7411.78,2199.79 7424.19,2199 7424.19,2199C7424.19,2199 7411.78,2198.21 7393.68,2197.27C7387.47,2196.95 7380.6,2196.6 7373.33,2196.3C7365.75,2195.99 7357.74,2195.67 7349.6,2195.46C7346.22,2195.38 7342.83,2195.32 7339.43,2195.31C7334.89,2195.29 7330.35,2195.33 7325.87,2195.42C7318.9,2195.56 7312.05,2195.81 7305.53,2196.08C7300.19,2196.29 7295.07,2196.54 7290.27,2196.8C7275.39,2197.62 7263.6,2198.39 7258.08,2198.76ZM7250.38,2188.6L7250.82,2189.19L7251,2189.44C7258.06,2189.86 7269.74,2190.51 7283.89,2191.2C7289.31,2191.46 7295.1,2191.71 7301.12,2191.93C7308.5,2192.19 7316.23,2192.44 7324.11,2192.58C7329.18,2192.67 7334.3,2192.71 7339.43,2192.69C7343.27,2192.68 7347.11,2192.62 7350.92,2192.54C7360.12,2192.33 7369.17,2192.01 7377.73,2191.7C7385.95,2191.4 7393.71,2191.05 7400.72,2190.73C7415.99,2190.03 7427.67,2189.41 7432.61,2189.14L7432.8,2188.87C7427.97,2188.61 7416.18,2187.98 7400.72,2187.27C7393.71,2186.95 7385.95,2186.6 7377.73,2186.3C7369.17,2185.99 7360.12,2185.67 7350.92,2185.46C7347.11,2185.38 7343.27,2185.32 7339.43,2185.31C7334.3,2185.29 7329.18,2185.33 7324.11,2185.42C7316.23,2185.56 7308.5,2185.81 7301.12,2186.08C7295.1,2186.29 7289.31,2186.54 7283.89,2186.8C7269.31,2187.51 7257.36,2188.18 7250.38,2188.6ZM7243,2178.38L7243.32,2178.84L7243.91,2179.67C7251.95,2180.07 7263.34,2180.62 7276.68,2181.2C7282.81,2181.46 7289.34,2181.71 7296.15,2181.93C7304.48,2182.19 7313.22,2182.44 7322.12,2182.58C7327.84,2182.67 7333.64,2182.71 7339.43,2182.69C7343.77,2182.68 7348.1,2182.62 7352.41,2182.54C7362.8,2182.33 7373.03,2182.01 7382.7,2181.7C7391.99,2181.4 7400.75,2181.05 7408.67,2180.73C7421.71,2180.2 7432.44,2179.72 7439.3,2179.39L7439.84,2178.63C7433,2178.31 7422.05,2177.82 7408.67,2177.27C7400.75,2176.95 7391.99,2176.6 7382.7,2176.3C7373.03,2175.99 7362.8,2175.67 7352.41,2175.46C7348.1,2175.38 7343.77,2175.32 7339.43,2175.31C7333.64,2175.29 7327.84,2175.33 7322.12,2175.42C7313.22,2175.56 7304.48,2175.81 7296.15,2176.07C7289.34,2176.29 7282.81,2176.54 7276.68,2176.8C7262.83,2177.4 7251.08,2177.97 7243,2178.38ZM7235.83,2168.14L7236.31,2168.84L7237.05,2169.91C7245.53,2170.28 7256.31,2170.73 7268.53,2171.2C7275.45,2171.46 7282.84,2171.71 7290.53,2171.93C7299.94,2172.19 7309.82,2172.44 7319.87,2172.58C7326.34,2172.67 7332.89,2172.71 7339.43,2172.69C7344.33,2172.68 7349.23,2172.62 7354.1,2172.54C7365.84,2172.33 7377.39,2172.01 7388.32,2171.7C7398.81,2171.4 7408.71,2171.05 7417.66,2170.73C7428.97,2170.32 7438.74,2169.94 7446.18,2169.64L7446.55,2169.13L7447.08,2168.39C7439.54,2168.09 7429.43,2167.7 7417.66,2167.27C7408.71,2166.95 7398.81,2166.6 7388.32,2166.3C7377.39,2165.99 7365.84,2165.67 7354.1,2165.46C7349.23,2165.38 7344.33,2165.32 7339.43,2165.31C7332.89,2165.29 7326.34,2165.33 7319.87,2165.42C7309.82,2165.56 7299.94,2165.81 7290.53,2166.07C7282.84,2166.29 7275.45,2166.54 7268.53,2166.8C7255.71,2167.29 7244.48,2167.76 7235.83,2168.14ZM7228.79,2157.9L7229.18,2158.47L7230.34,2160.16C7238.69,2160.48 7248.51,2160.83 7259.33,2161.2C7267.15,2161.46 7275.49,2161.71 7284.19,2161.93C7294.82,2162.19 7305.97,2162.44 7317.33,2162.58C7324.64,2162.67 7332.03,2162.71 7339.43,2162.69C7344.97,2162.68 7350.5,2162.62 7356,2162.54C7369.27,2162.33 7382.32,2162.01 7394.67,2161.7C7406.52,2161.4 7417.71,2161.05 7427.81,2160.73C7437.43,2160.42 7446.06,2160.13 7453.32,2159.88L7453.99,2158.99L7454.61,2158.17C7447.08,2157.9 7438,2157.6 7427.81,2157.27C7417.71,2156.95 7406.52,2156.6 7394.67,2156.3C7382.32,2155.99 7369.27,2155.67 7356,2155.46C7350.5,2155.38 7344.97,2155.32 7339.43,2155.31C7332.03,2155.29 7324.64,2155.33 7317.33,2155.42C7305.97,2155.56 7294.82,2155.81 7284.19,2156.07C7275.49,2156.29 7267.15,2156.54 7259.33,2156.8C7247.83,2157.19 7237.47,2157.57 7228.79,2157.9ZM7221.81,2147.65C7229.93,2147.39 7239.06,2147.1 7248.93,2146.8C7257.77,2146.54 7267.19,2146.29 7277.02,2146.07C7289.03,2145.81 7301.63,2145.56 7314.47,2145.42C7322.72,2145.33 7331.08,2145.29 7339.43,2145.31C7345.68,2145.32 7351.94,2145.38 7358.15,2145.46C7373.14,2145.67 7387.89,2145.99 7401.84,2146.3C7415.22,2146.6 7427.87,2146.95 7439.29,2147.27C7447.76,2147.51 7455.56,2147.74 7462.47,2147.95L7462.05,2148.48C7461.8,2148.8 7461.54,2149.12 7461.29,2149.45L7460.78,2150.1C7454.29,2150.3 7447.08,2150.51 7439.29,2150.73C7427.87,2151.05 7415.22,2151.4 7401.84,2151.7C7387.89,2152.01 7373.14,2152.33 7358.15,2152.54C7351.94,2152.62 7345.68,2152.68 7339.43,2152.69C7331.08,2152.71 7322.72,2152.67 7314.47,2152.58C7301.63,2152.44 7289.03,2152.19 7277.02,2151.93C7267.19,2151.71 7257.77,2151.46 7248.93,2151.2C7239.82,2150.92 7231.33,2150.66 7223.69,2150.41L7221.89,2147.77L7221.81,2147.65ZM7214.84,2137.41C7221.79,2137.22 7229.28,2137.01 7237.19,2136.8C7247.17,2136.54 7257.82,2136.29 7268.92,2136.07C7282.49,2135.81 7296.72,2135.56 7311.22,2135.42C7320.55,2135.33 7329.99,2135.29 7339.43,2135.31C7346.5,2135.32 7353.56,2135.38 7360.58,2135.46C7377.51,2135.67 7394.18,2135.99 7409.94,2136.3C7425.06,2136.6 7439.35,2136.95 7452.25,2137.27C7458.78,2137.43 7464.96,2137.59 7470.71,2137.74L7469.99,2138.61C7469.72,2138.95 7469.44,2139.28 7469.17,2139.61L7468.6,2140.31C7463.46,2140.45 7457.99,2140.59 7452.25,2140.73C7439.35,2141.05 7425.06,2141.4 7409.94,2141.7C7394.18,2142.01 7377.51,2142.33 7360.58,2142.54C7353.56,2142.62 7346.5,2142.68 7339.43,2142.69C7329.99,2142.71 7320.55,2142.67 7311.22,2142.58C7296.72,2142.44 7282.49,2142.19 7268.92,2141.93C7257.82,2141.71 7247.17,2141.46 7237.19,2141.2C7230.11,2141.01 7223.37,2140.82 7217.05,2140.65L7216.92,2140.46L7214.84,2137.41ZM7207.83,2127.19C7212.99,2127.06 7218.36,2126.93 7223.91,2126.8C7235.19,2126.54 7247.22,2126.29 7259.76,2126.07C7275.1,2125.81 7291.18,2125.56 7307.56,2125.42C7318.1,2125.33 7328.77,2125.29 7339.43,2125.31C7347.41,2125.32 7355.4,2125.38 7363.33,2125.46C7382.46,2125.67 7401.28,2125.99 7419.09,2126.3C7436.18,2126.6 7452.32,2126.95 7466.89,2127.27C7471.2,2127.37 7475.37,2127.46 7479.38,2127.55L7478.57,2128.48C7478.28,2128.82 7477.98,2129.17 7477.68,2129.51L7476.82,2130.51C7473.6,2130.58 7470.29,2130.66 7466.89,2130.73C7452.32,2131.05 7436.18,2131.4 7419.09,2131.7C7401.28,2132.01 7382.46,2132.33 7363.33,2132.54C7355.4,2132.62 7347.41,2132.68 7339.43,2132.69C7328.77,2132.71 7318.1,2132.67 7307.56,2132.58C7291.18,2132.44 7275.1,2132.19 7259.76,2131.93C7247.22,2131.71 7235.19,2131.46 7223.91,2131.2C7219.26,2131.09 7214.74,2130.98 7210.36,2130.87C7209.52,2129.65 7208.68,2128.42 7207.83,2127.19ZM7200.73,2116.98L7208.92,2116.8C7221.66,2116.54 7235.26,2116.29 7249.42,2116.07C7266.74,2115.81 7284.92,2115.56 7303.43,2115.42C7315.34,2115.33 7327.38,2115.29 7339.43,2115.31C7348.45,2115.32 7357.47,2115.38 7366.43,2115.46C7388.04,2115.67 7409.31,2115.99 7429.44,2116.3C7448.74,2116.6 7466.97,2116.95 7483.44,2117.27L7488.52,2117.37C7487.5,2118.48 7486.49,2119.59 7485.49,2120.69L7483.44,2120.73C7466.97,2121.05 7448.74,2121.4 7429.44,2121.7C7409.31,2122.01 7388.04,2122.33 7366.43,2122.54C7357.47,2122.62 7348.45,2122.68 7339.43,2122.69C7327.38,2122.71 7315.34,2122.67 7303.43,2122.58C7284.92,2122.44 7266.74,2122.19 7249.42,2121.93C7235.26,2121.71 7221.66,2121.46 7208.92,2121.2L7203.6,2121.08L7202.7,2119.79C7202.25,2119.15 7201.81,2118.51 7201.36,2117.87L7200.73,2116.98ZM7193.51,2106.78C7207.46,2106.52 7222.3,2106.28 7237.74,2106.07C7257.31,2105.81 7277.84,2105.56 7298.75,2105.42C7312.21,2105.33 7325.82,2105.29 7339.43,2105.31C7349.62,2105.32 7359.81,2105.38 7369.94,2105.46C7394.35,2105.67 7418.38,2105.99 7441.12,2106.3C7461.38,2106.58 7480.61,2106.9 7498.16,2107.2C7496.97,2108.42 7495.79,2109.64 7494.63,2110.86C7478.04,2111.14 7460.03,2111.44 7441.12,2111.7C7418.38,2112.01 7394.35,2112.33 7369.94,2112.54C7359.81,2112.62 7349.62,2112.68 7339.43,2112.69C7325.82,2112.71 7312.21,2112.67 7298.75,2112.58C7277.84,2112.44 7257.31,2112.19 7237.74,2111.93C7223.48,2111.74 7209.73,2111.51 7196.72,2111.28L7195.91,2110.15C7195.45,2109.5 7194.99,2108.85 7194.53,2108.21L7193.51,2106.78ZM7186.12,2096.6C7198.44,2096.41 7211.3,2096.23 7224.54,2096.07C7246.65,2095.81 7269.85,2095.56 7293.47,2095.42C7308.67,2095.33 7324.05,2095.29 7339.43,2095.31C7350.94,2095.32 7362.46,2095.38 7373.9,2095.46C7401.48,2095.67 7428.63,2095.99 7454.32,2096.3C7473.26,2096.53 7491.41,2096.79 7508.33,2097.04C7506.97,2098.37 7505.62,2099.7 7504.28,2101.02C7488.52,2101.25 7471.76,2101.49 7454.32,2101.7C7428.63,2102.01 7401.48,2102.33 7373.9,2102.54C7362.46,2102.62 7350.94,2102.68 7339.43,2102.69C7324.05,2102.71 7308.67,2102.67 7293.47,2102.58C7269.85,2102.44 7246.65,2102.19 7224.54,2101.93C7212.56,2101.78 7200.9,2101.62 7189.67,2101.46C7188.5,2099.84 7187.32,2098.22 7186.12,2096.6Z" style="fill:rgb(254,212,106);"/>
                </g>
            </g>
        </g>
    </g>
    <defs>
        <linearGradient id="_Linear2" x1="0" y1="0" x2="1" y2="0" gradientUnits="userSpaceOnUse" gradientTransform="matrix(12.8115,1098.39,-1098.39,12.8115,3141.5,1513.88)"><stop offset="0" style="stop-color:rgb(63,233,237);stop-opacity:1"/><stop offset="1" style="stop-color:rgb(211,82,105);stop-opacity:1"/></linearGradient>
        <linearGradient id="_Linear3" x1="0" y1="0" x2="1" y2="0" gradientUnits="userSpaceOnUse" gradientTransform="matrix(-3.54472e-11,-426.02,426.02,-3.54472e-11,7347.77,2580.29)"><stop offset="0" style="stop-color:rgb(8,46,69);stop-opacity:1"/><stop offset="1" style="stop-color:rgb(32,128,178);stop-opacity:1"/></linearGradient>
    </defs>
</svg>
