<?xml version="1.0" encoding="UTF-8" standalone="no"?>
<!DOCTYPE svg PUBLIC "-//W3C//DTD SVG 1.1//EN" "http://www.w3.org/Graphics/SVG/1.1/DTD/svg11.dtd">
<svg width="100%" height="100%" viewBox="0 0 1920 1081" version="1.1" xmlns="http://www.w3.org/2000/svg" xmlns:xlink="http://www.w3.org/1999/xlink" xml:space="preserve" xmlns:serif="http://www.serif.com/" style="fill-rule:evenodd;clip-rule:evenodd;stroke-linecap:round;stroke-linejoin:round;stroke-miterlimit:1.5;">
    <g transform="matrix(1,0,0,1,-8678,-1449)">
        <g id="Artboard10" transform="matrix(2.6087,0,0,1.46739,7815.53,-906.885)">
            <rect x="330.612" y="1606" width="736" height="736" style="fill:none;"/>
            <clipPath id="_clip1">
                <rect x="330.612" y="1606" width="736" height="736"/>
            </clipPath>
            <g clip-path="url(#_clip1)">
                <g transform="matrix(0.383333,0,0,-0.681481,-494.177,3329.97)">
                    <rect x="2151.63" y="1449.75" width="1920" height="1080" style="fill:url(#_Linear2);"/>
                </g>
                <g transform="matrix(0.191607,0,0,0.340634,1308.98,1722.38)">
                    <path d="M-5200,2000L-5171,1878L-5167,1851L-5154,1819L-5143,1768L-5126,1684L-5088,1574L-5067,1500L-5050,1452L-5029,1399L-5010,1338L-4987,1293L-4957,1232L-4915,1154L-4858,1038L-4886,1066.93L-4926,1095L-4926,1066.93L-4957,1114L-4966,1066.93L-5006,1144L-5014,1066.93C-5014,1066.93 -5018.84,1042.28 -5004,1000C-4989.16,957.716 -4968,913.605 -4968,913.605C-4968,913.605 -4947.07,881.406 -4928,871C-4908.93,860.594 -4993,896 -4993,896C-4993,896 -4938.19,814.42 -4881,810C-4823.81,805.58 -4804,812 -4804,812L-4745,846C-4745,846 -4785.57,688.175 -4759,623C-4732.43,557.825 -4720,550 -4720,550C-4720,550 -4720.75,595.695 -4707,620C-4693.25,644.305 -4691,658 -4691,658C-4691,658 -4716.59,541.133 -4686,489C-4686,489 -4666.94,588.713 -4646.31,604C-4625.68,619.287 -4675.28,523.331 -4589,449C-4589,449 -4593.83,471.99 -4578,499C-4578,499 -4539.38,420.471 -4442,430C-4442,430 -4520.53,469.718 -4515,483C-4515,483 -4441.59,432.421 -4385,463L-4427,491C-4427,491 -4302.08,458.607 -4297,645C-4297,645 -4331.01,551.829 -4377,545C-4377,545 -4354.78,560.431 -4347,602C-4339.22,643.569 -4376.31,548.532 -4426,542C-4426,542 -4375.66,571.997 -4383,658C-4383,658 -4397.52,573.839 -4449,564L-4413,659C-4413,659 -4457.42,574.43 -4495,569C-4495,569 -4467.53,610.06 -4478,674C-4478,674 -4486.62,626.538 -4527,619L-4571,713.209C-4571,713.209 -4518.71,665.895 -4429,683C-4429,683 -4468.94,697.63 -4496,734C-4496,734 -4404.6,694.965 -4346,713.209C-4346,713.209 -4406.4,727.144 -4435,752C-4435,752 -4340.11,714.116 -4297,739C-4297,739 -4323.2,739.047 -4368,769.843C-4368,769.843 -4323.24,739.745 -4221,801C-4221,801 -4240.33,796.066 -4279,807C-4279,807 -4100.75,789.188 -4073,1017C-4073,1017 -4100.97,936.967 -4125,913.605L-4124,1028C-4124,1028 -4136.11,930.889 -4175,883C-4175,883 -4164.39,965.176 -4168,1012C-4168,1012 -4179.48,927.323 -4235,892C-4235,892 -4216.77,967.933 -4245,1015C-4245,1015 -4256.13,928.351 -4309,899C-4309,899 -4279.31,961.014 -4286,1011C-4286,1011 -4300.19,945.67 -4364,913.605C-4364,913.605 -4342.13,960.312 -4352,1022C-4352,1022 -4365.27,960.463 -4436,941C-4436,941 -4405.65,996.852 -4407,1030C-4407,1030 -4419.87,994.145 -4446,1000C-4446,1000 -4374.4,1089.62 -4353,1158C-4353,1158 -4283.36,1290.88 -4261,1377C-4261,1377 -4302.43,1270.06 -4319,1252C-4319,1252 -4307.75,1320.03 -4320,1367C-4320,1367 -4322.29,1283.53 -4329,1264C-4329,1264 -4336.13,1339.43 -4345,1362C-4345,1362 -4339.7,1277.47 -4355,1232C-4355,1232 -4356.51,1298.72 -4366,1333C-4366,1333 -4363.54,1236.01 -4392,1197C-4392,1197 -4390.24,1229.18 -4418,1291C-4418,1291 -4413.43,1226.25 -4435,1189C-4435,1189 -4440.95,1243.5 -4452,1276C-4452,1276 -4474.35,1124.89 -4466,1114C-4466,1114 -4493.27,1203.28 -4476,1244C-4476,1244 -4513.38,1170.29 -4512,1114C-4512,1114 -4539.65,1166.04 -4530,1227C-4530,1227 -4565.11,1133.43 -4553,1088C-4553,1088 -4587.44,1122.2 -4582,1164C-4582,1164 -4599.77,1068.29 -4586,1043C-4586,1043 -4605.93,1080.51 -4608,1101C-4610.07,1121.49 -4601.06,1157.01 -4598,1196C-4598,1196 -4611.93,1161.16 -4631,1137C-4650.07,1112.84 -4594.04,1206.31 -4588,1252C-4588,1252 -4596.7,1218.5 -4614,1200C-4614,1200 -4614.59,1272.91 -4616,1259C-4617.41,1245.09 -4625.41,1199.28 -4636,1173C-4646.59,1146.72 -4671,1066.93 -4671,1066.93C-4671,1066.93 -4724.76,1116.04 -4730,1173C-4735.24,1229.96 -4745.95,1089.92 -4726,1054C-4726,1054 -4751.41,1054.14 -4759,1088C-4766.59,1121.86 -4780.17,1068.3 -4775,1054C-4769.83,1039.7 -4789,1038 -4789,1038C-4789,1038 -4801.74,1057.41 -4822,1066.93L-4847,1114L-4877,1148L-4893,1173L-4917,1220L-4931,1256L-4941,1268L-4942,1286L-4955,1302L-4969,1335L-4983,1385L-4995,1430L-5011,1467L-5022,1500L-5031,1516L-5041,1539L-5051,1582L-5068,1642L-5076,1665L-5087,1706L-5101,1753L-5110,1786L-5116,1835L-5124,1877C-5124,1877 -5144.79,1896.2 -5140,1909C-5135.21,1921.8 -5138.63,1939.88 -5138,1953C-5137.37,1966.12 -5150,1988 -5150,1988L-5150,2016L-5200,2000Z" style="fill:rgb(10,40,50);stroke:black;stroke-width:2px;"/>
                </g>
                <g transform="matrix(-0.0893244,0,0,0.158799,759.572,2115.26)">
                    <path d="M1260.9,708.37C1283.33,715.9 1335.35,733.47 1335.37,733.12C1342.42,735.6 1349.92,736.23 1357.35,735.6C1352.53,732.75 1347.02,731.26 1341.92,728.94C1339.66,727.77 1353.26,732.33 1362.54,735.01C1356.77,729.92 1349.76,726.47 1343.25,722.43C1344.6,722.69 1320.4,707.9 1320.89,709.22C1287.16,689.79 1253.15,670.85 1219.1,651.99C1211.73,647.8 1204.06,644.1 1197.14,639.16C1192.54,636.45 1188.37,632.87 1185.83,628.1C1174.78,612.29 1157.75,599.05 1137.96,597.56C1126.99,596.55 1116.43,600.27 1106.49,604.47C1085.2,613.25 1064.37,623.21 1042.54,630.64C1016.05,639.73 987.42,645.75 959.49,640.35C938.47,635.88 918.26,628.23 898.65,619.53C872.04,607.75 846.84,593.13 821.39,579.08C826.97,569.3 838.59,565.58 849.07,564.02C861,562.34 873.04,561.62 885.05,560.73C888.73,560.36 892.86,560.33 895.83,557.76C900.09,554.32 904.8,551.33 910.02,549.57C912.84,548.61 915.76,546.81 916.71,543.81C917.22,540.57 916.94,536.89 919.29,534.27C920.91,533.82 922.32,535.37 923.98,535.27C927.6,534.89 930.77,532.81 933.58,530.62C941.73,523.99 948.03,515.44 954.15,506.97C970.72,483.92 982.53,457.82 991.87,431.11C999.7,408.29 1006.06,384.85 1009.27,360.89C1009.96,353.34 1011.18,345.56 1009.29,338.09C1008.9,336.32 1007.1,333.85 1005.05,334.93C994.84,338.6 989.59,348.98 985.41,358.25C985.06,359.88 983.59,360.38 982.1,360.32C980.36,363.21 979.34,366.44 978.72,369.74C976.04,370.71 975.45,373.6 974.54,375.97C963.31,407.54 954.19,439.82 943.31,471.5C943.11,471.57 942.71,471.71 942.51,471.78C943.84,469 944.21,465.9 945.14,462.98C953.68,433.3 961.97,403.49 967.56,373.1C969.54,361.06 971.8,348.78 970.26,336.56C969.74,334.39 969.26,330.3 966.07,331.08C962.64,332.25 960.42,335.41 958.18,338.08C949.93,349.16 944,361.75 938.5,374.35C925.31,405.49 916.33,438.3 910.38,471.54C910.11,472 909.56,472.91 909.29,473.37C908.51,467.63 908.83,461.83 908.78,456.06C909.22,430.39 910.26,404.75 910.92,379.09C911.25,369.74 911.57,360.37 911.24,351.02C911.32,348.4 908.01,348.03 906.1,347.69C899.36,348.07 894.29,353.28 890.22,358.15C880.24,370.89 874.16,386.31 870.54,401.97C866.5,420.36 866.14,440.46 874.34,457.8C875.73,461.15 878.2,463.9 879.62,467.23C876.51,465.55 874.58,462.45 872.19,459.95C868.27,455.81 866.74,450.19 864.8,445C857.46,423.87 851.29,402.37 844.8,380.97C844.23,378.98 841.79,378.63 840.04,378.6C832.83,378.94 826.46,383.89 823.22,390.16C819.12,398.099 819.37,407.47 821.15,416C824.32,430.39 831.28,443.61 839.03,456.02C841.52,459.9 844.64,464.16 843.78,469.06C842.71,471.32 839.84,470.9 837.9,470.21C831.88,468.03 826.59,464.3 821.41,460.64C807.81,451.49 797.39,438.66 784.91,428.19C780.24,424.55 775.21,420.41 769.03,420.13C765.14,419.89 761.94,422.75 760.22,425.98C758.37,428.45 757.84,431.72 760.26,434.04C770.62,446.14 784.72,454.17 796.59,464.63C797.23,465.3 797.74,466.06 798.14,466.92C796.45,466.65 794.79,466.26 793.19,465.71C775.43,459.48 756.38,457.66 737.66,458.44C736.71,458.02 735.9,457.42 735.23,456.64C737.56,447.18 741.42,438.22 744.5,429.01C747.01,421.02 741.01,414.26 736.82,408.18C726.64,392.25 718.94,374.82 712.56,357.06C709.78,348.31 706.25,339.29 707.41,329.95C707.76,326.05 705.1,322.86 702.75,320.08C704.14,314.22 706.25,307.35 702.26,302.04C700.15,283.12 700.71,263.99 700.04,244.98C699.54,217.3 699.51,189.62 698.96,161.94C698.61,136.3 698.4,110.65 697.09,85.04C696.55,80.71 697.02,76.13 695.17,72.07C692.3,73.56 690.53,76.32 688.99,79.04C684.84,86.46 681.93,94.49 679.43,102.59C669.55,135.68 667.26,170.61 668.88,204.97C670.71,230.86 672.9,256.73 675.46,282.56C672.12,282.14 671.85,278.4 670.83,275.87C665.3,257.33 662.09,238.19 658.86,219.14C650.51,167.08 645.43,114.55 641.51,61.98C640.94,56.94 641.53,51.53 639.05,46.92C635.61,46.48 633.84,49.7 632.27,52.16C627.72,59.95 624.67,68.51 621.88,77.06C616.66,93.85 612.74,111.3 613.23,128.98C613.79,156.58 617.65,184.09 623.95,210.96C628.01,227.03 632.61,243.38 641.73,257.41C643.18,260.35 644.44,264.37 642.39,267.31C640.52,269.71 637.37,268.31 635.56,266.65C628.03,260.28 622.7,251.79 617.66,243.43C600.16,212.84 590.32,178.52 583.88,144.06C579.34,120.56 575.82,96.87 573.12,73.09C572.4,69.47 572.78,65.19 570.07,62.32C564.33,65.84 560.75,71.83 557.58,77.59C553.65,85.4 550.27,94.14 551.47,103.03C551.76,105.89 554.31,108.89 552.65,111.65C550.03,113.7 546.76,111.44 544.05,110.72C544.65,117.23 545.52,123.72 546.64,130.17C552.51,163.13 563.66,195.61 582.56,223.45C593.13,239.3 607.84,251.99 617.7,268.35C618.36,269.98 620.2,272.03 618.83,273.74C614.62,273.91 610.8,271.12 607.5,268.77C586.22,247.16 566.47,224.05 548.19,199.86C528.52,173.38 510.13,145.42 498.57,114.35C494.13,103.1 492.85,90.76 487.16,79.99C485.82,77.77 484.05,74.6 480.98,75.09C478.72,76.13 477.7,78.62 476.9,80.82C474.52,87.98 474.26,95.59 473.94,103.06C473.94,120.31 476.36,137.67 482.06,153.99C485.9,164.82 491.3,175.34 499.41,183.61C512.14,196.58 524.85,209.59 537.26,222.87C548.92,235.55 560.99,248.02 570.8,262.25C571.89,264.49 574.68,267.26 573.02,269.77C569.88,269.99 567.23,267.86 564.57,266.5C548.92,257.12 534.25,246.2 519.56,235.41C500.39,221.13 481.53,206.43 463.06,191.26C448.32,179.01 433.52,166.74 420.15,152.98C415.73,148.62 412.41,142.27 405.94,140.74C403.15,141.33 402.57,144.58 402.73,146.98C403.16,154.84 406.35,162.23 409.88,169.15C417.93,184.33 429.84,197.4 444.07,207C464.08,219.89 484.64,231.96 504.01,245.83C507.66,248.81 512.13,251.41 514.21,255.82C513.05,257.01 511.94,258.26 511.57,259.93C484.88,247.33 457.98,235.17 431.05,223.12C409.9,213.79 388.79,204.35 367.16,196.17C363.45,195 359.84,193.02 355.86,193.13C357.46,195.8 360.07,197.59 362.46,199.47C380.01,212.18 398.56,223.76 418.43,232.47C426.22,235.25 435.12,237.82 439.98,245.06C441.5,246.81 440.15,249.26 438.07,249.58C432.18,250.46 426.56,247.88 421.09,246.1C408.35,241.67 395.9,236.42 383.03,232.36C379.73,231.54 376.3,230.05 372.86,230.86C371.69,232.38 373.44,233.87 374.24,235.06C381.4,243.13 390.5,249.25 397.55,257.44C398.32,258.57 399.94,260.28 398.54,261.57C394.75,264.78 389.01,263.92 385.14,267.05C383.55,268.26 384.04,270.5 385,271.94C387.47,276.3 392.22,278.42 396.49,280.58C398.13,281.44 400.51,282.77 399.75,285.03C396.76,290.84 387.46,289.11 384.91,295.1C386.61,300.06 393.39,303.12 392.25,308.97C389.72,313.41 385.99,318.06 387.59,323.56C388.37,327.2 392.29,328.02 395.32,328.99C393.69,332.31 389.66,334.17 389.12,338.02C390.02,341.46 394.91,342.95 394.68,346.9C393.63,350.5 389.12,351.56 387.91,355.11C386.8,358.24 388.63,361.36 389.72,364.22C386.09,366.1 380.93,364.5 378.24,368.23C376.38,371.28 372.53,373.95 373.54,377.94C373.86,381.47 376.21,385.51 373.89,388.81C371.36,392.38 365.78,390.8 363.34,394.39C361.28,397.3 359.81,401.62 362.29,404.72C364.39,407.3 362.39,410.59 360.98,412.98C359.07,416.59 354.4,418.19 353.73,422.52C352.86,426.96 352.48,432.01 354.75,436.12C357.56,439.32 362.27,440.83 363.9,445.06C364.06,447.74 360.47,447.8 359.58,449.92C362.79,450.77 366.16,451.17 369.2,452.6C365.93,453.34 362.22,454.44 360.77,457.82C359.29,461.47 358.58,466.38 361.4,469.59C363.4,471.94 366.72,471.83 369.52,472.14C370.04,478.85 361.17,480.68 360.03,486.89C358.8,492 364.26,494.63 366.87,498.06C366.54,500.73 364.26,502.76 363.35,505.29C361.53,509.45 360.15,514.93 363.19,518.85C365.02,521.47 369.53,520.24 370.66,523.47C370.73,527.83 367.01,530.95 364.54,534.15C368.61,540.46 379.33,538.83 381.27,546.93C379.9,548.13 378.18,549.13 377.48,550.91C379.03,551.03 380.58,551.15 382.14,551.27C380.02,555.56 375.98,558.45 373.35,562.4C372.37,563.93 370.7,565.98 372.18,567.76C375.25,570.05 379.56,569.94 382.43,572.62C385.37,575.25 387.96,579.34 386.56,583.41C386.08,584.6 386.27,585.97 387.48,586.66C390.27,589.02 393.97,589.91 396.81,592.19C398.88,594.98 394.06,598.6 396.98,601.1C399.45,602.78 402.39,601 405.03,600.85C406.36,601.25 408.21,602.24 407.72,603.97C407.02,605.41 405.74,606.44 404.67,607.62C400.96,611.4 398.47,616.13 395.77,620.63C354.51,623.87 313.25,627.23 272.13,631.96C265.32,633.08 257.34,632.76 252.27,638.23C250.8,639.45 251.19,641.33 251.4,643C245.92,643.73 240.27,643.96 235.07,645.97C233.44,646.61 231.27,647.96 231.9,650.05C233.43,654.54 237.74,657.05 241.75,659.02C236.68,662.81 229.53,663.28 225.01,668.01C224.15,668.77 223.56,670.5 224.85,671.2C227.77,672.74 231.26,672.01 234.44,672.16C231.28,675.54 225.73,675.81 222.64,679.41C221.92,680.1 222.01,682.2 220.64,681.74C220.56,681.31 220.4,680.45 220.32,680.01C194.24,681.5 168.19,683.75 142.08,684.64C139.53,680.32 134.59,678.49 129.9,677.69C118.77,675.4 108.44,669.9 97.09,668.69C94.51,668.63 89.45,668.5 90.74,672.45C78.5,671.59 66.22,673.04 54.1,674.68C51.15,675.39 47.8,675.26 45.21,676.99C46.59,677.79 48.55,678.03 49.21,679.7C41.14,679.54 32.99,679.43 25,680.8C21.37,681.61 17.71,682.27 14,682.56C17.15,686.09 22.09,687.07 25.64,690.02C24.75,695.55 16.8,690.65 13.93,694.05C27.31,699.97 42.68,696.85 56.44,701.47C74.45,708.06 93.02,713.41 112.05,716.01C119.21,717.27 126.3,715.26 133.24,713.73C155.03,708.64 176.78,702.98 199.04,700.33C240.79,696.01 282.19,688.63 324.04,685.34C336.81,683.69 349.32,689.74 362.06,687.18C367.15,689.22 372.7,689.42 378.08,690.14C396.74,691.98 415.47,693.13 434.13,695.06C442.8,696.02 451.53,696.87 460.03,698.92C477.94,703.69 495.96,708.06 514.12,711.79C531.59,715.29 549.2,718.55 567.05,719.26C574.75,719.62 582.3,717.55 589.99,717.6C599.07,717.37 608.02,719.22 616.92,720.8C632.2,723.57 647.58,725.85 663.07,727.04C682.06,728.56 701.19,727.2 719.9,723.73C728.85,722.51 738.24,720.22 747.09,723.12C755.62,725.25 764.39,726.17 773.09,727.31C785.86,729 798.67,726.62 811.18,724.19C839.11,718.42 866.46,710.25 893.97,702.79C914.77,697.29 935.54,691.17 956.96,688.6C999.86,687.59 1042.45,681.68 1084.96,676.16C1089.97,675.67 1094.93,674.32 1100,674.56C1119.69,675.83 1139.39,677.07 1159.09,678.21C1163.02,678.01 1166.58,679.85 1170.25,680.97C1185.23,685.85 1200.19,690.87 1215.45,694.8C1231.05,697.64 1245.85,703.53 1260.9,708.37ZM753.36,586.81C745.98,570.51 741.78,552.98 738.84,535.39C734.98,511.49 733.49,487.25 733.55,463.05C733.63,461.21 733.38,459.27 734.2,457.56C734.95,458.17 735.7,458.81 736.46,459.46C735.42,467.62 736.59,475.85 736.47,484.04C738.1,518.66 741.98,553.94 755.7,586.1C755.11,586.28 753.94,586.63 753.36,586.81ZM818.06,575.4C805.82,568.19 793.22,561.58 780.26,555.75C770.54,551.62 760.43,547.38 749.75,547.23C749.73,546.68 749.71,545.6 749.7,545.05C755.63,544.27 761.54,546.12 767.17,547.84C785.49,554.16 802.59,563.51 819.39,573.07C819.06,573.65 818.39,574.82 818.06,575.4ZM1196.56,666.25C1194.7,665.69 1195.71,664.14 1197.14,664.9C1242.96,684.77 1242.14,686.13 1196.56,666.25L1196.56,666.25Z" style="fill-rule:nonzero;"/>
                </g>
            </g>
        </g>
    </g>
    <defs>
        <linearGradient id="_Linear2" x1="0" y1="0" x2="1" y2="0" gradientUnits="userSpaceOnUse" gradientTransform="matrix(12.8115,1098.39,-1098.39,12.8115,3141.5,1513.88)"><stop offset="0" style="stop-color:rgb(63,233,237);stop-opacity:1"/><stop offset="1" style="stop-color:rgb(211,82,105);stop-opacity:1"/></linearGradient>
    </defs>
</svg>
