<?xml version="1.0" encoding="UTF-8" standalone="no"?>
<!DOCTYPE svg PUBLIC "-//W3C//DTD SVG 1.1//EN" "http://www.w3.org/Graphics/SVG/1.1/DTD/svg11.dtd">
<svg width="100%" height="100%" viewBox="0 0 1920 1080" version="1.1" xmlns="http://www.w3.org/2000/svg" xmlns:xlink="http://www.w3.org/1999/xlink" xml:space="preserve" xmlns:serif="http://www.serif.com/" style="fill-rule:evenodd;clip-rule:evenodd;stroke-linejoin:round;stroke-miterlimit:2;">
    <g transform="matrix(1,0,0,1,-8569.27,-51.2776)">
        <g id="Artboard5" transform="matrix(1.22303,0,0,0.687955,-3815.23,270.388)">
            <rect x="10126.1" y="-318.495" width="1569.87" height="1569.87" style="fill:none;"/>
            <clipPath id="_clip1">
                <rect x="10126.1" y="-318.495" width="1569.87" height="1569.87"/>
            </clipPath>
            <g clip-path="url(#_clip1)">
                <g transform="matrix(0.81764,0,0,1.45358,3119.48,-393.031)">
                    <rect x="8569.27" y="37.229" width="1920" height="1094.05" style="fill:url(#_Linear2);"/>
                </g>
                <g id="path846" transform="matrix(2.57429,0,0,2.69981,10046.6,391.904)">
                    <path d="M0,211.355C0,164.592 0.03,161.938 0.56,161.747C1.588,161.377 7.163,157.086 10.24,154.298C17.628,147.603 20.087,146.302 37.44,139.907C39.464,139.161 41.624,138.355 42.24,138.116C42.856,137.876 45.952,136.801 49.12,135.728C52.288,134.654 57.04,132.998 59.68,132.048C64.999,130.134 83.32,124.15 85.28,123.686C85.456,123.645 86.608,123.305 87.84,122.931C89.072,122.557 91.736,121.773 93.76,121.188C95.784,120.603 98.448,119.809 99.68,119.423C100.912,119.037 105.808,117.719 110.56,116.494C115.312,115.269 119.416,114.203 119.68,114.124C120.912,113.758 129.175,111.807 129.6,111.782C129.864,111.767 130.821,111.666 131.727,111.558C132.761,111.435 133.452,111.49 133.586,111.705C133.906,112.224 135.364,112.106 136.827,111.441C138.417,110.719 142.307,107.769 145.76,104.665C150.512,100.395 156.234,96.155 159.572,94.431C160.988,93.699 161.56,93.589 163.572,93.658L165.92,93.739L168.751,91.854C170.309,90.817 171.821,89.95 172.111,89.927C172.402,89.904 173.862,89.91 175.355,89.941C179.921,90.035 181.719,89.367 187.2,85.542C193.046,81.461 197.145,78.89 200.8,77.01C202.76,76.002 203.936,75.17 204.48,74.405C204.92,73.786 205.606,72.908 206.005,72.453C206.403,71.998 207.339,70.901 208.085,70.016C210.647,66.972 212.774,64.806 214.591,63.389C215.593,62.608 218.205,60.418 220.396,58.522C225.078,54.471 230.2,50.764 231.987,50.134C233.173,49.715 233.349,49.737 234.717,50.464L236.179,51.241L238.136,49.905C239.212,49.171 240.969,47.769 242.04,46.789C243.112,45.81 244.135,44.896 244.314,44.759C244.493,44.622 245.144,44.065 245.76,43.523C248.04,41.517 251.208,39.063 252.386,38.393C253.054,38.013 253.816,37.451 254.08,37.144C254.344,36.837 255.198,36.375 255.978,36.117L257.396,35.648L259.764,37.049C261.067,37.819 262.265,38.449 262.426,38.449C262.588,38.449 262.72,38.583 262.72,38.747C262.72,38.912 263.009,39.137 263.361,39.249C263.96,39.439 265.671,41.025 268.053,43.596C268.61,44.197 269.258,44.834 269.493,45.011C271.466,46.497 274.497,49.256 278.544,53.249C281.175,55.845 283.395,57.969 283.477,57.969C283.559,57.969 284.646,57.338 285.893,56.567C287.14,55.796 288.498,55.062 288.911,54.936C289.324,54.809 290.861,53.639 292.327,52.336C295.321,49.671 301.703,45.003 303.269,44.331C304.176,43.942 304.629,43.967 307.074,44.537C308.6,44.893 310.12,45.098 310.451,44.993C310.782,44.888 311.695,44.311 312.48,43.712C314.084,42.488 315.901,41.646 316.919,41.655C317.972,41.664 323.642,45.325 325.957,47.491L328.033,49.433L329.536,47.994C336.26,41.558 349.321,31.198 357.106,26.126C359.419,24.619 362.913,22.094 364.87,20.515C366.826,18.936 372.012,15.167 376.394,12.138C380.776,9.11 385.18,5.973 386.181,5.168C388.803,3.057 392.272,0.676 393.415,0.202C394.341,-0.182 394.555,-0.117 396.96,1.269C398.503,2.157 400.41,3.644 401.76,5.008C402.992,6.253 404.712,7.843 405.583,8.541C406.454,9.238 408.915,11.537 411.053,13.649C413.191,15.761 415.959,18.308 417.205,19.31C418.845,20.629 419.429,21.291 419.322,21.71C419.211,22.143 419.56,22.49 420.707,23.088C421.55,23.527 424.197,25.197 426.59,26.798C434.487,32.083 438.641,34.569 453.51,42.904C457.409,45.089 458.381,45.509 459.148,45.34C459.868,45.182 460.494,45.39 461.957,46.272C462.993,46.896 464.004,47.408 464.205,47.408C464.406,47.408 465.45,48.057 466.526,48.849C468.697,50.447 468.756,50.462 470.546,49.839C471.757,49.417 471.888,49.441 473.548,50.378C475.14,51.276 475.367,51.323 476.282,50.946C476.831,50.72 477.685,50.494 478.179,50.443C479.095,50.348 480.938,49.242 482.796,47.672C483.366,47.19 484.413,46.639 485.123,46.448C486.372,46.112 486.514,46.159 489.367,47.846C490.991,48.807 493.976,51.043 496,52.817C498.793,55.264 499.898,56.042 500.584,56.045C502.169,56.052 506.682,58.924 510.067,62.08C510.798,62.762 511.785,63.517 512.259,63.756C512.732,63.996 513.464,64.448 513.883,64.76C514.993,65.587 515.724,65.469 517.483,64.178C519.954,62.364 520.986,62.381 524.061,64.289C525.471,65.163 527.475,66.508 528.513,67.277C529.551,68.047 531.22,69.226 532.223,69.897C533.225,70.569 534.634,71.822 535.353,72.68C537.244,74.939 539.362,76.268 540.678,76.021C541.542,75.859 542.181,76.1 544.491,77.459C546.016,78.357 548.15,79.861 549.232,80.801C550.315,81.742 552.352,83.271 553.76,84.2C555.168,85.129 556.97,86.591 557.764,87.449C559.148,88.944 560.062,89.365 560.475,88.698C560.581,88.526 561.223,88.237 561.903,88.054C563.077,87.737 563.277,87.804 565.969,89.403C567.916,90.561 569.778,92.059 571.932,94.203C574.823,97.082 576.667,98.607 581.899,102.449C584.267,104.187 585.92,105.747 585.92,106.244C585.92,106.445 586.126,106.609 586.379,106.609C586.631,106.609 586.927,106.892 587.037,107.238C587.166,107.646 587.646,107.944 588.402,108.086C589.928,108.372 595.385,111.68 596.892,113.232C599.571,115.99 600.29,116.705 600.695,117.009C602.667,118.492 605.297,120.884 609.141,124.689C611.63,127.153 614.905,130.177 616.419,131.409C617.933,132.641 619.178,133.819 619.186,134.026C619.194,134.234 620.028,134.57 621.04,134.773C625.826,135.735 627.286,136.167 629.478,137.271C633.846,139.472 635.882,141.023 638.96,144.497L640,145.671L640,256.761L621.36,256.566C611.108,256.459 595.16,256.262 585.92,256.13C576.68,255.997 520.304,255.889 460.64,255.889C351.169,255.889 320.499,256.068 298.72,256.835C294.229,256.993 285.89,257.146 263.04,257.488C257.848,257.566 248.128,257.727 241.44,257.846C227.929,258.087 163.836,258.068 147.36,257.819C124.528,257.474 82.652,257.634 67.04,258.126C64.224,258.215 59.328,258.36 56.16,258.447C52.992,258.535 48.24,258.682 45.6,258.775C42.96,258.868 38.64,259.015 36,259.101C25.66,259.439 16.515,259.836 14.24,260.044C13.36,260.125 10.12,260.285 7.04,260.4C3.96,260.515 1.116,260.643 0.72,260.685L0,260.762L0,211.355Z" style="fill:rgb(25,133,161);fill-rule:nonzero;"/>
                    <clipPath id="_clip3">
                        <path d="M0,211.355C0,164.592 0.03,161.938 0.56,161.747C1.588,161.377 7.163,157.086 10.24,154.298C17.628,147.603 20.087,146.302 37.44,139.907C39.464,139.161 41.624,138.355 42.24,138.116C42.856,137.876 45.952,136.801 49.12,135.728C52.288,134.654 57.04,132.998 59.68,132.048C64.999,130.134 83.32,124.15 85.28,123.686C85.456,123.645 86.608,123.305 87.84,122.931C89.072,122.557 91.736,121.773 93.76,121.188C95.784,120.603 98.448,119.809 99.68,119.423C100.912,119.037 105.808,117.719 110.56,116.494C115.312,115.269 119.416,114.203 119.68,114.124C120.912,113.758 129.175,111.807 129.6,111.782C129.864,111.767 130.821,111.666 131.727,111.558C132.761,111.435 133.452,111.49 133.586,111.705C133.906,112.224 135.364,112.106 136.827,111.441C138.417,110.719 142.307,107.769 145.76,104.665C150.512,100.395 156.234,96.155 159.572,94.431C160.988,93.699 161.56,93.589 163.572,93.658L165.92,93.739L168.751,91.854C170.309,90.817 171.821,89.95 172.111,89.927C172.402,89.904 173.862,89.91 175.355,89.941C179.921,90.035 181.719,89.367 187.2,85.542C193.046,81.461 197.145,78.89 200.8,77.01C202.76,76.002 203.936,75.17 204.48,74.405C204.92,73.786 205.606,72.908 206.005,72.453C206.403,71.998 207.339,70.901 208.085,70.016C210.647,66.972 212.774,64.806 214.591,63.389C215.593,62.608 218.205,60.418 220.396,58.522C225.078,54.471 230.2,50.764 231.987,50.134C233.173,49.715 233.349,49.737 234.717,50.464L236.179,51.241L238.136,49.905C239.212,49.171 240.969,47.769 242.04,46.789C243.112,45.81 244.135,44.896 244.314,44.759C244.493,44.622 245.144,44.065 245.76,43.523C248.04,41.517 251.208,39.063 252.386,38.393C253.054,38.013 253.816,37.451 254.08,37.144C254.344,36.837 255.198,36.375 255.978,36.117L257.396,35.648L259.764,37.049C261.067,37.819 262.265,38.449 262.426,38.449C262.588,38.449 262.72,38.583 262.72,38.747C262.72,38.912 263.009,39.137 263.361,39.249C263.96,39.439 265.671,41.025 268.053,43.596C268.61,44.197 269.258,44.834 269.493,45.011C271.466,46.497 274.497,49.256 278.544,53.249C281.175,55.845 283.395,57.969 283.477,57.969C283.559,57.969 284.646,57.338 285.893,56.567C287.14,55.796 288.498,55.062 288.911,54.936C289.324,54.809 290.861,53.639 292.327,52.336C295.321,49.671 301.703,45.003 303.269,44.331C304.176,43.942 304.629,43.967 307.074,44.537C308.6,44.893 310.12,45.098 310.451,44.993C310.782,44.888 311.695,44.311 312.48,43.712C314.084,42.488 315.901,41.646 316.919,41.655C317.972,41.664 323.642,45.325 325.957,47.491L328.033,49.433L329.536,47.994C336.26,41.558 349.321,31.198 357.106,26.126C359.419,24.619 362.913,22.094 364.87,20.515C366.826,18.936 372.012,15.167 376.394,12.138C380.776,9.11 385.18,5.973 386.181,5.168C388.803,3.057 392.272,0.676 393.415,0.202C394.341,-0.182 394.555,-0.117 396.96,1.269C398.503,2.157 400.41,3.644 401.76,5.008C402.992,6.253 404.712,7.843 405.583,8.541C406.454,9.238 408.915,11.537 411.053,13.649C413.191,15.761 415.959,18.308 417.205,19.31C418.845,20.629 419.429,21.291 419.322,21.71C419.211,22.143 419.56,22.49 420.707,23.088C421.55,23.527 424.197,25.197 426.59,26.798C434.487,32.083 438.641,34.569 453.51,42.904C457.409,45.089 458.381,45.509 459.148,45.34C459.868,45.182 460.494,45.39 461.957,46.272C462.993,46.896 464.004,47.408 464.205,47.408C464.406,47.408 465.45,48.057 466.526,48.849C468.697,50.447 468.756,50.462 470.546,49.839C471.757,49.417 471.888,49.441 473.548,50.378C475.14,51.276 475.367,51.323 476.282,50.946C476.831,50.72 477.685,50.494 478.179,50.443C479.095,50.348 480.938,49.242 482.796,47.672C483.366,47.19 484.413,46.639 485.123,46.448C486.372,46.112 486.514,46.159 489.367,47.846C490.991,48.807 493.976,51.043 496,52.817C498.793,55.264 499.898,56.042 500.584,56.045C502.169,56.052 506.682,58.924 510.067,62.08C510.798,62.762 511.785,63.517 512.259,63.756C512.732,63.996 513.464,64.448 513.883,64.76C514.993,65.587 515.724,65.469 517.483,64.178C519.954,62.364 520.986,62.381 524.061,64.289C525.471,65.163 527.475,66.508 528.513,67.277C529.551,68.047 531.22,69.226 532.223,69.897C533.225,70.569 534.634,71.822 535.353,72.68C537.244,74.939 539.362,76.268 540.678,76.021C541.542,75.859 542.181,76.1 544.491,77.459C546.016,78.357 548.15,79.861 549.232,80.801C550.315,81.742 552.352,83.271 553.76,84.2C555.168,85.129 556.97,86.591 557.764,87.449C559.148,88.944 560.062,89.365 560.475,88.698C560.581,88.526 561.223,88.237 561.903,88.054C563.077,87.737 563.277,87.804 565.969,89.403C567.916,90.561 569.778,92.059 571.932,94.203C574.823,97.082 576.667,98.607 581.899,102.449C584.267,104.187 585.92,105.747 585.92,106.244C585.92,106.445 586.126,106.609 586.379,106.609C586.631,106.609 586.927,106.892 587.037,107.238C587.166,107.646 587.646,107.944 588.402,108.086C589.928,108.372 595.385,111.68 596.892,113.232C599.571,115.99 600.29,116.705 600.695,117.009C602.667,118.492 605.297,120.884 609.141,124.689C611.63,127.153 614.905,130.177 616.419,131.409C617.933,132.641 619.178,133.819 619.186,134.026C619.194,134.234 620.028,134.57 621.04,134.773C625.826,135.735 627.286,136.167 629.478,137.271C633.846,139.472 635.882,141.023 638.96,144.497L640,145.671L640,256.761L621.36,256.566C611.108,256.459 595.16,256.262 585.92,256.13C576.68,255.997 520.304,255.889 460.64,255.889C351.169,255.889 320.499,256.068 298.72,256.835C294.229,256.993 285.89,257.146 263.04,257.488C257.848,257.566 248.128,257.727 241.44,257.846C227.929,258.087 163.836,258.068 147.36,257.819C124.528,257.474 82.652,257.634 67.04,258.126C64.224,258.215 59.328,258.36 56.16,258.447C52.992,258.535 48.24,258.682 45.6,258.775C42.96,258.868 38.64,259.015 36,259.101C25.66,259.439 16.515,259.836 14.24,260.044C13.36,260.125 10.12,260.285 7.04,260.4C3.96,260.515 1.116,260.643 0.72,260.685L0,260.762L0,211.355Z" clip-rule="nonzero"/>
                    </clipPath>
                    <g clip-path="url(#_clip3)">
                        <g transform="matrix(0.317617,0,0,0.538402,-2690.86,-290.737)">
                            <path d="M9279.85,600.001C9286.52,595.856 9286.26,627.459 9278.08,633.591C9255.3,650.681 9226.98,647.565 9205.6,668.95C9194.79,679.758 9203.06,694.274 9182.61,709.612C9173.82,716.208 9140.27,730.654 9136.65,737.899C9133.81,743.573 9138.68,753.028 9136.65,759.114C9131.58,774.303 9125.99,789.277 9118.97,803.312C9112.28,816.678 9121.24,878.317 9113.66,893.476C9108.01,904.776 9056.9,929.957 9044.72,934.139C9033.97,937.827 9019.74,934.214 9009.36,937.674C8964.52,952.62 8920.19,950.413 8873.23,957.122C8850.41,960.381 8834.88,973.448 8813.12,980.105C8801.52,983.652 8799.39,981.694 8786.6,987.176C8779.74,990.114 8753.08,989.559 8745.94,987.176C8742.72,986.104 8733.92,972.464 8730.02,969.497C8715.53,958.446 8688.45,947.063 8669.92,944.746C8616.78,938.104 8543.16,979.105 8498.43,964.193C8488.63,960.928 8473.65,941.172 8468.37,932.371C8460.1,918.587 8466.6,883.711 8466.6,868.725C8466.6,829.081 8462.8,785.385 8473.67,746.738C8478.75,728.702 8485.05,711.854 8489.59,693.701C8491.66,685.393 8512.05,630.055 8516.1,630.055" style="fill:rgb(45,186,222);"/>
                        </g>
                        <g transform="matrix(0.317617,0,0,0.538402,-2690.86,-290.737)">
                            <path d="M9731.98,520.237C9717.45,534.766 9718.57,616.743 9716.07,619.241C9707.54,627.772 9702.77,642.688 9689.55,649.295C9684.62,651.761 9673.42,649.735 9670.1,656.367C9663.99,668.596 9676.24,684.755 9670.1,697.029C9665.47,706.296 9658.8,717.523 9652.43,727.084C9649.76,731.089 9653.5,741.066 9650.66,744.763C9644.92,752.233 9638.14,760.961 9632.98,771.282C9625.2,786.832 9636.25,859.941 9631.21,864.982C9629.13,867.066 9625.17,865.914 9622.37,864.982C9622.02,864.866 9598.84,830.084 9595.85,824.32C9593.56,819.902 9596.42,813.088 9594.08,808.409C9593.82,807.882 9594.61,806.904 9594.08,806.641C9584.22,801.707 9579.66,795.748 9574.64,790.729C9573.2,789.293 9572.18,791.126 9571.1,788.962C9567.67,782.093 9576.49,758.614 9571.1,753.603C9567.58,750.33 9559.37,747.822 9556.96,742.995C9549.3,727.685 9558.44,708.98 9548.12,693.494C9541.13,683.012 9532.22,682.901 9525.14,675.814C9513.83,664.507 9510.93,617.809 9514.53,599.793C9518.61,579.399 9549.73,565.264 9564.03,553.827C9573.01,546.64 9581.25,531.168 9590.55,525.541C9604.49,517.104 9668.87,476.039 9687.78,476.039" style="fill:rgb(45,186,222);"/>
                        </g>
                        <g transform="matrix(0.317617,0,0,0.538402,-2690.86,-290.737)">
                            <path d="M10023.5,579.483C10015,613.316 10001.7,658.591 10011.1,696.166C10013.6,706.16 10021.3,720.548 10027,726.221C10027.7,726.879 10038.7,768.998 10041.1,773.955C10041.4,774.415 10044.3,776.109 10042.9,777.491C10040.6,779.773 10037.7,772.472 10037.6,772.187C10029.6,756.104 10029.8,736.583 10019.9,722.685C10011.7,711.1 10001.7,704.722 9988.1,697.934C9987.58,697.671 9986.6,698.461 9986.34,697.934C9983.26,691.778 9983.35,680.144 9981.03,673.183C9975.88,657.724 9944.51,614.242 9959.82,598.93" style="fill:rgb(45,186,222);"/>
                        </g>
                        <g transform="matrix(0.317617,0,0,0.538402,-2690.86,-290.737)">
                            <path d="M9446.99,596.513C9440.5,596.513 9425.56,630.527 9422.24,637.175C9421.85,637.939 9420.47,730.809 9420.47,739.715C9420.47,751.489 9425.77,766.07 9425.77,776.842C9425.77,777.25 9425.98,782.077 9425.77,782.145C9397.98,791.409 9405.32,747.927 9397.49,736.179C9392.43,728.603 9394.33,719.25 9390.41,711.428C9377.32,685.233 9376.69,658.807 9355.06,637.175C9354.42,636.536 9355.06,591.692 9355.06,587.674" style="fill:rgb(45,186,222);"/>
                        </g>
                        <g transform="matrix(0.317617,0,0,0.538402,-2690.86,-290.737)">
                            <path d="M10104.9,629.793C10116.3,622.766 10114.1,695.945 10119.1,705.814C10122.6,712.781 10127.4,729.77 10133.2,734.101C10135.6,735.915 10144.6,739.127 10145.6,741.172C10149.6,749.209 10152.7,791.786 10152.7,803.05L10152.7,806.585C10150.5,808.711 10149.4,805.227 10149.1,804.818C10138.3,788.51 10134.4,774.12 10129.7,755.316C10120.9,720.148 10112.1,677.674 10089,654.544C10084.7,650.236 10091.5,628.025 10083.7,628.025" style="fill:rgb(45,186,222);"/>
                        </g>
                    </g>
                </g>
                <g transform="matrix(0.964134,0,-0.519753,1.17362,2153.92,36.8492)">
                    <rect x="8569.27" y="693.257" width="1920" height="441.62" style="fill:rgb(126,183,127);"/>
                    <path d="M10489.3,858.706L10489.3,693.257L10370,693.257L10329.7,754.396L10177.5,754.396L10217.9,693.257L10040.6,693.257L10000.3,754.396L9848.11,754.396L9888.48,693.257L9711.23,693.257L9670.86,754.396L9518.71,754.396L9559.08,693.257L9381.83,693.257L9341.46,754.396L9189.32,754.396L9229.68,693.257L9052.43,693.257L9012.06,754.396L8859.92,754.396L8900.28,693.257L8723.03,693.257L8682.66,754.396L8569.27,754.396L8569.27,858.706L8613.79,858.706L8569.27,926.125L8569.27,1134.88L8608.7,1134.88L8671.63,1039.57L8823.77,1039.57L8760.84,1134.88L8938.09,1134.88L9001.03,1039.57L9153.17,1039.57L9090.24,1134.88L9267.49,1134.88L9330.43,1039.57L9482.57,1039.57L9419.64,1134.88L9596.89,1134.88L9659.82,1039.57L9811.97,1039.57L9749.04,1134.88L9926.29,1134.88L9989.22,1039.57L10141.4,1039.57L10078.4,1134.88L10255.7,1134.88L10318.6,1039.57L10489.3,1039.57L10489.3,935.257L10387.5,935.257L10438,858.706L10489.3,858.706ZM8791.04,858.706L8740.5,935.257L8892.64,935.257L8943.19,858.706L8791.04,858.706ZM9120.44,858.706L9069.9,935.257L9222.04,935.257L9272.59,858.706L9120.44,858.706ZM9449.84,858.706L9399.3,935.257L9551.44,935.257L9601.99,858.706L9449.84,858.706ZM9779.24,858.706L9728.7,935.257L9880.84,935.257L9931.38,858.706L9779.24,858.706ZM10108.6,858.706L10058.1,935.257L10210.2,935.257L10260.8,858.706L10108.6,858.706Z" style="fill:rgb(164,204,165);"/>
                </g>
            </g>
        </g>
    </g>
    <defs>
        <linearGradient id="_Linear2" x1="0" y1="0" x2="1" y2="0" gradientUnits="userSpaceOnUse" gradientTransform="matrix(4.00485e-11,947.9,-540.13,2.28203e-11,9371.38,134.04)"><stop offset="0" style="stop-color:rgb(212,224,249);stop-opacity:1"/><stop offset="1" style="stop-color:rgb(144,175,239);stop-opacity:1"/></linearGradient>
    </defs>
</svg>
