<?xml version="1.0" encoding="UTF-8" standalone="no"?>
<!DOCTYPE svg PUBLIC "-//W3C//DTD SVG 1.1//EN" "http://www.w3.org/Graphics/SVG/1.1/DTD/svg11.dtd">
<svg width="100%" height="100%" viewBox="0 0 1921 1081" version="1.1" xmlns="http://www.w3.org/2000/svg" xmlns:xlink="http://www.w3.org/1999/xlink" xml:space="preserve" xmlns:serif="http://www.serif.com/" style="fill-rule:evenodd;clip-rule:evenodd;stroke-linejoin:round;stroke-miterlimit:2;">
    <g transform="matrix(1,0,0,1,-2151,-1449)">
        <g id="Artboard7" transform="matrix(2.6087,0,0,1.46739,1289.16,-906.885)">
            <rect x="330.612" y="1606" width="736" height="736" style="fill:none;"/>
            <clipPath id="_clip1">
                <rect x="330.612" y="1606" width="736" height="736"/>
            </clipPath>
            <g clip-path="url(#_clip1)">
                <g transform="matrix(0.383333,0,0,0.681481,-494.177,618.026)">
                    <rect x="2151.63" y="1449.75" width="1920" height="1080" style="fill:url(#_Linear2);"/>
                </g>
                <g transform="matrix(0.878216,0,0,0.878216,70.9135,309.312)">
                    <g transform="matrix(0.383333,0,0,0.681481,-494.177,618.026)">
                        <rect x="2151.63" y="2065.93" width="205.716" height="640.794" style="fill:rgb(4,42,43);"/>
                    </g>
                    <g transform="matrix(0.383333,0,0,0.681481,-494.177,618.026)">
                        <path d="M2368,1931.95L2266.91,1888.95L2266.91,1950.64L2368,1950.64L2368,1931.95Z" style="fill:rgb(4,42,43);"/>
                    </g>
                    <g transform="matrix(0.27343,0,0,0.681481,-213.515,539.462)">
                        <rect x="2151.63" y="2065.93" width="205.716" height="640.794" style="fill:rgb(4,42,43);"/>
                    </g>
                    <g transform="matrix(0.27343,0,0,0.681481,-167.473,715.766)">
                        <rect x="2151.63" y="2065.93" width="205.716" height="640.794" style="fill:rgb(4,42,43);"/>
                    </g>
                    <g transform="matrix(0.27343,0,0,0.681481,-119.261,592.068)">
                        <rect x="2151.63" y="2065.93" width="205.716" height="640.794" style="fill:rgb(4,42,43);"/>
                    </g>
                    <g transform="matrix(0.27343,0,0,0.681481,177.32,618.026)">
                        <rect x="2151.63" y="2065.93" width="205.716" height="640.794" style="fill:rgb(4,42,43);"/>
                    </g>
                    <g transform="matrix(0.27343,0,0,0.681481,226.095,537.806)">
                        <rect x="2151.63" y="2065.93" width="205.716" height="640.794" style="fill:rgb(4,42,43);"/>
                    </g>
                    <g transform="matrix(0.27343,0,0,0.681481,276.047,497.421)">
                        <rect x="2151.63" y="2065.93" width="205.716" height="640.794" style="fill:rgb(4,42,43);"/>
                    </g>
                    <g transform="matrix(0.635964,0,0,0.681481,-800.572,592.068)">
                        <rect x="2151.63" y="2065.93" width="205.716" height="640.794" style="fill:rgb(4,42,43);"/>
                    </g>
                    <g transform="matrix(0.635964,0,0,0.681481,-384.85,565.765)">
                        <rect x="2151.63" y="2065.93" width="205.716" height="640.794" style="fill:rgb(4,42,43);"/>
                    </g>
                    <g transform="matrix(0.524627,0,0,0.379203,-549.565,1163.95)">
                        <rect x="2151.63" y="2065.93" width="205.716" height="640.794" style="fill:rgb(4,42,43);"/>
                    </g>
                    <g transform="matrix(0.524627,0,0,0.379203,-133.842,1137.64)">
                        <rect x="2151.63" y="2065.93" width="205.716" height="640.794" style="fill:rgb(4,42,43);"/>
                    </g>
                    <g transform="matrix(0.383333,0,0,0.681481,-494.177,618.026)">
                        <path d="M2387.02,2556.49L2348.98,2556.49L2348.98,2594.53L2387.02,2594.53L2387.02,2556.49ZM2387.02,2493.47L2348.98,2493.47L2348.98,2531.5L2387.02,2531.5L2387.02,2493.47ZM2387.02,2430.44L2348.98,2430.44L2348.98,2468.48L2387.02,2468.48L2387.02,2430.44ZM2387.02,2367.42L2348.98,2367.42L2348.98,2405.45L2387.02,2405.45L2387.02,2367.42ZM2387.02,2304.39L2348.98,2304.39L2348.98,2342.43L2387.02,2342.43L2387.02,2304.39ZM2387.02,2241.37L2348.98,2241.37L2348.98,2279.4L2387.02,2279.4L2387.02,2241.37ZM2387.02,2178.34L2348.98,2178.34L2348.98,2216.38L2387.02,2216.38L2387.02,2178.34ZM2387.02,2115.32L2348.98,2115.32L2348.98,2153.35L2387.02,2153.35L2387.02,2115.32ZM2387.02,2052.29L2348.98,2052.29L2348.98,2090.33L2387.02,2090.33L2387.02,2052.29ZM2387.02,1989.27L2348.98,1989.27L2348.98,2027.3L2387.02,2027.3L2387.02,1989.27Z" style="fill:white;"/>
                    </g>
                    <g transform="matrix(0.383333,0,0,0.681481,-9.12884,630.113)">
                        <path d="M2387.02,2556.49L2348.98,2556.49L2348.98,2594.53L2387.02,2594.53L2387.02,2556.49ZM2387.02,2493.47L2348.98,2493.47L2348.98,2531.5L2387.02,2531.5L2387.02,2493.47ZM2387.02,2430.44L2348.98,2430.44L2348.98,2468.48L2387.02,2468.48L2387.02,2430.44ZM2387.02,2367.42L2348.98,2367.42L2348.98,2405.45L2387.02,2405.45L2387.02,2367.42ZM2387.02,2304.39L2348.98,2304.39L2348.98,2342.43L2387.02,2342.43L2387.02,2304.39ZM2387.02,2241.37L2348.98,2241.37L2348.98,2279.4L2387.02,2279.4L2387.02,2241.37ZM2387.02,2178.34L2348.98,2178.34L2348.98,2216.38L2387.02,2216.38L2387.02,2178.34ZM2387.02,2115.32L2348.98,2115.32L2348.98,2153.35L2387.02,2153.35L2387.02,2115.32ZM2387.02,2052.29L2348.98,2052.29L2348.98,2090.33L2387.02,2090.33L2387.02,2052.29ZM2387.02,1989.27L2348.98,1989.27L2348.98,2027.3L2387.02,2027.3L2387.02,1989.27Z" style="fill:white;"/>
                    </g>
                    <g transform="matrix(0.383333,0,0,0.681481,94.2411,642.22)">
                        <path d="M2387.02,2556.49L2348.98,2556.49L2348.98,2594.53L2387.02,2594.53L2387.02,2556.49ZM2387.02,2493.47L2348.98,2493.47L2348.98,2531.5L2387.02,2531.5L2387.02,2493.47ZM2387.02,2430.44L2348.98,2430.44L2348.98,2468.48L2387.02,2468.48L2387.02,2430.44ZM2387.02,2367.42L2348.98,2367.42L2348.98,2405.45L2387.02,2405.45L2387.02,2367.42ZM2387.02,2304.39L2348.98,2304.39L2348.98,2342.43L2387.02,2342.43L2387.02,2304.39ZM2387.02,2241.37L2348.98,2241.37L2348.98,2279.4L2387.02,2279.4L2387.02,2241.37ZM2387.02,2178.34L2348.98,2178.34L2348.98,2216.38L2387.02,2216.38L2387.02,2178.34ZM2387.02,2115.32L2348.98,2115.32L2348.98,2153.35L2387.02,2153.35L2387.02,2115.32ZM2387.02,2052.29L2348.98,2052.29L2348.98,2090.33L2387.02,2090.33L2387.02,2052.29ZM2387.02,1989.27L2348.98,1989.27L2348.98,2027.3L2387.02,2027.3L2387.02,1989.27Z" style="fill:white;"/>
                    </g>
                    <g transform="matrix(0.383333,0,0,0.681481,-57.9042,656.416)">
                        <path d="M2387.02,2556.49L2348.98,2556.49L2348.98,2594.53L2387.02,2594.53L2387.02,2556.49ZM2387.02,2493.47L2348.98,2493.47L2348.98,2531.5L2387.02,2531.5L2387.02,2493.47ZM2387.02,2430.44L2348.98,2430.44L2348.98,2468.48L2387.02,2468.48L2387.02,2430.44ZM2387.02,2367.42L2348.98,2367.42L2348.98,2405.45L2387.02,2405.45L2387.02,2367.42ZM2387.02,2304.39L2348.98,2304.39L2348.98,2342.43L2387.02,2342.43L2387.02,2304.39ZM2387.02,2241.37L2348.98,2241.37L2348.98,2279.4L2387.02,2279.4L2387.02,2241.37ZM2387.02,2178.34L2348.98,2178.34L2348.98,2216.38L2387.02,2216.38L2387.02,2178.34ZM2387.02,2115.32L2348.98,2115.32L2348.98,2153.35L2387.02,2153.35L2387.02,2115.32ZM2387.02,2052.29L2348.98,2052.29L2348.98,2090.33L2387.02,2090.33L2387.02,2052.29ZM2387.02,1989.27L2348.98,1989.27L2348.98,2027.3L2387.02,2027.3L2387.02,1989.27Z" style="fill:white;"/>
                    </g>
                    <g transform="matrix(0.383333,0,0,0.681481,-107.856,713.199)">
                        <path d="M2387.02,2556.49L2348.98,2556.49L2348.98,2594.53L2387.02,2594.53L2387.02,2556.49ZM2387.02,2493.47L2348.98,2493.47L2348.98,2531.5L2387.02,2531.5L2387.02,2493.47ZM2387.02,2430.44L2348.98,2430.44L2348.98,2468.48L2387.02,2468.48L2387.02,2430.44ZM2387.02,2367.42L2348.98,2367.42L2348.98,2405.45L2387.02,2405.45L2387.02,2367.42ZM2387.02,2304.39L2348.98,2304.39L2348.98,2342.43L2387.02,2342.43L2387.02,2304.39ZM2387.02,2241.37L2348.98,2241.37L2348.98,2279.4L2387.02,2279.4L2387.02,2241.37ZM2387.02,2178.34L2348.98,2178.34L2348.98,2216.38L2387.02,2216.38L2387.02,2178.34ZM2387.02,2115.32L2348.98,2115.32L2348.98,2153.35L2387.02,2153.35L2387.02,2115.32ZM2387.02,2052.29L2348.98,2052.29L2348.98,2090.33L2387.02,2090.33L2387.02,2052.29ZM2387.02,1989.27L2348.98,1989.27L2348.98,2027.3L2387.02,2027.3L2387.02,1989.27Z" style="fill:white;"/>
                    </g>
                    <g transform="matrix(0.383333,0,0,0.681481,-499.099,618.026)">
                        <path d="M3081.75,2630.59L3043.72,2630.59L3043.72,2668.63L3081.75,2668.63L3081.75,2630.59ZM3009.14,2630.59L2971.11,2630.59L2971.11,2668.63L3009.14,2668.63L3009.14,2630.59ZM2863.92,2630.59L2825.89,2630.59L2825.89,2668.63L2863.92,2668.63L2863.92,2630.59ZM2936.53,2630.59L2898.5,2630.59L2898.5,2668.63L2936.53,2668.63L2936.53,2630.59ZM3081.75,2567.57L3043.72,2567.57L3043.72,2605.6L3081.75,2605.6L3081.75,2567.57ZM2863.92,2567.57L2825.89,2567.57L2825.89,2605.6L2863.92,2605.6L2863.92,2567.57ZM2936.53,2567.57L2898.5,2567.57L2898.5,2605.6L2936.53,2605.6L2936.53,2567.57ZM3009.14,2567.57L2971.11,2567.57L2971.11,2605.6L3009.14,2605.6L3009.14,2567.57ZM3081.75,2504.54L3043.72,2504.54L3043.72,2542.58L3081.75,2542.58L3081.75,2504.54ZM2936.53,2504.54L2898.5,2504.54L2898.5,2542.58L2936.53,2542.58L2936.53,2504.54ZM3009.14,2504.54L2971.11,2504.54L2971.11,2542.58L3009.14,2542.58L3009.14,2504.54ZM2863.92,2504.54L2825.89,2504.54L2825.89,2542.58L2863.92,2542.58L2863.92,2504.54ZM3081.75,2441.52L3043.72,2441.52L3043.72,2479.55L3081.75,2479.55L3081.75,2441.52ZM3009.14,2441.52L2971.11,2441.52L2971.11,2479.55L3009.14,2479.55L3009.14,2441.52ZM2936.53,2441.52L2898.5,2441.52L2898.5,2479.55L2936.53,2479.55L2936.53,2441.52ZM2863.92,2441.52L2825.89,2441.52L2825.89,2479.55L2863.92,2479.55L2863.92,2441.52ZM3081.75,2378.49L3043.72,2378.49L3043.72,2416.53L3081.75,2416.53L3081.75,2378.49ZM3009.14,2378.49L2971.11,2378.49L2971.11,2416.53L3009.14,2416.53L3009.14,2378.49ZM2936.53,2378.49L2898.5,2378.49L2898.5,2416.53L2936.53,2416.53L2936.53,2378.49ZM2863.92,2378.49L2825.89,2378.49L2825.89,2416.53L2863.92,2416.53L2863.92,2378.49ZM3081.75,2315.47L3043.72,2315.47L3043.72,2353.5L3081.75,2353.5L3081.75,2315.47ZM3009.14,2315.47L2971.11,2315.47L2971.11,2353.5L3009.14,2353.5L3009.14,2315.47ZM2936.53,2315.47L2898.5,2315.47L2898.5,2353.5L2936.53,2353.5L2936.53,2315.47ZM2863.92,2315.47L2825.89,2315.47L2825.89,2353.5L2863.92,2353.5L2863.92,2315.47ZM3081.75,2252.44L3043.72,2252.44L3043.72,2290.48L3081.75,2290.48L3081.75,2252.44ZM3009.14,2252.44L2971.11,2252.44L2971.11,2290.48L3009.14,2290.48L3009.14,2252.44ZM2936.53,2252.44L2898.5,2252.44L2898.5,2290.48L2936.53,2290.48L2936.53,2252.44ZM2863.92,2252.44L2825.89,2252.44L2825.89,2290.48L2863.92,2290.48L2863.92,2252.44ZM3081.75,2189.42L3043.72,2189.42L3043.72,2227.45L3081.75,2227.45L3081.75,2189.42ZM3009.14,2189.42L2971.11,2189.42L2971.11,2227.45L3009.14,2227.45L3009.14,2189.42ZM2936.53,2189.42L2898.5,2189.42L2898.5,2227.45L2936.53,2227.45L2936.53,2189.42ZM2863.92,2189.42L2825.89,2189.42L2825.89,2227.45L2863.92,2227.45L2863.92,2189.42ZM3081.75,2126.39L3043.72,2126.39L3043.72,2164.43L3081.75,2164.43L3081.75,2126.39ZM2936.53,2126.39L2898.5,2126.39L2898.5,2164.43L2936.53,2164.43L2936.53,2126.39ZM3009.14,2126.39L2971.11,2126.39L2971.11,2164.43L3009.14,2164.43L3009.14,2126.39ZM2863.92,2126.39L2825.89,2126.39L2825.89,2164.43L2863.92,2164.43L2863.92,2126.39ZM3081.75,2063.37L3043.72,2063.37L3043.72,2101.4L3081.75,2101.4L3081.75,2063.37ZM2936.53,2063.37L2898.5,2063.37L2898.5,2101.4L2936.53,2101.4L2936.53,2063.37ZM3009.14,2063.37L2971.11,2063.37L2971.11,2101.4L3009.14,2101.4L3009.14,2063.37ZM2863.92,2063.37L2825.89,2063.37L2825.89,2101.4L2863.92,2101.4L2863.92,2063.37Z" style="fill:white;"/>
                    </g>
                </g>
                <g transform="matrix(-0.191667,0,0,0.340741,509.028,1932.04)">
                    <path d="M41.032,286.745C41.193,286.745 41.334,286.825 41.334,286.946C41.335,287.047 41.476,287.147 41.637,287.147L41.638,287.147C41.819,287.147 42.182,287.368 42.444,287.65C42.727,287.912 42.949,288.275 42.95,288.456C42.95,288.617 43.031,288.758 43.151,288.758L43.152,288.758C43.253,288.758 43.353,288.899 43.354,289.061C43.354,289.222 43.253,289.363 43.152,289.363C43.031,289.363 42.951,289.525 42.951,289.706C42.952,290.211 42.065,290.575 40.895,290.576L40.877,290.576C40.106,290.576 39.928,290.514 39.927,290.214C39.927,290.013 39.745,289.731 39.523,289.57C38.958,289.167 38.997,288.259 39.621,287.654C39.883,287.371 40.246,287.149 40.427,287.149C40.589,287.149 40.73,287.048 40.73,286.947C40.729,286.826 40.871,286.745 41.032,286.745L41.032,286.745ZM44.6,265.354C44.256,265.354 43.731,265.552 43.425,265.872C42.922,266.377 42.702,267.788 43.125,267.788L43.125,267.788C43.226,267.788 43.327,268.151 43.328,268.594C43.328,269.038 43.409,269.401 43.53,269.401L43.53,269.401C43.631,269.401 43.733,269.844 43.733,270.409C43.734,270.953 43.815,271.416 43.936,271.416L43.936,271.416C44.037,271.416 44.138,271.92 44.139,272.525C44.14,273.13 44.221,273.634 44.342,273.634L44.342,273.634C44.463,273.634 44.545,274.481 44.547,275.751C44.548,277.021 44.469,277.868 44.348,277.868C44.227,277.868 44.146,278.01 44.146,278.171C44.147,278.332 44.046,278.474 43.945,278.474C43.824,278.474 43.744,278.575 43.744,278.696C43.744,278.978 43.22,279.483 42.938,279.483C42.656,279.484 41.327,280.816 41.327,281.098C41.327,281.421 40.804,281.906 40.481,281.906C40.32,281.906 40.078,282.088 39.917,282.33C39.756,282.572 39.233,283.178 38.77,283.703C38.286,284.207 37.904,284.752 37.904,284.873C37.904,285.015 37.844,285.136 37.743,285.136C37.501,285.136 37.099,286.185 37.1,286.871C37.1,287.234 37,287.597 36.899,287.657C36.778,287.718 36.698,288.222 36.699,288.787C36.7,289.331 36.6,289.775 36.499,289.775C36.378,289.775 36.297,289.957 36.298,290.179C36.298,290.4 36.197,290.582 36.096,290.582C35.975,290.582 35.895,290.764 35.895,290.986C35.896,291.207 35.795,291.389 35.694,291.389C35.573,291.389 35.493,291.611 35.493,291.894C35.494,292.176 35.313,292.599 35.091,292.842C34.87,293.084 34.689,293.407 34.689,293.548C34.689,293.689 34.588,293.81 34.487,293.81C34.366,293.811 34.286,293.992 34.286,294.214C34.287,294.436 34.186,294.617 34.085,294.617C33.964,294.618 33.884,294.739 33.884,294.88C33.884,295.021 33.703,295.344 33.482,295.586C33.139,295.95 33.079,296.292 33.081,297.845C33.083,298.913 33.164,299.659 33.285,299.659L33.285,299.659C33.386,299.659 33.487,299.8 33.487,299.962C33.487,300.123 33.568,300.264 33.689,300.264L33.689,300.264C33.79,300.264 33.891,300.405 33.891,300.566C33.891,300.727 33.972,300.868 34.093,300.868L34.093,300.868C34.194,300.868 34.295,301.009 34.295,301.191C34.295,301.372 34.558,301.775 34.901,302.077C35.224,302.379 35.507,302.782 35.507,302.963C35.508,303.145 35.649,303.286 35.83,303.286L35.831,303.286C36.012,303.286 36.315,303.446 36.496,303.628C37.08,304.27 37.703,304.492 38.925,304.492L38.948,304.492C39.608,304.492 40.147,304.571 40.147,304.692C40.147,304.792 40.548,304.892 41.05,304.892L41.068,304.892C41.884,304.892 42.067,304.996 42.871,305.797C43.375,306.28 43.78,306.824 43.78,307.006C43.78,307.167 43.861,307.308 43.982,307.308L43.982,307.308C44.083,307.308 44.184,307.489 44.184,307.711C44.184,307.933 44.265,308.114 44.386,308.114L44.386,308.114C44.487,308.114 44.588,308.376 44.588,308.699C44.589,309.041 44.67,309.364 44.791,309.424C44.892,309.485 44.993,309.847 44.994,310.231C44.994,310.614 45.075,310.976 45.196,311.037C45.297,311.097 45.399,311.561 45.399,312.045C45.4,312.529 45.481,312.992 45.602,313.053C45.723,313.133 45.805,314.262 45.807,315.774C45.809,317.287 45.73,318.416 45.609,318.497C45.488,318.557 45.408,319.062 45.409,319.626C45.41,320.171 45.309,320.614 45.208,320.615C45.087,320.615 45.007,320.877 45.008,321.2C45.008,321.542 44.908,321.865 44.807,321.926C44.686,321.986 44.606,322.37 44.606,322.753C44.607,323.136 44.506,323.438 44.405,323.439C44.284,323.439 44.204,323.882 44.205,324.447C44.206,324.991 44.106,325.455 44.005,325.455C43.884,325.455 43.804,325.899 43.804,326.464C43.805,327.008 43.705,327.472 43.604,327.472C43.483,327.472 43.403,327.876 43.404,328.38C43.404,328.884 43.304,329.287 43.203,329.288C43.082,329.288 43.003,330.76 43.007,333.321C43.01,335.881 43.092,337.353 43.213,337.353L43.213,337.353C43.314,337.353 43.415,337.756 43.416,338.26C43.417,338.764 43.498,339.167 43.619,339.167L43.619,339.167C43.72,339.167 43.821,339.53 43.822,339.974C43.822,340.417 43.903,340.78 44.024,340.78L44.024,340.78C44.125,340.78 44.226,341.042 44.227,341.385C44.227,341.707 44.308,341.989 44.429,341.989L44.429,341.989C44.53,341.989 44.631,342.17 44.631,342.392C44.631,342.614 44.712,342.795 44.833,342.795L44.833,342.795C44.934,342.795 45.035,342.977 45.035,343.198C45.036,343.42 45.117,343.601 45.238,343.601L45.238,343.601C45.339,343.601 45.44,343.783 45.44,344.004C45.44,344.226 45.521,344.407 45.642,344.407L45.642,344.407C45.743,344.407 45.844,344.589 45.844,344.81C45.844,345.032 45.925,345.213 46.046,345.213L46.046,345.213C46.147,345.213 46.248,345.354 46.248,345.536C46.248,345.697 46.39,345.979 46.552,346.16C46.733,346.322 46.935,346.724 46.996,347.047C47.057,347.37 47.178,347.631 47.279,347.631L47.279,347.631C47.38,347.631 47.461,347.893 47.462,348.216C47.462,348.559 47.543,348.881 47.664,348.941C47.765,349.002 47.866,349.385 47.867,349.768C47.867,350.151 47.948,350.453 48.069,350.453L48.069,350.453C48.19,350.453 48.272,351.119 48.273,352.046C48.274,352.933 48.356,353.72 48.477,353.78C48.578,353.84 48.68,354.627 48.681,355.514C48.682,356.441 48.763,357.106 48.884,357.106L48.884,357.106C49.005,357.106 49.087,357.772 49.088,358.699C49.089,359.586 49.171,360.373 49.292,360.433C49.413,360.513 49.499,364.526 49.508,371.845C49.517,379.225 49.462,383.117 49.321,383.117C49.2,383.117 49.119,383.339 49.12,383.622C49.121,384.67 48.517,385.356 47.026,386.044C46.401,386.327 45.897,386.65 45.897,386.751C45.898,386.872 45.756,386.953 45.595,386.953C45.192,386.954 44.286,387.862 44.286,388.265C44.286,388.427 44.186,388.568 44.085,388.568C43.964,388.568 43.884,389.113 43.885,389.778C43.886,390.645 43.967,390.988 44.148,390.988L44.149,390.988C44.29,390.988 44.613,391.169 44.855,391.39C45.097,391.611 45.5,391.792 45.782,391.792L45.784,391.792C46.066,391.792 46.348,391.872 46.408,391.993C46.468,392.093 47.207,392.192 48.028,392.192L48.042,392.192C48.909,392.191 49.534,392.11 49.533,391.989C49.533,391.868 50.34,391.786 51.55,391.785C52.759,391.783 53.566,391.702 53.566,391.581C53.566,391.459 53.666,391.379 53.787,391.379C54.09,391.378 54.573,390.853 54.573,390.49C54.572,390.329 54.653,390.127 54.774,390.067C54.874,390.006 54.975,389.724 54.975,389.462C54.974,389.199 55.055,388.917 55.175,388.857C55.276,388.796 55.377,388.473 55.376,388.13C55.376,387.808 55.456,387.545 55.577,387.545C55.698,387.545 55.778,386.678 55.776,385.327C55.774,383.976 55.854,383.109 55.975,383.109C56.076,383.109 56.176,382.806 56.175,382.423C56.175,382.04 56.255,381.656 56.376,381.596C56.477,381.535 56.577,381.293 56.577,381.071C56.577,380.87 56.657,380.688 56.778,380.688C56.879,380.688 56.979,380.184 56.978,379.579C56.978,378.974 57.058,378.47 57.179,378.47C57.32,378.469 57.376,375.545 57.37,370.101C57.363,364.657 57.419,361.733 57.561,361.733C57.661,361.733 57.762,361.37 57.761,360.926C57.761,360.483 57.841,360.12 57.962,360.119C58.063,360.119 58.163,359.756 58.162,359.333C58.162,358.889 58.242,358.466 58.363,358.405C58.464,358.344 58.564,357.921 58.563,357.477C58.563,357.054 58.643,356.691 58.764,356.691C58.865,356.691 58.965,356.408 58.965,356.085C58.964,355.743 59.045,355.48 59.166,355.48C59.267,355.48 59.367,355.298 59.367,355.077C59.367,354.855 59.447,354.673 59.568,354.673C59.669,354.673 59.769,354.491 59.769,354.27C59.769,354.048 59.849,353.866 59.97,353.866C60.071,353.866 60.172,353.684 60.171,353.463C60.171,353.241 60.252,353.059 60.373,353.059C60.473,353.059 60.574,352.877 60.574,352.655C60.573,352.434 60.654,352.252 60.775,352.252C60.876,352.252 60.976,352.09 60.976,351.889C60.976,351.707 61.217,351.364 61.499,351.142C61.781,350.94 62.144,350.536 62.285,350.254C62.687,349.487 64.922,347.206 65.245,347.205C65.386,347.205 65.648,347.023 65.809,346.801C65.97,346.579 66.232,346.398 66.413,346.397C66.595,346.397 66.857,346.215 67.018,345.993C67.179,345.771 67.461,345.589 67.662,345.589C67.864,345.589 68.025,345.488 68.025,345.387C68.025,345.266 68.388,345.185 68.831,345.184C69.275,345.184 69.638,345.083 69.638,344.982C69.637,344.861 69.899,344.78 70.242,344.779C70.565,344.779 70.847,344.678 70.847,344.577C70.847,344.456 71.21,344.375 71.653,344.374C72.097,344.374 72.46,344.272 72.46,344.172C72.459,344.051 74.072,343.968 76.875,343.964C76.935,343.964 76.994,343.964 77.052,343.964C79.692,343.964 81.353,344.042 81.432,344.16C81.493,344.261 81.874,344.361 82.257,344.361L82.263,344.361C82.644,344.361 82.945,344.441 82.945,344.562C82.945,344.662 83.206,344.762 83.548,344.762L83.553,344.762C83.874,344.762 84.155,344.843 84.156,344.963C84.156,345.064 84.597,345.164 85.159,345.164L85.171,345.164C85.713,345.164 86.172,345.244 86.172,345.364C86.173,345.465 86.354,345.565 86.575,345.565L86.577,345.565C86.798,345.565 86.979,345.645 86.979,345.766C86.98,345.867 87.161,345.967 87.382,345.967L87.384,345.967C87.605,345.967 87.786,346.048 87.787,346.168C87.787,346.269 88.048,346.369 88.349,346.369L88.353,346.369C88.675,346.369 89.037,346.53 89.199,346.772C89.36,346.993 89.602,347.174 89.744,347.174L89.744,347.174C89.885,347.174 90.006,347.255 90.006,347.375C90.006,347.476 90.147,347.577 90.308,347.577L90.309,347.577C90.471,347.577 90.813,347.697 91.055,347.818C92.064,348.421 95.254,351.462 95.254,351.845C95.255,352.007 95.436,352.248 95.658,352.409C95.901,352.57 96.062,352.933 96.063,353.256C96.063,353.558 96.144,353.82 96.265,353.82L96.265,353.82C96.366,353.82 96.467,354.001 96.467,354.203C96.468,354.425 96.569,354.626 96.67,354.666C96.952,354.747 96.449,355.836 96.127,355.837L96.127,355.837C95.985,355.837 94.936,354.93 93.805,353.823C92.654,352.716 91.605,351.81 91.464,351.81L91.463,351.81C91.342,351.81 91.221,351.709 91.221,351.608C91.221,351.487 91.12,351.407 91,351.407L90.999,351.407C90.878,351.407 90.515,351.125 90.212,350.803C89.869,350.441 89.446,350.199 89.123,350.199L89.121,350.199C88.839,350.199 88.598,350.099 88.598,349.999C88.598,349.878 88.437,349.797 88.236,349.797L88.234,349.797C88.033,349.797 87.75,349.616 87.589,349.395C87.428,349.153 87.065,348.993 86.743,348.993L86.74,348.993C86.438,348.993 86.177,348.892 86.177,348.792C86.177,348.671 86.016,348.591 85.815,348.591L85.813,348.591C85.612,348.591 85.329,348.41 85.168,348.188C84.947,347.887 84.646,347.787 83.928,347.787L83.912,347.787C83.39,347.787 82.949,347.687 82.949,347.586C82.949,347.466 82.332,347.386 81.474,347.386L81.427,347.386C80.321,347.386 79.943,347.306 79.843,347.086C79.764,346.85 79.263,346.787 77.062,346.787C77.009,346.787 76.954,346.787 76.899,346.787C74.56,346.79 74.036,346.851 73.955,347.093C73.855,347.315 73.512,347.396 72.645,347.398C71.98,347.398 71.456,347.48 71.456,347.601C71.456,347.701 71.053,347.803 70.549,347.804C70.044,347.804 69.641,347.885 69.641,348.006C69.642,348.107 69.501,348.208 69.339,348.208C69.178,348.208 69.037,348.289 69.037,348.41C69.037,348.511 68.896,348.612 68.735,348.612C68.574,348.613 68.433,348.693 68.433,348.814C68.433,348.915 68.211,349.016 67.929,349.017C67.646,349.017 67.425,349.098 67.425,349.219C67.425,349.32 67.284,349.421 67.123,349.421C66.961,349.421 66.82,349.502 66.821,349.623C66.821,349.724 66.7,349.825 66.559,349.825C66.418,349.825 66.095,350.007 65.854,350.229C65.612,350.451 65.31,350.633 65.148,350.633C65.007,350.633 64.745,350.876 64.584,351.178C64.423,351.481 63.96,352.087 63.538,352.511C63.135,352.955 62.793,353.439 62.793,353.58C62.793,353.742 62.692,353.863 62.592,353.863C62.471,353.863 62.39,354.044 62.39,354.266C62.391,354.488 62.29,354.67 62.189,354.67C62.068,354.67 61.988,354.993 61.989,355.376C61.989,355.759 61.889,356.082 61.788,356.082C61.667,356.082 61.586,356.264 61.587,356.485C61.587,356.707 61.486,356.889 61.386,356.889C61.265,356.889 61.185,357.333 61.185,357.897C61.186,358.442 61.086,358.906 60.985,358.906C60.864,358.906 60.786,360.882 60.79,364.431C60.795,367.919 60.878,370.016 60.999,370.097C61.1,370.157 61.201,370.52 61.202,370.863C61.202,371.286 61.344,371.629 61.606,371.81C61.828,371.971 62.01,372.253 62.01,372.454C62.011,372.656 62.091,372.817 62.212,372.817L62.213,372.817C62.313,372.817 62.414,372.958 62.414,373.119C62.415,373.482 64.514,375.637 64.857,375.637L64.858,375.637C64.979,375.637 65.342,375.898 65.645,376.241C65.947,376.563 66.331,376.845 66.492,376.845L66.493,376.845C66.634,376.845 66.896,377.026 67.057,377.247C67.219,377.469 67.461,377.65 67.602,377.65L67.602,377.65C67.723,377.65 67.925,377.77 68.006,377.932C68.087,378.093 68.894,378.616 69.782,379.079C70.67,379.561 71.578,380.105 71.78,380.306C72.002,380.507 72.284,380.668 72.405,380.668L72.405,380.668C72.526,380.668 72.748,380.849 72.91,381.071C73.071,381.292 73.353,381.473 73.555,381.473L73.556,381.473C73.758,381.473 73.919,381.554 73.919,381.674C73.919,381.775 74.04,381.876 74.181,381.876L74.181,381.876C74.545,381.876 75.533,382.358 75.533,382.519C75.533,382.62 75.654,382.68 75.775,382.68L75.775,382.68C76.179,382.68 77.147,383.586 77.148,383.969C77.148,384.15 77.229,384.291 77.35,384.291L77.35,384.291C77.632,384.292 77.594,385.783 77.312,386.066C77.171,386.207 76.868,386.308 76.606,386.309C76.344,386.309 76.082,386.451 76.022,386.612C75.921,386.854 75.397,386.915 73.018,386.918C72.972,386.918 72.927,386.918 72.883,386.918C70.848,386.918 70.113,386.857 70.054,386.66C69.932,386.358 67.109,386.099 63.842,386.083C63.734,386.082 63.627,386.082 63.523,386.082C61.124,386.082 60.025,386.266 59.871,386.653C59.811,386.814 59.548,386.935 59.266,386.936C58.742,386.936 58.198,387.36 58.199,387.744C58.199,387.885 57.917,388.248 57.595,388.551C57.051,389.056 56.991,389.237 56.992,390.366C56.994,391.636 57.256,392.18 57.88,392.18L57.882,392.18C58.043,392.18 58.245,392.26 58.305,392.381C58.365,392.501 59.297,392.58 60.393,392.58L60.453,392.58C61.549,392.58 62.48,392.659 62.54,392.779C62.6,392.879 63.319,392.979 64.14,392.979L64.154,392.979C64.98,392.977 65.706,392.876 65.766,392.775C65.847,392.654 66.835,392.572 68.085,392.57C68.097,392.57 68.109,392.57 68.122,392.57C69.354,392.57 70.324,392.649 70.404,392.769C70.483,392.886 72.633,392.963 76.246,392.963C76.354,392.963 76.464,392.963 76.574,392.963C76.693,392.963 76.809,392.963 76.924,392.963C80.594,392.963 82.604,393.039 82.604,393.157C82.604,393.276 83.682,393.355 85.45,393.355C85.476,393.355 85.502,393.355 85.528,393.355C85.552,393.355 85.577,393.355 85.601,393.355C87.372,393.355 88.452,393.433 88.452,393.553C88.452,393.671 90.176,393.748 93.251,393.748C93.331,393.748 93.411,393.748 93.493,393.748C96.719,393.744 98.534,393.661 98.534,393.54C98.534,393.419 98.675,393.338 98.836,393.338C99.239,393.337 100.145,392.429 100.145,392.025C100.145,391.864 100.225,391.723 100.346,391.723C100.447,391.723 100.547,391.299 100.547,390.795C100.546,390.13 100.646,389.766 100.888,389.585C101.121,389.407 101.52,389.314 101.861,389.314C102.139,389.314 102.379,389.375 102.46,389.502C102.539,389.62 104.347,389.697 107.284,389.697C107.356,389.697 107.428,389.697 107.502,389.697C110.567,389.693 112.462,389.61 112.542,389.489C112.603,389.368 112.925,389.287 113.268,389.287C113.591,389.286 113.853,389.185 113.853,389.084C113.852,388.963 114.074,388.882 114.336,388.882C114.619,388.882 114.901,388.781 114.961,388.68C115.021,388.558 115.344,388.477 115.687,388.477C116.009,388.477 116.271,388.375 116.271,388.275C116.271,388.154 116.412,388.073 116.573,388.073C116.755,388.072 116.936,387.931 116.996,387.77C117.077,387.608 117.298,387.467 117.5,387.466C117.702,387.466 117.883,387.365 117.883,387.264C117.883,387.143 118.064,387.062 118.286,387.062C118.508,387.062 118.689,386.961 118.689,386.86C118.689,386.739 118.85,386.658 119.052,386.658C119.253,386.658 119.535,386.476 119.696,386.254C119.857,386.032 120.16,385.85 120.361,385.85C120.563,385.849 121.087,385.486 121.51,385.042C121.932,384.598 122.376,384.234 122.497,384.234C122.598,384.234 122.738,384.072 122.799,383.871C122.859,383.689 123.121,383.427 123.363,383.326C123.624,383.204 123.906,382.921 124.007,382.699C124.128,382.457 124.45,382.114 124.772,381.912C125.074,381.73 125.336,381.468 125.336,381.347C125.336,381.206 125.517,380.964 125.739,380.802C125.96,380.64 126.141,380.358 126.141,380.156C126.141,379.954 126.221,379.793 126.342,379.793C126.443,379.793 126.544,379.611 126.543,379.39C126.543,379.168 126.624,378.986 126.745,378.986C126.845,378.986 126.946,378.582 126.945,378.078C126.944,377.574 127.025,377.171 127.146,377.171C127.246,377.171 127.347,376.868 127.346,376.485C127.346,376.102 127.426,375.718 127.547,375.658C127.648,375.597 127.748,375.174 127.747,374.73C127.747,374.307 127.827,373.943 127.948,373.943C128.069,373.943 128.149,373.137 128.147,371.947C128.146,370.818 128.225,369.87 128.346,369.809C128.467,369.729 128.546,368.196 128.543,365.857C128.54,363.458 128.457,362.046 128.336,362.046L128.336,362.046C128.215,362.046 128.134,361.442 128.133,360.635C128.132,359.829 128.05,359.224 127.929,359.224L127.929,359.224C127.808,359.224 127.727,358.861 127.727,358.418C127.726,357.974 127.625,357.611 127.524,357.611L127.524,357.611C127.403,357.611 127.322,357.148 127.321,356.603C127.32,356.039 127.219,355.596 127.118,355.596L127.118,355.596C126.997,355.596 126.916,354.93 126.914,354.003C126.913,353.116 126.811,352.329 126.711,352.269C126.589,352.209 126.508,351.785 126.508,351.342C126.507,350.918 126.406,350.555 126.305,350.555L126.305,350.555C126.184,350.555 126.103,350.011 126.102,349.346C126.101,348.681 126.02,348.136 125.899,348.136L125.899,348.136C125.778,348.136 125.696,346.927 125.693,344.931C125.691,342.995 125.77,341.664 125.89,341.583C125.991,341.523 126.092,341.2 126.091,340.857C126.091,340.534 126.171,340.272 126.292,340.272C126.393,340.272 126.493,340.09 126.493,339.889C126.493,339.667 126.573,339.425 126.694,339.364C126.795,339.304 126.895,338.981 126.895,338.638C126.894,338.315 126.975,338.053 127.096,338.053C127.197,338.053 127.297,337.871 127.297,337.65C127.297,337.428 127.377,337.246 127.498,337.246C127.599,337.246 127.699,337.064 127.699,336.842C127.699,336.62 127.779,336.439 127.9,336.439C128.001,336.439 128.102,336.297 128.102,336.136C128.101,335.813 129.37,334.421 129.652,334.42C129.733,334.42 130.035,334.238 130.317,334.016C130.599,333.794 130.982,333.612 131.163,333.612C131.365,333.612 131.526,333.51 131.526,333.41C131.526,333.289 131.788,333.208 132.131,333.207C132.453,333.207 132.735,333.106 132.735,333.005C132.735,332.884 133.179,332.803 133.743,332.802L133.749,332.802C134.291,332.802 134.751,332.882 134.752,333.002C134.752,333.103 134.973,333.203 135.255,333.203L135.258,333.203C135.539,333.203 135.76,333.283 135.76,333.404C135.76,333.505 135.861,333.606 135.962,333.606L135.963,333.606C136.588,333.606 138.042,335.66 138.487,337.171C138.548,337.433 138.71,337.635 138.81,337.635L138.81,337.635C138.911,337.635 138.995,339.832 138.999,343.059C139.003,346.466 139.086,348.543 139.208,348.623C139.308,348.684 139.41,348.926 139.41,349.147C139.41,349.369 139.733,349.853 140.117,350.235C140.736,350.873 140.9,350.939 141.976,350.939C141.988,350.939 142.001,350.939 142.013,350.939C142.679,350.938 143.283,350.836 143.344,350.736C143.404,350.614 143.606,350.534 143.767,350.533C144.17,350.533 145.056,349.624 145.056,349.221C145.056,349.06 145.136,348.919 145.257,348.918C145.358,348.918 145.459,348.777 145.458,348.615C145.458,348.454 145.539,348.313 145.66,348.313C145.761,348.313 145.861,348.131 145.861,347.909C145.86,347.687 145.941,347.506 146.062,347.506C146.163,347.506 146.263,347.223 146.263,346.901C146.262,346.558 146.343,346.296 146.464,346.296C146.564,346.295 146.665,345.831 146.664,345.287C146.663,344.723 146.743,344.279 146.864,344.279C146.965,344.279 147.066,343.996 147.065,343.673C147.065,343.331 147.145,343.068 147.266,343.068C147.387,343.068 147.467,342.12 147.465,340.648C147.463,339.176 147.381,338.229 147.26,338.229L147.26,338.229C147.139,338.229 147.058,337.907 147.057,337.524C147.057,337.141 146.956,336.818 146.855,336.818L146.855,336.818C146.734,336.818 146.652,336.274 146.652,335.609C146.651,334.943 146.57,334.399 146.449,334.399L146.448,334.399C146.327,334.399 146.246,334.056 146.246,333.633C146.245,333.109 146.124,332.786 145.841,332.585C145.619,332.424 145.437,332.142 145.437,331.94C145.437,331.739 145.336,331.577 145.235,331.577L145.235,331.577C145.114,331.577 145.033,331.416 145.033,331.215C145.033,331.013 144.851,330.731 144.629,330.57C144.407,330.409 144.225,330.167 144.225,330.046C144.224,329.421 140.087,325.737 139.38,325.737L139.38,325.737C139.279,325.737 139.178,325.637 139.178,325.536C139.178,325.415 138.997,325.335 138.776,325.335L138.774,325.335C138.552,325.335 138.371,325.235 138.371,325.134C138.371,325.013 138.15,324.933 137.869,324.933L137.866,324.933C137.584,324.933 137.161,324.752 136.919,324.531C136.677,324.309 136.274,324.129 136.011,324.129L136.01,324.129C135.748,324.129 135.547,324.028 135.547,323.927C135.546,323.809 134.244,323.73 132.039,323.73C131.998,323.73 131.958,323.73 131.917,323.73C129.638,323.733 128.288,323.816 128.288,323.937C128.288,324.038 128.106,324.139 127.885,324.139C127.663,324.139 127.482,324.22 127.482,324.341C127.482,324.442 127.341,324.543 127.179,324.543C127.018,324.543 126.877,324.624 126.877,324.745C126.877,324.846 126.595,324.947 126.273,324.947C125.93,324.948 125.668,325.029 125.668,325.13C125.668,325.231 125.507,325.372 125.305,325.433C124.922,325.554 122.848,327.432 122.848,327.674C122.848,327.734 122.385,328.239 121.841,328.784C121.278,329.329 120.835,329.895 120.835,330.036C120.835,330.197 120.654,330.439 120.432,330.601C120.211,330.762 120.03,331.045 120.03,331.247C120.03,331.448 119.929,331.61 119.829,331.61C119.708,331.61 119.627,331.791 119.628,332.013C119.628,332.235 119.527,332.417 119.426,332.417C119.305,332.417 119.225,332.599 119.225,332.8C119.225,333.002 119.085,333.224 118.923,333.305C118.762,333.365 118.621,333.628 118.622,333.91C118.622,334.192 118.522,334.475 118.421,334.535C118.3,334.596 118.22,334.959 118.22,335.322C118.221,335.665 118.141,336.048 118.04,336.149C117.859,336.351 117.678,337.339 117.499,339.275C117.44,339.88 117.299,340.465 117.199,340.566C116.937,340.848 116.965,347.482 117.228,347.643C117.329,347.704 117.43,348.389 117.431,349.155C117.432,349.921 117.514,350.607 117.635,350.667C117.736,350.728 117.837,351.232 117.838,351.776C117.839,352.32 117.92,352.825 118.041,352.885C118.142,352.945 118.243,353.489 118.244,354.094C118.245,354.699 118.326,355.244 118.447,355.304C118.548,355.364 118.649,355.687 118.65,356.009C118.65,356.332 118.792,356.715 118.953,356.896C119.115,357.057 119.257,357.501 119.257,357.904C119.258,358.287 119.339,358.67 119.46,358.731C119.581,358.811 119.664,360.989 119.669,364.598C119.674,368.288 119.596,370.324 119.475,370.325C119.354,370.325 119.273,370.648 119.274,371.051C119.274,371.434 119.134,371.898 118.973,372.059C118.812,372.241 118.671,372.624 118.671,372.947C118.672,373.27 118.571,373.592 118.471,373.653C118.35,373.714 118.269,373.976 118.27,374.238C118.27,374.5 118.089,374.863 117.867,375.065C117.646,375.267 117.465,375.529 117.465,375.65C117.465,375.993 115.331,378.194 115.008,378.194C114.867,378.194 114.605,378.376 114.444,378.598C114.283,378.82 114.001,379.002 113.799,379.002C113.598,379.003 113.437,379.083 113.437,379.204C113.437,379.305 113.155,379.406 112.832,379.407C112.489,379.407 112.227,379.488 112.227,379.609C112.227,379.71 111.945,379.811 111.623,379.812C111.28,379.812 111.018,379.893 111.018,380.014C111.018,380.115 110.655,380.216 110.212,380.217C109.768,380.217 109.405,380.298 109.406,380.419C109.406,380.52 109.265,380.621 109.103,380.621L109.103,380.621C108.942,380.621 108.801,380.521 108.801,380.42C108.8,380.3 108.539,380.219 108.238,380.219L108.235,380.219C107.912,380.219 107.55,380.059 107.388,379.817C107.227,379.596 106.985,379.415 106.823,379.415L106.822,379.415C106.319,379.415 105.976,378.85 105.975,378.024C105.974,377.561 106.054,377.197 106.175,377.197C106.276,377.197 106.376,376.834 106.376,376.39C106.375,375.947 106.455,375.584 106.576,375.584C106.677,375.584 106.778,375.221 106.777,374.777C106.776,374.333 106.857,373.97 106.978,373.97C107.099,373.97 107.178,373.244 107.177,372.175C107.176,371.167 107.255,370.3 107.376,370.239C107.497,370.159 107.574,367.416 107.568,362.678C107.562,357.939 107.478,355.197 107.357,355.116C107.236,355.056 107.154,354.33 107.153,353.504C107.152,352.677 107.05,351.951 106.95,351.891C106.829,351.83 106.747,351.508 106.747,351.165C106.747,350.843 106.646,350.581 106.545,350.581L106.545,350.581C106.424,350.581 106.343,350.299 106.342,349.976C106.342,349.633 106.241,349.371 106.14,349.371L106.14,349.371C106.019,349.371 105.938,349.009 105.937,348.565C105.937,348.121 105.835,347.759 105.735,347.759L105.734,347.759C105.613,347.759 105.532,347.476 105.532,347.154C105.532,346.811 105.431,346.549 105.33,346.549L105.329,346.549C105.209,346.549 105.128,346.368 105.128,346.167C105.127,345.945 105.026,345.703 104.925,345.643C104.804,345.582 104.723,345.26 104.723,344.917C104.722,344.594 104.621,344.333 104.52,344.333L104.52,344.333C104.399,344.333 104.318,344.171 104.318,343.97C104.318,343.768 104.136,343.486 103.914,343.325C103.692,343.164 103.51,342.882 103.51,342.68C103.51,342.479 103.409,342.318 103.308,342.318L103.308,342.318C103.187,342.318 103.106,342.136 103.106,341.915C103.105,341.693 103.004,341.512 102.904,341.512L102.903,341.512C102.783,341.512 102.702,341.371 102.702,341.189C102.701,341.028 102.56,340.746 102.398,340.564C102.217,340.403 102.015,340 101.954,339.678C101.893,339.355 101.771,339.093 101.691,339.093L101.691,339.093C101.61,339.093 101.428,338.811 101.287,338.489C101.145,338.146 100.903,337.885 100.762,337.885L100.761,337.885C100.6,337.885 100.479,337.683 100.479,337.381C100.478,337.099 100.377,336.877 100.277,336.877L100.276,336.877C100.155,336.877 100.075,336.736 100.074,336.555C100.074,336.373 99.791,335.97 99.468,335.668C99.125,335.366 98.863,335.004 98.862,334.863C98.862,334.722 98.579,334.359 98.256,334.057C97.913,333.755 97.651,333.392 97.65,333.251C97.65,332.969 97.146,332.445 96.883,332.445L96.883,332.445C96.782,332.445 96.56,332.244 96.379,331.982C95.914,331.277 93.875,329.223 93.633,329.223L93.633,329.223C93.512,329.223 93.411,329.123 93.411,329.022C93.411,328.901 93.31,328.821 93.209,328.821L93.209,328.821C93.088,328.821 92.644,328.458 92.2,328.015C91.755,327.573 91.332,327.21 91.211,327.21L91.21,327.21C91.11,327.21 90.605,326.808 90.06,326.304C89.535,325.801 89.031,325.398 88.93,325.398L88.93,325.398C88.829,325.398 88.385,325.036 87.961,324.593C87.537,324.15 87.073,323.788 86.952,323.788L86.951,323.788C86.81,323.788 86.447,323.506 86.144,323.184C85.841,322.841 85.478,322.58 85.337,322.58L85.337,322.58C85.196,322.58 84.832,322.298 84.53,321.976C84.227,321.634 83.864,321.372 83.722,321.372L83.722,321.372C83.581,321.372 83.218,321.09 82.915,320.768C82.612,320.426 82.249,320.164 82.128,320.164L82.128,320.164C82.007,320.164 81.906,320.064 81.906,319.963C81.906,319.842 81.785,319.762 81.624,319.762L81.623,319.762C81.482,319.762 81.078,319.48 80.735,319.158C80.372,318.816 79.989,318.554 79.868,318.554L79.867,318.554C79.605,318.554 79.08,318.051 79.08,317.789C79.08,317.688 78.838,317.487 78.535,317.326C77.95,317.024 73.63,312.815 73.629,312.553C73.629,312.452 73.245,311.969 72.761,311.486C72.296,310.982 71.731,310.257 71.529,309.874C71.306,309.491 70.882,308.947 70.559,308.645C70.256,308.363 69.994,308.041 69.994,307.94C69.993,307.638 69.488,306.671 69.327,306.671L69.327,306.671C69.246,306.671 69.185,306.53 69.185,306.369C69.185,306.207 69.084,306.066 68.983,306.066L68.983,306.066C68.862,306.066 68.781,305.885 68.781,305.684C68.781,305.462 68.68,305.22 68.579,305.16C68.458,305.099 68.377,304.817 68.376,304.555C68.376,304.293 68.275,304.011 68.174,303.95C68.053,303.89 67.972,303.608 67.972,303.325C67.971,303.063 67.87,302.842 67.769,302.842L67.769,302.842C67.648,302.842 67.568,302.66 67.567,302.439C67.567,302.217 67.466,302.036 67.365,302.036L67.365,302.036C67.244,302.036 67.163,301.572 67.162,301.028C67.161,300.463 67.06,300.02 66.959,300.02L66.959,300.02C66.838,300.02 66.757,299.274 66.755,298.205C66.754,297.137 66.672,296.391 66.551,296.391L66.551,296.391C66.43,296.391 66.349,295.887 66.348,295.282C66.347,294.677 66.246,294.173 66.145,294.173L66.145,294.173C66.024,294.173 65.943,293.71 65.942,293.165C65.942,292.601 65.84,292.157 65.739,292.157L65.739,292.157C65.618,292.157 65.537,291.694 65.537,291.15C65.536,290.585 65.434,290.142 65.334,290.142L65.333,290.142C65.213,290.142 65.132,289.86 65.131,289.537C65.131,289.194 65.03,288.932 64.929,288.932L64.929,288.932C64.808,288.932 64.727,288.67 64.726,288.348C64.726,288.005 64.625,287.683 64.524,287.622C64.403,287.562 64.322,287.28 64.321,287.018C64.321,286.755 64.22,286.473 64.119,286.413C63.998,286.352 63.917,286.111 63.917,285.889C63.916,285.687 63.815,285.506 63.715,285.506L63.714,285.506C63.594,285.506 63.513,285.345 63.512,285.143C63.512,284.942 63.33,284.66 63.108,284.499C62.886,284.338 62.705,284.055 62.704,283.854C62.704,283.652 62.603,283.491 62.502,283.491L62.502,283.491C62.381,283.491 62.3,283.35 62.3,283.169C62.3,282.806 61.836,282.283 61.513,282.283L61.512,282.283C61.392,282.283 61.291,282.101 61.29,281.879C61.29,281.658 61.189,281.477 61.088,281.477L61.088,281.477C60.967,281.477 60.886,281.336 60.886,281.154C60.886,280.771 59.13,279.06 58.726,279.06L58.725,279.06C58.584,279.06 58.464,278.959 58.463,278.838C58.463,278.576 57.454,277.65 57.172,277.65L57.171,277.65C57.071,277.65 56.849,277.489 56.667,277.288C56.485,277.107 55.92,276.724 55.375,276.463C54.851,276.201 54.427,275.859 54.427,275.718C54.427,275.577 53.861,274.872 53.154,274.147C51.317,272.214 50.994,271.851 50.994,271.629C50.994,271.529 50.529,270.985 49.984,270.421C49.419,269.857 48.974,269.232 48.974,269.031C48.974,268.849 48.691,268.507 48.368,268.286C48.045,268.064 47.763,267.802 47.763,267.722C47.762,267.48 47.218,266.977 46.955,266.977L46.955,266.977C46.814,266.977 46.451,266.695 46.148,266.373C45.845,266.031 45.442,265.769 45.26,265.769L45.259,265.769C45.078,265.769 44.937,265.668 44.937,265.568C44.937,265.42 44.799,265.354 44.6,265.354Z" style="fill:rgb(8,46,69);fill-rule:nonzero;"/>
                </g>
            </g>
        </g>
    </g>
    <defs>
        <linearGradient id="_Linear2" x1="0" y1="0" x2="1" y2="0" gradientUnits="userSpaceOnUse" gradientTransform="matrix(12.8115,1098.39,-1098.39,12.8115,3141.5,1513.88)"><stop offset="0" style="stop-color:rgb(63,233,237);stop-opacity:1"/><stop offset="1" style="stop-color:rgb(211,82,105);stop-opacity:1"/></linearGradient>
    </defs>
</svg>
