<?xml version="1.0" encoding="UTF-8" standalone="no"?>
<!DOCTYPE svg PUBLIC "-//W3C//DTD SVG 1.1//EN" "http://www.w3.org/Graphics/SVG/1.1/DTD/svg11.dtd">
<svg width="100%" height="100%" viewBox="0 0 1920 1080" version="1.1" xmlns="http://www.w3.org/2000/svg" xmlns:xlink="http://www.w3.org/1999/xlink" xml:space="preserve" xmlns:serif="http://www.serif.com/" style="fill-rule:evenodd;clip-rule:evenodd;stroke-linejoin:round;stroke-miterlimit:2;">
    <g transform="matrix(1,0,0,1,-6387.77,0)">
        <g id="Artboard4" transform="matrix(3.37491,0,0,1.89839,-17137.2,-393.858)">
            <rect x="6970.55" y="207.47" width="568.904" height="568.904" style="fill:none;"/>
            <clipPath id="_clip1">
                <rect x="6970.55" y="207.47" width="568.904" height="568.904"/>
            </clipPath>
            <g clip-path="url(#_clip1)">
                <g transform="matrix(0.296304,0,0,0.526763,5077.82,207.47)">
                    <rect x="6387.77" y="0" width="1920" height="1081.94" style="fill:rgb(186,205,245);"/>
                </g>
                <g transform="matrix(0.349616,0,0,0.524398,4737.28,210.029)">
                    <path d="M6387.77,693.257C6387.77,693.257 7334,642.904 8015,1081.94L6387.77,1081.94L6387.77,693.257Z" style="fill:rgb(187,217,187);"/>
                </g>
                <g transform="matrix(-0.349616,0,0,0.441912,9772.72,299.273)">
                    <path d="M6387.77,693.257C6387.77,693.257 7334,642.904 8015,1081.94L6387.77,1081.94L6387.77,693.257Z" style="fill:rgb(135,188,136);"/>
                </g>
                <g transform="matrix(0.296304,0,0,0.331397,5077.82,418.844)">
                    <path d="M6387.77,693.257C6387.77,693.257 7334,642.904 8015,1081.94L6387.77,1081.94L6387.77,693.257Z" style="fill:rgb(107,172,108);"/>
                </g>
                <g>
                    <g transform="matrix(0.614575,0,0,0.82816,6380.28,206.347)">
                        <circle cx="1860" cy="25.035" r="264.868" style="fill:url(#_Radial2);"/>
                    </g>
                    <g transform="matrix(0.237577,0,0,0.42236,7081.5,216.507)">
                        <circle cx="1860" cy="25.035" r="264.868" style="fill:url(#_Radial3);"/>
                    </g>
                </g>
            </g>
        </g>
    </g>
    <defs>
        <radialGradient id="_Radial2" cx="0" cy="0" r="1" gradientUnits="userSpaceOnUse" gradientTransform="matrix(264.868,0,0,264.868,1860,25.0355)"><stop offset="0" style="stop-color:rgb(242,219,120);stop-opacity:1"/><stop offset="1" style="stop-color:rgb(186,205,245);stop-opacity:1"/></radialGradient>
        <radialGradient id="_Radial3" cx="0" cy="0" r="1" gradientUnits="userSpaceOnUse" gradientTransform="matrix(264.868,0,0,264.868,1860,25.0355)"><stop offset="0" style="stop-color:rgb(242,126,99);stop-opacity:1"/><stop offset="0.53" style="stop-color:rgb(242,196,115);stop-opacity:1"/><stop offset="1" style="stop-color:rgb(242,222,121);stop-opacity:1"/></radialGradient>
    </defs>
</svg>
