<?xml version="1.0" encoding="UTF-8" standalone="no"?>
<!DOCTYPE svg PUBLIC "-//W3C//DTD SVG 1.1//EN" "http://www.w3.org/Graphics/SVG/1.1/DTD/svg11.dtd">
<svg width="100%" height="100%" viewBox="0 0 1920 1081" version="1.1" xmlns="http://www.w3.org/2000/svg" xmlns:xlink="http://www.w3.org/1999/xlink" xml:space="preserve" xmlns:serif="http://www.serif.com/" style="fill-rule:evenodd;clip-rule:evenodd;stroke-linejoin:round;stroke-miterlimit:2;">
    <g transform="matrix(1,0,0,1,0,-1449)">
        <g id="Artboard6" transform="matrix(2.6087,0,0,1.46739,-862.467,-906.885)">
            <rect x="330.612" y="1606" width="736" height="736" style="fill:none;"/>
            <clipPath id="_clip1">
                <rect x="330.612" y="1606" width="736" height="736"/>
            </clipPath>
            <g clip-path="url(#_clip1)">
                <g transform="matrix(0.383333,0,0,0.681481,330.612,618.026)">
                    <rect x="0" y="1449.75" width="1920" height="1080" style="fill:url(#_Linear2);"/>
                </g>
                <g transform="matrix(0.453147,0,0,0.681481,191.271,738.63)">
                    <path d="M0,2529.74L698.612,1812.77L1450,2529.74L0,2529.74Z" style="fill:rgb(225,93,69);"/>
                    <clipPath id="_clip3">
                        <path d="M0,2529.74L698.612,1812.77L1450,2529.74L0,2529.74Z"/>
                    </clipPath>
                    <g clip-path="url(#_clip3)">
                        <g transform="matrix(0.845935,0,0,1,307.497,-176.973)">
                            <path d="M462.346,1989.75C462.346,1989.75 516.346,2109.44 548.209,2180.07C562.966,2212.78 588.37,2239.53 620.279,2255.95C620.279,2255.95 620.279,2255.95 620.28,2255.95C639.815,2266.01 647.825,2289.76 638.365,2309.6C631.28,2324.45 622.682,2342.47 613.991,2360.69C603.342,2383.01 603.729,2409.03 615.036,2431.02C626.344,2453.02 647.276,2468.47 671.627,2472.81C911.209,2515.42 1488,2618 1488,2618L-230,2782.9L-299.346,2274L-230,2151L462.346,1989.75Z" style="fill:rgb(232,130,111);"/>
                        </g>
                    </g>
                </g>
                <g transform="matrix(0.453147,0,0,0.681481,548.804,790.544)">
                    <path d="M0,2529.74L698.612,1812.77L1450,2529.74L0,2529.74Z" style="fill:rgb(225,93,69);"/>
                    <clipPath id="_clip4">
                        <path d="M0,2529.74L698.612,1812.77L1450,2529.74L0,2529.74Z"/>
                    </clipPath>
                    <g clip-path="url(#_clip4)">
                        <g transform="matrix(0.813585,-0.273898,0.2317,0.961759,-151.125,25.753)">
                            <path d="M462.346,1989.75C462.346,1989.75 516.346,2109.44 548.209,2180.07C562.966,2212.78 588.37,2239.53 620.279,2255.95C620.279,2255.95 620.279,2255.95 620.28,2255.95C639.815,2266.01 647.825,2289.76 638.365,2309.6C631.28,2324.45 622.682,2342.47 613.991,2360.69C603.342,2383.01 603.729,2409.03 615.036,2431.02C626.344,2453.02 647.276,2468.47 671.627,2472.81C911.209,2515.42 1488,2618 1488,2618L-230,2782.9L-299.346,2274L-230,2151L462.346,1989.75Z" style="fill:rgb(232,130,111);"/>
                        </g>
                    </g>
                </g>
                <g transform="matrix(0.188101,0,0,0.334401,808.297,1700.73)">
                    <path d="M1074.53,291.693C1074.49,291.708 1074.45,291.722 1074.41,291.736L1074.47,291.646C1073.8,292.53 1073.23,293.542 1072.42,294.275C1067.17,298.987 1061.2,302.418 1054.33,304.18C1050.23,305.23 1046.45,306.947 1043.35,309.867C1042.18,310.968 1041.11,312.314 1040.42,313.752C1038.67,317.38 1040.43,321.016 1044.32,321.98C1046.03,322.402 1047.81,322.508 1049.56,322.736C1050.79,322.895 1052.02,323.018 1053.48,323.184C1052.73,324.306 1051.77,324.621 1050.85,324.949C1048.23,325.881 1045.47,326.053 1042.81,325.547C1039.82,324.981 1036.99,324.702 1034.3,326.425C1026.76,328.863 1018.36,326.06 1013.66,319.479C1012.37,317.679 1010.81,316.236 1008.76,315.443C1007.5,314.951 1006.11,314.765 1004.62,314.405C1006.42,313.383 1008.37,313.156 1010.27,313.264C1010.96,312.349 1011.56,311.557 1012.2,310.709C1010.38,309.333 1008.28,308.44 1006.08,307.938C1002.33,307.085 998.544,306.355 994.752,305.718C991.488,305.17 989.076,303.417 987.144,300.864C986.653,300.214 986.241,299.495 986.651,298.367C987.269,298.641 987.822,298.867 988.358,299.127C994.461,302.094 1000.88,303.322 1007.66,302.734C1009.04,302.615 1010.43,302.616 1011.82,302.652C1014,302.709 1015.69,303.671 1016.82,305.568C1017.07,306.002 1017.34,306.43 1017.6,306.865C1019.05,309.299 1021.3,310.356 1024.01,310.687C1024.8,310.783 1025.31,310.555 1025.81,309.951C1026.57,309.026 1027.39,308.144 1028.25,307.315C1032.7,303.052 1038.04,300.69 1044.13,300.011C1046.64,299.731 1049.19,299.78 1051.67,299.394C1059.16,298.231 1066.13,295.428 1072.96,292.269C1073.47,292.038 1074,291.883 1074.53,291.693L1074.41,291.735C1074.43,291.706 1074.45,291.677 1074.47,291.649L1074.47,291.646L1074.47,291.646C1074.47,291.646 1074.53,291.613 1074.53,291.613L1074.53,291.693L1074.53,291.693ZM731.36,288.846C730.644,289.607 729.99,290.44 729.202,291.116C723.893,295.67 717.875,298.906 711.047,300.502C707.37,301.363 703.951,302.734 700.877,304.929C699.271,306.075 697.85,307.416 696.851,309.145C694.596,313.045 696.154,317.054 700.506,318.18C702.569,318.714 704.736,318.851 706.856,319.172C707.633,319.29 708.408,319.421 709.46,319.59C707.881,321.147 706.175,321.535 704.431,321.751C701.386,322.127 698.374,321.838 695.426,321.019C694.393,320.732 693.535,320.838 692.547,321.296C684.655,324.952 675.166,322.412 670.079,315.349C667.155,311.289 665.574,310.293 660.706,309.519C662.587,308.445 664.519,308.421 666.434,308.476C667.105,307.632 667.751,306.82 668.44,305.953C666.849,304.671 665.03,303.755 663.086,303.246C659.245,302.243 655.376,301.323 651.481,300.563C648.104,299.904 645.578,298.123 643.662,295.373C643.213,294.729 642.718,294.015 643.182,292.953C643.673,293.146 644.136,293.275 644.548,293.497C650.881,296.922 657.644,298.333 664.818,297.898C666.011,297.825 667.219,297.845 668.413,297.927C670.505,298.07 672.134,299.02 673.183,300.887C673.584,301.602 673.994,302.316 674.454,302.993C675.923,305.154 678.14,305.985 680.599,306.248C681.045,306.296 681.622,305.898 682.009,305.558C682.814,304.853 683.506,304.021 684.289,303.288C689.149,298.735 694.985,296.471 701.571,296.064C705.157,295.841 708.757,295.946 712.3,295.101C718.338,293.661 724.172,291.657 729.831,289.122C730.264,288.928 730.696,288.732 731.128,288.537C731.205,288.64 731.283,288.743 731.36,288.846ZM1074.13,267.151C1073.55,266.762 1073.27,266.63 1073.06,266.428C1068,261.604 1063.9,256.198 1062.33,249.186C1061.75,246.593 1060.08,245.286 1057.31,245.118C1055.01,244.978 1052.81,245.579 1050.68,246.413C1050.4,246.522 1050.16,246.747 1049.93,246.954C1048.35,248.392 1046.79,249.855 1045.2,251.279C1042.99,253.254 1040.69,255.135 1038.55,257.178C1036.16,259.457 1034.27,262.137 1032.79,265.104C1032.58,265.536 1032.33,265.949 1031.97,266.595C1031.2,264.966 1031.24,263.468 1031.38,262.012C1031.9,256.523 1033.58,251.416 1036.58,246.763C1037.9,244.702 1039.61,243.081 1041.83,241.991C1043.36,241.243 1044.86,240.422 1046.3,239.521C1048.37,238.232 1048.35,237.594 1046.37,236.105C1046.23,235.996 1046.11,235.86 1045.9,235.672C1046.44,235.014 1047.16,235.165 1047.8,235.152C1052.45,235.054 1056.6,236.522 1060.38,239.159C1061.57,239.989 1062.73,240.861 1063.93,241.685C1068.13,244.587 1072.77,246.502 1077.73,247.68C1078.33,247.821 1078.91,247.984 1079.72,248.194C1076.91,250.287 1073.95,250.237 1070.69,249.664C1073.59,255.196 1074.27,260.89 1074.13,267.151ZM203.709,265.207C202.823,262.833 202.915,260.746 203.169,258.696C203.847,253.243 205.599,248.138 208.445,243.424C210.077,240.72 212.167,238.513 215.084,237.142C216.509,236.472 217.871,235.662 219.238,234.875C219.836,234.531 220.424,234.139 220.933,233.675C221.954,232.746 221.914,232.101 220.834,231.183C220.409,230.822 219.931,230.522 219.269,230.044C219.837,229.844 220.2,229.643 220.584,229.594C223.13,229.268 225.615,229.655 228.069,230.321C231.025,231.123 233.785,232.361 236.2,234.25C242.419,239.115 249.318,242.503 257.087,244.053C257.251,244.085 257.402,244.176 257.74,244.314C254.587,246.569 251.241,246.692 247.492,245.884C250.814,252.183 251.582,258.715 251.514,265.767C250.917,265.376 250.594,265.223 250.342,264.993C246.876,261.816 243.871,258.261 241.516,254.178C240.025,251.593 238.836,248.882 238.239,245.947C237.416,241.904 234.824,240.56 231.271,240.784C229.225,240.913 227.21,241.603 225.195,242.093C224.794,242.19 224.405,242.477 224.091,242.764C222.47,244.248 220.907,245.797 219.262,247.254C216.711,249.513 214.018,251.618 211.555,253.966C208.52,256.86 206.073,260.23 204.329,264.077C204.204,264.352 204.039,264.61 203.709,265.207ZM689.45,262.428C688.53,260.057 688.868,257.987 689.222,255.971C690.026,251.384 691.676,247.102 694.238,243.192C695.721,240.928 697.58,239.106 700.114,238.005C701.5,237.402 702.822,236.647 704.158,235.933C704.599,235.697 705.032,235.415 705.404,235.081C706.314,234.265 706.308,233.752 705.399,232.887C705.04,232.546 704.622,232.268 704.064,231.83C705.152,231.189 706.208,231.299 707.211,231.395C711.521,231.807 715.432,233.279 718.876,235.937C720.026,236.824 721.173,237.716 722.348,238.569C726.436,241.539 730.983,243.525 735.851,244.816C736.277,244.929 736.703,245.042 737.123,245.174C737.238,245.209 737.33,245.312 737.552,245.468C734.793,247.238 731.878,247.39 728.539,246.491C731.346,252.192 731.858,257.904 731.518,263.922C731.204,263.783 730.955,263.741 730.805,263.596C725.81,258.77 721.823,253.302 720.424,246.347C719.716,242.83 717.409,241.505 713.988,241.619C712.862,241.657 711.742,241.937 710.626,242.139C709.232,242.39 708.049,242.909 707.126,244.13C706.459,245.011 705.426,245.62 704.542,246.334C702.085,248.315 699.555,250.212 697.176,252.282C694.246,254.831 691.865,257.851 690.098,261.331C689.958,261.606 689.784,261.864 689.45,262.428ZM813.419,257.421C812.796,255.728 812.688,254.377 812.812,253.005C813.409,246.391 815.618,240.352 819.381,234.889C820.875,232.72 822.79,231.025 825.207,229.9C826.75,229.182 828.254,228.376 829.75,227.561C830.411,227.201 831.062,226.785 831.621,226.286C832.473,225.525 832.45,224.848 831.607,224.039C831.131,223.582 830.586,223.197 829.88,222.623C831.791,222.009 833.487,222.171 835.138,222.433C839.381,223.108 843.33,224.598 846.67,227.353C852.708,232.332 859.415,235.943 867.069,237.718C867.311,237.775 867.541,237.885 867.794,237.976C865.794,239.726 864.184,239.982 857.775,239.554C860.893,245.755 861.449,252.324 861.127,259.313C860.665,259.018 860.389,258.9 860.187,258.705C856.06,254.723 852.577,250.258 850.327,244.953C849.495,242.993 848.925,240.904 848.418,238.829C847.683,235.824 846.26,234.347 843.215,233.888C840.384,233.461 837.703,234.174 835.069,235.113C834.792,235.212 834.559,235.457 834.328,235.66C832.722,237.067 831.192,238.572 829.505,239.873C826.206,242.419 822.874,244.914 820.001,247.96C817.648,250.455 815.621,253.175 814.094,256.255C813.958,256.531 813.786,256.79 813.419,257.421ZM611.909,187.397C611.085,188.22 610.326,189.123 609.425,189.851C604.696,193.673 599.415,196.418 593.46,197.768C590.465,198.446 587.693,199.62 585.202,201.4C584.235,202.092 583.343,202.919 582.537,203.796C581.952,204.435 581.458,205.21 581.11,206.006C579.721,209.175 581.1,212.247 584.452,213.129C586.513,213.671 588.675,213.825 590.791,214.159C591.271,214.234 591.747,214.333 592.449,214.461C591.699,215.505 590.734,215.768 589.813,216.02C586.809,216.84 583.793,216.583 580.825,215.869C579.538,215.56 578.451,215.616 577.207,216.154C570.201,219.183 561.961,216.741 557.631,210.35C555.728,207.541 553.205,205.946 549.463,205.648C551.281,204.559 553.005,204.627 554.606,204.582C555.186,203.843 555.711,203.174 556.281,202.447C554.647,201.094 552.737,200.255 550.733,199.732C547.503,198.888 544.238,198.164 540.965,197.503C538.2,196.945 536.137,195.432 534.522,193.21C534.084,192.606 533.742,191.944 533.999,190.919C534.642,191.196 535.154,191.377 535.631,191.626C540.844,194.336 546.379,195.564 552.252,195.29C553.449,195.233 554.65,195.213 555.847,195.252C557.96,195.32 559.582,196.226 560.631,198.124C561.085,198.947 561.602,199.755 562.206,200.472C563.466,201.966 565.256,202.423 567.087,202.696C567.4,202.743 567.801,202.536 568.087,202.34C568.391,202.132 568.608,201.796 568.864,201.517C573.405,196.565 579.065,193.785 585.746,193.76C593.04,193.734 599.819,191.801 606.507,189.245C608.248,188.58 609.958,187.833 611.682,187.123C611.758,187.214 611.834,187.306 611.909,187.397ZM984.311,194.162C981.13,196.398 977.79,196.603 974.043,195.773C977.421,202.114 978.204,208.6 977.988,215.568C977.445,215.185 977.082,214.985 976.786,214.712C972.892,211.138 969.517,207.135 967.248,202.338C966.204,200.132 965.444,197.769 964.768,195.415C963.944,192.545 962.292,190.945 959.354,190.679C956.584,190.428 953.965,191.122 951.414,192.111C951.087,192.238 950.819,192.543 950.556,192.799C949.474,193.851 948.441,194.956 947.321,195.965C946.385,196.809 945.353,197.546 944.365,198.332C938.631,202.892 933.473,207.939 930.399,215.115C930.145,214.517 929.926,214.177 929.856,213.808C929.348,211.156 929.642,208.527 930.171,205.915C931.132,201.17 932.803,196.705 935.439,192.621C936.976,190.239 938.917,188.319 941.505,187.071C942.925,186.387 944.291,185.589 945.667,184.817C946.215,184.509 946.761,184.175 947.247,183.778C948.584,182.684 948.573,181.958 947.236,180.923C946.846,180.621 946.42,180.366 945.843,179.976C946.738,179.397 947.578,179.345 948.429,179.359C953.835,179.447 958.737,181.069 963.058,184.317C967.269,187.483 971.668,190.302 976.711,191.951C978.807,192.637 980.957,193.153 983.082,193.752C983.432,193.851 983.775,193.982 984.311,194.162ZM1157.45,188.984C1158.22,189.294 1158.74,189.47 1159.23,189.707C1164.95,192.465 1170.98,193.469 1177.29,192.806C1177.79,192.753 1178.29,192.754 1178.8,192.736C1181.42,192.642 1183.47,193.56 1184.69,196.022C1185.68,198.015 1187.35,199.159 1189.51,199.664C1190.77,199.958 1191.7,199.813 1192.64,198.699C1197.18,193.355 1203.08,190.524 1210.04,190.333C1218.41,190.102 1225.93,187.12 1233.4,183.82C1233.96,183.575 1234.51,183.317 1235.27,183.331C1234.57,184.099 1233.93,184.939 1233.16,185.623C1228.64,189.604 1223.52,192.523 1217.67,194.065C1213.63,195.13 1209.9,196.782 1207,199.867C1206.12,200.807 1205.36,201.98 1204.9,203.183C1203.81,206.104 1205.2,208.929 1208.22,209.714C1210.34,210.267 1212.57,210.38 1214.76,210.688C1215.3,210.765 1215.85,210.835 1216.61,210.937C1215.92,212.015 1214.94,212.297 1214.02,212.576C1211.3,213.399 1208.51,213.325 1205.76,212.808C1204.05,212.484 1202.57,212.539 1200.89,213.272C1194.34,216.124 1186.47,214.101 1182.16,208.379C1179.98,205.493 1177.5,203.489 1173.36,203.277C1175.26,202.234 1176.92,202.13 1178.51,202.09C1179.08,201.33 1179.59,200.639 1180.14,199.898C1178.22,198.498 1176.04,197.663 1173.76,197.143C1171,196.511 1168.21,195.962 1165.4,195.568C1162.55,195.169 1160.28,193.88 1158.45,191.728C1157.88,191.058 1157.39,190.335 1157.45,188.984ZM353.649,212.319C349.665,208.967 346.535,205.056 344.137,200.567C342.703,197.881 341.67,195.056 341.097,192.05C340.52,189.017 338.739,187.457 335.671,187.148C333.043,186.882 330.522,187.411 328.062,188.286C327.719,188.407 327.39,188.621 327.114,188.861C325.359,190.385 323.643,191.954 321.874,193.461C319.089,195.832 316.18,198.064 313.497,200.543C310.748,203.082 308.543,206.091 306.877,209.469C306.696,209.837 306.438,210.167 306.098,210.698C305.312,208.706 305.413,206.88 305.638,205.094C306.35,199.443 308.267,194.201 311.28,189.368C313.054,186.522 315.339,184.249 318.476,182.881C320.033,182.201 321.518,181.351 323.017,180.543C323.512,180.276 323.993,179.946 324.4,179.56C325.184,178.817 325.191,178.216 324.421,177.458C323.937,176.982 323.362,176.597 322.704,176.072C323.523,175.408 324.42,175.505 325.242,175.528C330.244,175.673 334.756,177.286 338.817,180.185C339.484,180.661 340.118,181.185 340.76,181.696C346.27,186.086 352.402,189.209 359.287,190.805C359.714,190.904 360.127,191.064 360.561,191.2C358.646,193.016 356.485,193.371 350.552,192.807C353.566,199.037 354.192,205.571 353.649,212.319ZM453.318,174.72C452.308,172.006 452.657,169.618 453.074,167.279C453.992,162.131 455.844,157.324 458.71,152.929C460.398,150.341 462.509,148.231 465.389,146.961C466.542,146.452 467.654,145.849 468.772,145.262C469.498,144.882 470.233,144.504 470.905,144.039C472.557,142.897 472.563,142.067 470.985,140.825C470.651,140.561 470.305,140.311 469.834,139.956C471.45,139.214 472.971,139.407 474.435,139.598C478.835,140.171 482.937,141.654 486.384,144.475C492.543,149.515 499.349,153.195 507.137,154.978C507.319,155.02 507.492,155.101 507.675,155.167C505.907,157.038 503.181,157.484 497.7,156.731C500.758,162.982 501.391,169.532 501.03,176.311C500.783,176.277 500.552,176.317 500.45,176.22C495.178,171.253 490.965,165.587 488.879,158.537C488.611,157.633 488.438,156.699 488.231,155.777C487.632,153.108 486.085,151.637 483.362,151.176C480.463,150.684 477.723,151.397 475.019,152.324C474.738,152.42 474.489,152.645 474.257,152.847C472.553,154.333 470.87,155.844 469.155,157.317C466.094,159.946 462.916,162.449 459.974,165.204C457.478,167.543 455.547,170.377 454.036,173.47C453.874,173.8 453.67,174.11 453.318,174.72ZM1076.36,175.052C1075.47,172.662 1075.61,170.497 1075.88,168.383C1076.56,163.067 1078.26,158.074 1081.01,153.45C1082.68,150.618 1084.85,148.316 1087.88,146.885C1089.3,146.214 1090.66,145.396 1092.03,144.612C1092.58,144.301 1093.11,143.949 1093.58,143.533C1094.67,142.554 1094.63,141.866 1093.47,140.907C1093.05,140.559 1092.6,140.255 1091.93,139.764C1093.15,139.287 1094.17,139.155 1095.22,139.222C1099.85,139.519 1104.28,140.672 1107.99,143.465C1114.7,148.503 1121.86,152.44 1130.28,153.909C1128.63,155.851 1126.2,156.321 1120.31,155.856C1123.47,162.019 1124.37,168.523 1124.21,175.338C1123.9,175.272 1123.68,175.292 1123.57,175.194C1118.2,170.427 1113.9,164.904 1111.59,158.007C1111.31,157.172 1111.13,156.302 1110.91,155.447C1110.15,152.412 1108.49,150.894 1105.39,150.596C1102.62,150.33 1100.01,151.085 1097.45,152.055C1097.18,152.16 1096.96,152.424 1096.73,152.635C1095.17,154.091 1093.64,155.587 1092.05,157.005C1089.36,159.392 1086.53,161.627 1083.94,164.119C1080.96,166.983 1078.61,170.348 1076.89,174.131C1076.8,174.348 1076.66,174.546 1076.36,175.052ZM770.438,155.147C771.112,154.145 772.252,154.194 773.239,153.988C774.153,153.796 775.116,153.829 775.95,153.771C776.585,152.922 777.172,152.137 777.906,151.157C776.719,150.543 775.593,149.861 774.392,149.359C770.988,147.937 767.375,147.309 763.762,146.707C762.642,146.52 761.508,146.415 760.386,146.236C757.067,145.71 754.581,143.874 752.696,141.186C752.305,140.629 752.205,139.868 751.825,138.786C752.731,139.109 753.197,139.221 753.613,139.431C760.355,142.82 767.477,143.947 774.956,143.148C776.129,143.022 777.347,143.171 778.53,143.314C780.123,143.507 781.349,144.364 782.23,145.7C782.577,146.227 782.913,146.763 783.224,147.311C784.671,149.862 787.036,150.861 789.784,151.248C790.503,151.349 790.955,151.055 791.402,150.527C792.217,149.565 793.06,148.618 793.968,147.744C798.773,143.113 804.628,140.58 811.194,140.425C819.682,140.225 827.418,137.555 835.083,134.378C836.754,133.685 838.382,132.888 840.28,132.41C839.417,133.351 838.638,134.389 837.679,135.218C832.444,139.739 826.548,143.046 819.805,144.77C815.381,145.9 811.365,147.848 808.209,151.214C807.201,152.29 806.336,153.632 805.815,155.007C804.603,158.211 806.188,161.434 809.499,162.305C811.859,162.926 814.351,163.047 816.784,163.39C817.518,163.494 818.253,163.593 819.224,163.727C817.772,165.336 816.054,165.708 814.332,166.01C811.297,166.542 808.28,166.234 805.307,165.567C804.263,165.332 803.415,165.416 802.433,165.891C794.125,169.914 784.611,167.396 779.243,159.842C777.093,156.817 774.183,155.174 770.417,155.178L770.438,155.147ZM153.554,145.192C154.199,144.35 154.763,143.613 155.436,142.734C154.701,141.954 153.684,141.492 152.693,141.014C149.479,139.464 146.027,138.703 142.56,138.005C141.137,137.719 139.704,137.481 138.272,137.247C134.856,136.69 132.448,134.668 130.57,131.914C130.164,131.317 129.723,130.616 130.337,129.713C130.887,129.961 131.458,130.186 132.001,130.468C137.901,133.54 144.169,134.94 150.818,134.642C152.015,134.588 153.216,134.595 154.414,134.575C157.276,134.526 159.415,135.68 160.656,138.327C161.91,141.004 164.054,142.444 166.925,142.971C167.971,143.163 168.661,142.926 169.379,142.1C174.652,136.035 181.432,132.875 189.377,132.836C196.6,132.8 203.361,131.07 210.027,128.63C212.785,127.621 215.492,126.472 218.424,125.587C217.624,126.432 216.895,127.36 216.012,128.109C210.831,132.505 204.978,135.659 198.346,137.223C194.676,138.088 191.171,139.316 188.164,141.602C186.679,142.731 185.229,144.062 184.191,145.592C181.437,149.646 183.186,153.926 187.941,155.037C189.655,155.438 191.43,155.579 193.178,155.834C194.214,155.986 195.251,156.13 196.501,156.309C195.669,157.438 194.648,157.753 193.654,158.059C190.679,158.974 187.665,158.761 184.649,158.289C184.525,158.27 184.4,158.238 184.282,158.196C182.163,157.438 180.251,157.819 178.133,158.64C170.589,161.561 161.69,158.666 157.039,151.849C154.944,148.777 152.288,146.87 148.592,146.436C148.476,146.422 148.368,146.339 148.255,146.288C149.645,145.365 150.002,145.291 153.554,145.192ZM770.363,155.163C770.381,155.168 770.399,155.173 770.417,155.177C770.417,155.177 770.438,155.146 770.437,155.144C770.412,155.149 770.388,155.156 770.363,155.163ZM770.363,155.163C770.294,155.144 770.225,155.125 770.156,155.106C770.195,155.13 770.233,155.17 770.275,155.174C770.304,155.177 770.333,155.171 770.363,155.163ZM674.809,83.212C676.661,82.388 678.247,82.416 679.81,82.521C685.883,82.926 691.413,84.878 696.302,88.531C700.56,91.713 704.951,94.668 709.848,96.807C713.564,98.431 717.419,99.608 721.367,100.505C721.965,100.641 722.556,100.811 723.436,101.04C719.3,103.789 715.074,104.242 710.267,102.946C714.631,110.931 715.511,119.206 715.315,127.887C714.894,127.705 714.703,127.673 714.581,127.563C708.226,121.808 702.985,115.249 699.976,107.113C699.43,105.639 699.033,104.104 698.656,102.575C697.742,98.868 695.371,96.871 691.55,96.655C688.266,96.471 685.158,97.245 682.126,98.403C681.734,98.553 681.28,98.792 681.07,99.126C679.825,101.102 677.939,102.398 676.202,103.855C673.155,106.412 670.025,108.878 667.08,111.545C662.448,115.74 658.672,120.611 656.102,126.356C656.001,126.583 655.86,126.793 655.725,127.003C655.696,127.048 655.614,127.059 655.486,127.118C654.815,125.799 654.68,124.37 654.676,122.939C654.658,116.17 656.541,109.853 659.398,103.799C660.257,101.98 661.312,100.24 662.413,98.552C664.131,95.919 666.364,93.829 669.225,92.411C671.316,91.375 673.369,90.247 675.368,89.044C678.455,87.187 679.357,85.822 675.517,83.679C675.356,83.589 675.209,83.477 674.809,83.212ZM986.464,92.311L986.393,92.226C986.414,92.244 986.434,92.262 986.464,92.29C986.467,92.292 986.47,92.297 986.472,92.302L986.475,92.298C986.478,92.31 986.481,92.322 986.483,92.333L986.483,92.334C986.483,92.334 986.483,92.334 986.483,92.334L986.483,92.334L986.437,92.342L986.475,92.298C981.043,98.568 974.098,102.379 966.22,104.584C962.395,105.655 958.856,107.208 955.771,109.725C954.288,110.934 953.03,112.34 952.204,114.09C950.801,117.064 951.552,121.499 956.195,122.464C958.041,122.848 959.94,122.988 961.815,123.235C962.91,123.379 964.004,123.514 965.324,123.681C964.475,124.831 963.455,125.164 962.457,125.48C959.046,126.561 955.583,126.361 952.155,125.657C950.669,125.352 949.428,125.43 948.003,126.089C940.211,129.695 930.692,127.164 925.692,120.159C923.408,116.959 920.506,115.099 916.19,115.07C918.221,113.81 920.184,113.66 922.095,113.707C922.746,112.821 923.332,112.025 923.967,111.16C922.214,109.838 920.182,108.942 918.04,108.437C914.36,107.569 910.653,106.763 906.916,106.194C903.642,105.695 901.149,104.097 899.129,101.613C898.55,100.901 897.991,100.104 898.397,98.826C899.033,99.092 899.599,99.297 900.138,99.559C905.094,101.977 910.329,103.263 915.839,103.364C917.224,103.389 918.612,103.229 919.998,103.175C921.134,103.131 922.271,103.079 923.406,103.099C925.729,103.141 927.54,104.096 928.698,106.174C929.004,106.725 929.354,107.253 929.699,107.781C931.175,110.045 933.427,110.854 935.971,111.162C936.824,111.266 937.188,110.705 937.694,110.232C939.579,108.467 941.365,106.561 943.431,105.037C947.892,101.749 953.093,100.333 958.546,100.227L986.439,92.34L986.464,92.311ZM365.582,89.633C364.797,90.437 364.075,91.317 363.216,92.033C357.801,96.548 351.73,99.781 344.814,101.355C340.624,102.309 336.805,104.05 333.559,106.919C332.171,108.146 331.03,109.564 330.436,111.358C329.376,114.566 330.762,117.654 333.976,118.622C336.072,119.253 338.303,119.443 340.477,119.815C341.449,119.982 342.428,120.112 343.716,120.304C342.717,121.411 341.67,121.784 340.596,122.068C337.083,122.994 333.572,122.681 330.102,121.859C328.818,121.555 327.729,121.597 326.483,122.144C318.473,125.655 309.025,122.953 304.172,115.732C302.142,112.71 299.502,110.842 295.878,110.397C295.697,110.375 295.522,110.304 295.163,110.208C296.992,109.141 298.847,109.127 300.695,109.173C301.326,108.373 301.938,107.595 302.726,106.597C301.566,105.965 300.427,105.238 299.206,104.698C295.601,103.105 291.761,102.328 287.913,101.598C287.045,101.434 286.166,101.327 285.3,101.155C282.017,100.502 279.568,98.63 277.747,95.888C277.2,95.065 277.229,94.931 277.494,93.646C278.199,93.976 278.875,94.271 279.533,94.605C285.34,97.554 291.487,98.937 298.005,98.637C299.203,98.583 300.403,98.579 301.603,98.569C304.45,98.545 306.595,99.668 307.848,102.327C309.039,104.853 311.081,106.278 313.795,106.846C314.948,107.088 315.768,106.885 316.609,105.937C322.031,99.827 328.944,96.749 337.044,96.763C343.485,96.775 349.556,95.289 355.537,93.208C358.858,92.052 362.104,90.681 365.384,89.408C365.45,89.483 365.516,89.558 365.582,89.633ZM33.929,115.484C33.181,113.772 33.111,112.188 33.203,110.651C33.742,101.655 36.758,93.531 42.054,86.256C43.676,84.027 45.734,82.294 48.244,81.088C50.349,80.078 52.416,78.984 54.474,77.88C55.248,77.465 56.011,76.985 56.671,76.412C57.846,75.39 57.85,74.607 56.724,73.566C56.129,73.014 55.428,72.576 54.642,71.988C55.374,71.291 56.242,71.337 57.071,71.309C61.592,71.157 65.85,72.272 69.875,74.216C71.796,75.144 73.719,76.206 75.357,77.552C83.094,83.914 91.674,88.535 101.497,90.73C101.729,90.782 101.938,90.935 102.379,91.148C100.305,92.387 98.29,93.264 96.07,93.317C93.902,93.368 91.727,93.123 89.453,93.003C93.46,100.692 93.993,108.995 93.612,117.631C93.27,117.482 93.019,117.441 92.866,117.296C86.929,111.66 82.088,105.255 79.217,97.516C78.562,95.751 78.109,93.897 77.713,92.051C76.939,88.448 75.096,86.532 71.438,85.895C67.767,85.255 64.296,86.223 60.874,87.405C60.601,87.5 60.327,87.741 60.166,87.987C58.885,89.942 56.967,91.2 55.16,92.567C51.08,95.655 46.966,98.694 43.335,102.33C39.781,105.889 36.768,109.831 34.573,114.374C34.419,114.691 34.22,114.985 33.929,115.484ZM539.783,111.946C539.632,110.865 539.384,109.787 539.348,108.704C539.125,101.988 541.379,95.791 544.457,89.809C545.507,87.767 546.818,85.817 548.176,83.921C550.357,80.878 553.229,78.505 556.928,76.97C559.039,76.094 561.09,75.094 563.142,74.104C564.005,73.688 564.863,73.223 565.614,72.661C567.257,71.433 567.24,70.588 565.63,69.314C565.044,68.85 564.403,68.447 563.561,67.859C565.469,66.982 567.239,67.105 568.964,67.278C575.972,67.977 582.317,70.182 587.857,74.19C593.611,78.353 599.711,82.016 606.691,84.311C609.293,85.166 611.963,85.846 614.607,86.595C615.435,86.829 616.274,87.028 617.635,87.377C612.818,90.168 608.134,90.413 602.797,89.02C607.339,97.296 608.245,105.656 607.719,114.636C607.048,114.239 606.738,114.111 606.508,113.91C599.561,107.797 593.852,100.939 590.868,92.472C590.354,91.015 590.04,89.499 589.629,88.013C588.641,84.445 586.133,82.457 582.113,82.119C578.392,81.805 574.798,82.403 571.311,83.546C570.753,83.729 570.231,84.08 569.779,84.441C567.708,86.089 565.717,87.824 563.605,89.427C559.361,92.647 554.927,95.674 550.812,99.019C546.729,102.341 543.525,106.346 541.061,110.809C540.835,111.22 540.528,111.596 540.26,111.988C540.102,111.974 539.942,111.96 539.783,111.946ZM1160.85,100.48C1159.98,97.488 1160.19,94.862 1160.65,92.236C1161.55,87.08 1163.33,82.257 1166.19,77.849C1167.66,75.578 1169.51,73.742 1171.97,72.536C1173.27,71.896 1174.54,71.179 1175.8,70.47C1176.46,70.101 1177.12,69.717 1177.73,69.264C1179.33,68.062 1179.31,67.259 1177.68,66.05C1177.35,65.804 1177.03,65.552 1176.73,64.932C1177.76,64.824 1178.8,64.577 1179.82,64.633C1184.45,64.886 1188.87,66.072 1192.59,68.87C1199.29,73.911 1206.48,77.825 1215.23,79.342C1211.89,81.695 1208.59,81.905 1204.75,81.046C1208.04,87.355 1208.88,93.869 1208.73,100.818C1208.3,100.598 1208.01,100.518 1207.81,100.337C1203.33,96.257 1199.54,91.642 1197.12,86.034C1196.45,84.479 1195.96,82.832 1195.54,81.187C1194.6,77.506 1192.55,75.727 1188.77,75.987C1186.6,76.137 1184.45,76.822 1182.31,77.327C1181.92,77.418 1181.57,77.767 1181.26,78.061C1179.99,79.272 1178.78,80.565 1177.46,81.723C1174.76,84.093 1171.9,86.301 1169.27,88.749C1165.96,91.826 1163.31,95.432 1161.42,99.569C1161.33,99.779 1161.18,99.964 1160.85,100.48ZM850.921,72.56C847.584,74.73 844.298,75.071 840.462,74.113C843.082,78.853 844.028,83.59 844.39,88.459C844.519,90.199 844.41,91.956 844.41,93.916C844.069,93.745 843.835,93.684 843.676,93.539C838.854,89.157 834.857,84.167 832.454,78.042C831.949,76.757 831.59,75.406 831.261,74.062C830.458,70.783 828.649,69.191 825.291,69.042C822.727,68.928 820.287,69.585 817.918,70.504C817.586,70.632 817.3,70.915 817.033,71.168C815.76,72.381 814.546,73.661 813.226,74.82C810.478,77.233 807.599,79.503 804.916,81.986C801.693,84.969 799.136,88.486 797.311,92.505C797.209,92.728 797.056,92.928 796.838,93.283C796.128,92.363 796.1,91.381 796.058,90.431C795.913,87.177 796.539,84.031 797.447,80.926C798.59,77.023 800.187,73.337 802.57,70.018C803.88,68.194 805.486,66.717 807.506,65.697C808.858,65.014 810.182,64.279 811.509,63.55C812.117,63.216 812.725,62.874 813.292,62.477C815.137,61.184 815.137,60.363 813.328,59.067C813.034,58.857 812.742,58.644 812.046,58.14C813.275,57.951 814.097,57.71 814.917,57.717C819.985,57.759 824.595,59.276 828.748,62.173C829.939,63.003 831.094,63.884 832.282,64.718C837.463,68.355 843.153,70.823 849.352,72.118C849.778,72.207 850.192,72.352 850.921,72.56ZM192.446,50.776C194.597,49.898 196.481,50.261 198.307,50.582C202.343,51.291 206.082,52.801 209.269,55.424C215.359,60.436 222.115,64.086 229.857,65.803C230.034,65.842 230.192,65.964 230.367,66.051C228.342,67.799 226.639,68.067 220.377,67.585C223.417,73.814 224.058,80.355 223.678,87.387C223.064,86.891 222.666,86.619 222.325,86.288C219.088,83.148 216.34,79.63 214.18,75.664C212.724,72.99 211.648,70.18 211.06,67.177C210.353,63.557 208.303,61.742 204.598,61.885C202.363,61.971 200.145,62.623 197.933,63.084C197.546,63.164 197.194,63.523 196.875,63.81C195.755,64.818 194.707,65.912 193.539,66.859C191.824,68.25 190.005,69.509 188.275,70.881C182.687,75.312 180.555,77.85 175.947,85.529C175.756,84.661 175.555,84.056 175.497,83.437C175.261,80.897 175.603,78.405 176.204,75.939C177.304,71.426 179.03,67.183 181.637,63.322C183.256,60.925 185.264,58.982 187.966,57.8C189.408,57.17 190.793,56.404 192.193,55.679C192.696,55.419 193.193,55.133 193.649,54.8C195.219,53.655 195.236,52.9 193.741,51.722C193.4,51.452 193.039,51.207 192.446,50.776ZM1070.79,17.478C1070.79,17.478 1070.79,17.478 1070.79,17.478L1070.84,17.527C1070.84,17.527 1070.84,17.526 1070.84,17.526L1070.84,17.527C1070.81,17.541 1070.77,17.556 1070.73,17.57L1070.79,17.478C1070.34,18.135 1069.98,18.89 1069.42,19.436C1064.15,24.549 1057.93,28.045 1050.85,29.971C1047.53,30.876 1044.4,32.146 1041.58,34.139C1039.92,35.315 1038.44,36.674 1037.35,38.416C1036.48,39.795 1036.03,41.27 1036.21,42.913C1036.46,45.198 1037.57,46.928 1039.83,47.511C1041.89,48.043 1044.04,48.246 1046.15,48.559C1047.31,48.731 1048.49,48.832 1049.87,48.989C1049.14,50.113 1048.18,50.436 1047.26,50.775C1044.71,51.721 1042.05,51.708 1039.4,51.45C1037.84,51.298 1036.27,50.566 1034.76,50.705C1033.26,50.841 1031.86,51.826 1030.36,52.293C1023.07,54.579 1014.81,51.91 1010.31,45.653C1007.98,42.415 1005.06,40.512 1000.71,40.453C1002.76,39.225 1004.76,39.12 1006.61,39.067C1007.3,38.164 1007.89,37.375 1008.65,36.375C1006.96,35.619 1005.34,34.77 1003.64,34.161C999.635,32.73 995.444,32.089 991.255,31.51C987.979,31.056 985.522,29.348 983.55,26.817C983.013,26.127 982.559,25.371 982.877,24.212C983.498,24.457 984.018,24.622 984.503,24.859C990.778,27.917 997.376,29.208 1004.35,28.558C1005.54,28.446 1006.75,28.458 1007.94,28.477C1010.26,28.513 1012.09,29.444 1013.25,31.521C1013.59,32.126 1013.96,32.717 1014.36,33.285C1015.9,35.485 1018.16,36.325 1020.72,36.478C1021.13,36.503 1021.66,36.211 1021.99,35.905C1022.77,35.174 1023.44,34.329 1024.19,33.563C1028.66,29.001 1034.15,26.542 1040.45,25.843C1042.95,25.565 1045.5,25.611 1047.99,25.227C1055.41,24.077 1062.32,21.306 1069.11,18.194C1069.63,17.953 1070.19,17.773 1070.73,17.57L1070.73,17.569C1070.75,17.539 1070.77,17.509 1070.79,17.48L1070.79,17.478ZM452.195,17.265C451.347,18.148 450.574,19.122 449.638,19.9C444.467,24.198 438.67,27.33 432.105,28.896C428.565,29.74 425.164,30.903 422.233,33.067C420.68,34.214 419.306,35.647 418.033,37.11C417.025,38.269 416.582,39.778 416.68,41.347C416.851,44.073 418.314,45.877 421.098,46.582C422.803,47.014 424.577,47.18 426.323,47.442C427.549,47.626 428.78,47.77 430.261,47.965C429.53,49.039 428.647,49.337 427.785,49.628C424.57,50.712 421.312,50.482 418.048,49.891C417.986,49.88 417.924,49.863 417.865,49.842C415.869,49.127 414.075,49.468 412.073,50.262C404.458,53.284 395.499,50.364 390.772,43.571C388.15,39.803 385.986,38.514 381.367,38.095C383.35,36.921 385.32,36.831 387.304,36.881C387.916,36.09 388.514,35.315 389.227,34.393C388.085,33.468 386.749,32.813 385.368,32.246C381.607,30.701 377.663,29.809 373.665,29.212C370.835,28.79 368.252,27.949 366.197,25.892C365.49,25.184 364.829,24.397 364.305,23.548C363.976,23.014 363.942,22.298 363.66,21.226C364.692,21.689 365.311,21.934 365.901,22.237C372.059,25.395 378.585,26.737 385.496,26.324C386.997,26.235 388.523,26.34 390.021,26.505C391.687,26.688 392.938,27.631 393.815,29.056C394.079,29.486 394.347,29.916 394.575,30.366C395.852,32.883 397.979,34.139 400.686,34.652C401.664,34.838 402.382,34.762 402.996,33.914C403.4,33.357 403.935,32.893 404.424,32.399C408.957,27.807 414.479,25.29 420.87,24.671C422.814,24.483 424.775,24.428 426.729,24.381C431.075,24.277 435.237,23.198 439.302,21.824C443.362,20.452 447.323,18.791 451.329,17.258C451.548,17.174 451.772,17.105 451.994,17.029C452.061,17.107 452.128,17.186 452.195,17.265ZM636.937,33.487C637.706,32.487 638.904,32.549 639.961,32.333C640.754,32.171 641.592,32.233 642.403,32.196C642.979,31.392 643.551,30.591 644.275,29.578C643.458,29.117 642.586,28.549 641.653,28.114C638.708,26.746 635.554,26.072 632.389,25.473C630.591,25.133 628.775,24.881 626.962,24.632C623.614,24.172 621.144,22.33 619.182,19.71C618.702,19.069 618.253,18.335 618.774,17.353C619.254,17.533 619.731,17.667 620.167,17.884C626.615,21.095 633.439,22.212 640.587,21.639C641.901,21.533 643.234,21.552 644.551,21.633C646.37,21.745 647.78,22.631 648.762,24.175C648.999,24.548 649.251,24.914 649.456,25.304C650.729,27.733 652.799,28.972 655.436,29.488C656.613,29.718 657.406,29.511 658.213,28.538C661.951,24.029 666.643,20.923 672.388,19.633C674.776,19.097 677.247,18.737 679.689,18.672C684.499,18.544 689.085,17.432 693.539,15.805C697.683,14.293 701.711,12.463 705.79,10.773C706.009,10.683 706.231,10.601 706.865,10.354C706.02,11.76 705.183,12.654 704.262,13.463C699.059,18.037 693.157,21.348 686.44,23.115C682.406,24.176 678.675,25.823 675.587,28.654C674.444,29.7 673.392,30.965 672.667,32.327C670.69,36.043 672.408,39.887 676.49,40.872C678.563,41.373 680.734,41.472 682.86,41.754C683.723,41.868 684.586,41.983 685.621,42.12C684.808,43.3 683.714,43.635 682.654,43.963C679.368,44.977 676.028,44.836 672.72,44.156C671.059,43.814 669.65,43.923 668.037,44.65C660.342,48.114 651.027,45.571 646.07,38.664C643.767,35.453 640.837,33.641 636.897,33.463L636.953,33.466L636.937,33.487ZM88.449,0.086C88.435,0.057 88.421,0.028 88.407,-0C88.433,0.016 88.459,0.032 88.486,0.044L88.489,0.04C88.481,0.067 88.474,0.094 88.466,0.121C88.465,0.122 88.463,0.122 88.462,0.122L88.406,0.137L88.489,0.04C82.929,6.419 75.758,10.06 67.7,12.09C63.464,13.158 59.51,14.732 56.288,17.723C55.114,18.812 54.053,20.175 53.377,21.617C51.763,25.06 53.344,28.541 56.992,29.544C59.289,30.176 61.708,30.36 64.072,30.748C64.749,30.858 65.426,30.978 66.262,31.122C65.667,32.151 64.746,32.386 63.906,32.694C61.344,33.631 58.68,33.541 56.04,33.263C54.416,33.093 52.801,32.309 51.22,32.409C49.654,32.508 48.157,33.453 46.59,33.884C39.252,35.901 31.054,32.852 26.813,26.454C24.67,23.222 21.781,21.416 17.522,21.13C19.572,20.012 21.439,19.882 23.325,20.016C23.968,19.208 24.583,18.434 25.353,17.467C24.586,16.988 23.801,16.411 22.944,15.978C19.874,14.426 16.554,13.638 13.217,12.935C11.612,12.597 9.99,12.328 8.371,12.072C5.121,11.558 2.674,9.793 0.755,7.214C0.23,6.508 -0.266,5.752 0.162,4.543C0.71,4.768 1.269,4.949 1.784,5.216C6.328,7.57 11.133,9.023 16.249,9.321C18.071,9.427 19.905,9.352 21.733,9.342C22.615,9.336 23.497,9.245 24.379,9.269C27.205,9.35 29.328,10.531 30.558,13.186C31.772,15.808 33.937,17.131 36.725,17.679C37.805,17.891 38.46,17.648 39.176,16.84C42.283,13.33 45.992,10.676 50.455,9.112C53.835,7.928 57.335,7.405 60.876,7.43C65.036,7.46 69.081,6.848 72.989,5.569C77.661,4.042 82.24,2.232 86.864,0.558C87.383,0.37 87.931,0.264 88.466,0.121L88.407,0.133L88.449,0.086ZM636.927,33.482C636.897,33.474 636.752,33.452 636.752,33.452L636.897,33.464C636.897,33.464 636.901,33.466 636.907,33.47L636.897,33.463C636.915,33.464 636.933,33.465 636.952,33.466L636.953,33.467C636.947,33.474 636.942,33.481 636.937,33.487L636.927,33.482Z" style="fill:rgb(4,42,43);fill-rule:nonzero;"/>
                </g>
            </g>
        </g>
    </g>
    <defs>
        <linearGradient id="_Linear2" x1="0" y1="0" x2="1" y2="0" gradientUnits="userSpaceOnUse" gradientTransform="matrix(-110.388,1080,-607.5,-62.093,809,1449.75)"><stop offset="0" style="stop-color:rgb(212,224,249);stop-opacity:1"/><stop offset="1" style="stop-color:rgb(144,175,239);stop-opacity:1"/></linearGradient>
    </defs>
</svg>
