<?xml version="1.0" encoding="UTF-8" standalone="no"?>
<!DOCTYPE svg PUBLIC "-//W3C//DTD SVG 1.1//EN" "http://www.w3.org/Graphics/SVG/1.1/DTD/svg11.dtd">
<svg width="100%" height="100%" viewBox="0 0 1920 1081" version="1.1" xmlns="http://www.w3.org/2000/svg" xmlns:xlink="http://www.w3.org/1999/xlink" xml:space="preserve" xmlns:serif="http://www.serif.com/" style="fill-rule:evenodd;clip-rule:evenodd;stroke-linejoin:round;stroke-miterlimit:2;">
    <g transform="matrix(1,0,0,1,0,-1)">
        <g id="Artboard1" transform="matrix(1,0,0,1,0,1.9399)">
            <rect x="0" y="0" width="1920" height="1080" style="fill:none;"/>
            <clipPath id="_clip1">
                <rect x="0" y="0" width="1920" height="1080"/>
            </clipPath>
            <g clip-path="url(#_clip1)">
                <g>
                    <rect x="0" y="0" width="1920" height="1080" style="fill:url(#_Linear2);"/>
                    <g transform="matrix(0.867817,0,0,1.03277,-522.775,-245.817)">
                        <path d="M865.526,641.695C934.95,606.383 1021.97,606.383 1091.39,641.695C1348.8,772.624 1956.92,1081.94 1956.92,1081.94L0,1081.94C0,1081.94 608.119,772.624 865.526,641.695Z" style="fill:rgb(178,148,35);"/>
                    </g>
                    <g transform="matrix(1,0,0,1,0,-1.9399)">
                        <path d="M323.504,391.52C358.384,390.994 393.385,400.105 424.352,418.85C647.735,554.07 1175.47,873.523 1175.47,873.523L519.434,873.523C518.996,873.523 518.558,873.529 518.12,873.539C509.326,873.753 413.428,876.084 302.165,878.789C281.149,879.3 263.094,863.959 260.205,843.136C257.316,822.312 270.511,802.635 290.873,797.405C290.881,797.403 290.889,797.401 290.897,797.399C310.37,792.397 323.071,773.676 320.521,753.733C317.971,733.79 300.969,718.866 280.863,718.925C277.12,718.936 273.367,718.946 269.607,718.957C246.858,719.023 227.765,701.832 225.452,679.2C223.14,656.569 238.361,635.871 260.654,631.334C313.094,620.662 361.792,610.752 400.848,602.804C419.723,598.962 435.13,585.371 441.295,567.122C447.46,548.874 443.453,528.723 430.776,514.222C382.583,459.097 323.504,391.52 323.504,391.52Z" style="fill:rgb(214,213,179);"/>
                    </g>
                    <g transform="matrix(1,0,0,1,0,-1.9399)">
                        <path d="M0,676.903C228.92,680.154 499.336,710.395 784.735,769.572C1160.09,847.401 1491.76,960.85 1726.31,1081.94L0,1081.94L0,676.903Z" style="fill:rgb(72,217,149);"/>
                        <clipPath id="_clip3">
                            <path d="M0,676.903C228.92,680.154 499.336,710.395 784.735,769.572C1160.09,847.401 1491.76,960.85 1726.31,1081.94L0,1081.94L0,676.903Z"/>
                        </clipPath>
                        <g clip-path="url(#_clip3)">
                            <g transform="matrix(0.979172,0.20303,-0.20303,0.979172,25.1384,-155.479)">
                                <path d="M-120.607,1205.75C529.938,1037.44 1255.45,1038.98 2045.77,1206.13C2066.02,1210.42 2085.94,1197.45 2090.22,1177.2C2094.51,1156.95 2081.54,1137.04 2061.29,1132.75C1258.45,962.952 521.454,962.163 -139.393,1133.14C-159.431,1138.32 -171.49,1158.8 -166.306,1178.84C-161.122,1198.88 -140.645,1210.93 -120.607,1205.75ZM-120.607,1078.95C529.938,910.645 1255.45,912.183 2045.77,1079.34C2066.02,1083.62 2085.94,1070.66 2090.22,1050.41C2094.51,1030.16 2081.54,1010.24 2061.29,1005.96C1258.45,836.157 521.454,835.368 -139.393,1006.34C-159.431,1011.53 -171.49,1032 -166.306,1052.04C-161.122,1072.08 -140.645,1084.14 -120.607,1078.95ZM-120.607,952.159C529.938,783.849 1255.45,785.388 2045.77,952.542C2066.02,956.825 2085.94,943.862 2090.22,923.613C2094.51,903.363 2081.54,883.446 2061.29,879.163C1258.45,709.361 521.454,708.572 -139.393,879.547C-159.431,884.731 -171.49,905.208 -166.306,925.246C-161.122,945.284 -140.645,957.343 -120.607,952.159Z" style="fill:rgb(37,177,111);"/>
                            </g>
                        </g>
                    </g>
                    <g transform="matrix(-1,0,0,1,1920,-5.91146)">
                        <path d="M0,676.903C228.92,680.154 499.336,710.395 784.735,769.572C1160.09,847.401 1491.76,960.85 1726.31,1081.94L0,1081.94L0,676.903Z" style="fill:rgb(72,217,149);"/>
                        <clipPath id="_clip4">
                            <path d="M0,676.903C228.92,680.154 499.336,710.395 784.735,769.572C1160.09,847.401 1491.76,960.85 1726.31,1081.94L0,1081.94L0,676.903Z"/>
                        </clipPath>
                        <g clip-path="url(#_clip4)">
                            <g transform="matrix(0.979172,0.20303,-0.20303,0.979172,25.1384,-155.479)">
                                <path d="M-120.607,1205.75C529.938,1037.44 1255.45,1038.98 2045.77,1206.13C2066.02,1210.42 2085.94,1197.45 2090.22,1177.2C2094.51,1156.95 2081.54,1137.04 2061.29,1132.75C1258.45,962.952 521.454,962.163 -139.393,1133.14C-159.431,1138.32 -171.49,1158.8 -166.306,1178.84C-161.122,1198.88 -140.645,1210.93 -120.607,1205.75ZM-120.607,1078.95C529.938,910.645 1255.45,912.183 2045.77,1079.34C2066.02,1083.62 2085.94,1070.66 2090.22,1050.41C2094.51,1030.16 2081.54,1010.24 2061.29,1005.96C1258.45,836.157 521.454,835.368 -139.393,1006.34C-159.431,1011.53 -171.49,1032 -166.306,1052.04C-161.122,1072.08 -140.645,1084.14 -120.607,1078.95ZM-120.607,952.159C529.938,783.849 1255.45,785.388 2045.77,952.542C2066.02,956.825 2085.94,943.862 2090.22,923.613C2094.51,903.363 2081.54,883.446 2061.29,879.163C1258.45,709.361 521.454,708.572 -139.393,879.547C-159.431,884.731 -171.49,905.208 -166.306,925.246C-161.122,945.284 -140.645,957.343 -120.607,952.159Z" style="fill:rgb(37,177,111);"/>
                            </g>
                        </g>
                    </g>
                </g>
            </g>
        </g>
    </g>
    <defs>
        <linearGradient id="_Linear2" x1="0" y1="0" x2="1" y2="0" gradientUnits="userSpaceOnUse" gradientTransform="matrix(6.61309e-14,1080,-1080,6.61309e-14,1046,0)"><stop offset="0" style="stop-color:rgb(212,224,249);stop-opacity:1"/><stop offset="1" style="stop-color:rgb(144,175,239);stop-opacity:1"/></linearGradient>
    </defs>
</svg>
